<svg width="33" height="32" viewBox="0 0 33 32" fill="none" xmlns="http://www.w3.org/2000/svg">
<g clipPath="url(#clip0_4299_24227)">
<path d="M21.7726 10.2582C27.6156 10.169 32.3846 14.7678 32.4977 20.6103C32.5144 21.4682 32.4286 22.3031 32.252 23.104C31.9529 24.46 31.7751 25.84 31.7751 27.2286V29.9129C31.7751 30.3241 31.4417 30.6575 31.0304 30.6575H28.3462C26.9575 30.6575 25.5776 30.8353 24.2215 31.1344C23.4207 31.3111 22.5858 31.3968 21.728 31.3802C15.8855 31.2671 11.2867 26.4983 11.3758 20.6554C11.4627 14.9523 16.0696 10.3454 21.7726 10.2582Z" fill="url(#paint0_linear_4299_24227)"/>
<path d="M21.7726 10.2582C27.6156 10.169 32.3846 14.7678 32.4977 20.6103C32.5144 21.4682 32.4286 22.3031 32.252 23.104C31.9529 24.46 31.7751 25.84 31.7751 27.2286V29.9129C31.7751 30.3241 31.4417 30.6575 31.0304 30.6575H28.3462C26.9575 30.6575 25.5776 30.8353 24.2215 31.1344C23.4207 31.3111 22.5858 31.3968 21.728 31.3802C15.8855 31.2671 11.2867 26.4983 11.3758 20.6554C11.4627 14.9523 16.0696 10.3454 21.7726 10.2582Z" fill="url(#paint1_linear_4299_24227)"/>
<path d="M13.5686 0.619355C6.45026 0.510605 0.640335 6.11316 0.50246 13.231C0.482272 14.276 0.58671 15.2933 0.801959 16.2689C1.16633 17.9209 1.38296 19.6021 1.38296 21.2939V24.564C1.38296 25.065 1.78908 25.4712 2.29014 25.4712H5.56026C7.25201 25.4712 8.9332 25.6878 10.5853 26.0522C11.5609 26.2674 12.5781 26.3719 13.6231 26.3516C20.7408 26.2138 26.3433 20.4041 26.2348 13.2858C26.1289 6.33791 20.5165 0.725417 13.5686 0.619355Z" fill="url(#paint2_linear_4299_24227)"/>
<path d="M8.76191 12.7962C8.39842 12.4099 7.88392 12.1674 7.31154 12.1674C6.21073 12.1674 5.31836 13.0597 5.31836 14.1605C5.31836 14.7329 5.56086 15.2474 5.94717 15.6109L10.2468 19.9105C10.6103 20.2968 11.1248 20.5393 11.6972 20.5393C12.798 20.5393 13.6903 19.647 13.6903 18.5462C13.6903 17.9738 13.4478 17.4593 13.0615 17.0958L8.76191 12.7962Z" fill="url(#paint3_linear_4299_24227)"/>
<path d="M7.31154 16.1535C8.41235 16.1535 9.30473 15.2611 9.30473 14.1603C9.30473 13.0595 8.41235 12.1671 7.31154 12.1671C6.21074 12.1671 5.31836 13.0595 5.31836 14.1603C5.31836 15.2611 6.21074 16.1535 7.31154 16.1535Z" fill="white"/>
<path d="M14.3991 12.7962C14.0356 12.4099 13.5211 12.1674 12.9488 12.1674C11.8479 12.1674 10.9556 13.0597 10.9556 14.1605C10.9556 14.7329 11.1981 15.2474 11.5844 15.6109L15.884 19.9105C16.2476 20.2968 16.7621 20.5393 17.3344 20.5393C18.4352 20.5393 19.3276 19.647 19.3276 18.5462C19.3276 17.9738 19.085 17.4593 18.6987 17.0958L14.3991 12.7962Z" fill="url(#paint4_linear_4299_24227)"/>
<path d="M12.9487 16.1535C14.0496 16.1535 14.9419 15.2611 14.9419 14.1603C14.9419 13.0595 14.0496 12.1671 12.9487 12.1671C11.8479 12.1671 10.9556 13.0595 10.9556 14.1603C10.9556 15.2611 11.8479 16.1535 12.9487 16.1535Z" fill="white"/>
<path d="M20.0358 12.7962C19.6723 12.4099 19.1578 12.1674 18.5855 12.1674C17.4847 12.1674 16.5923 13.0597 16.5923 14.1605C16.5923 14.7329 16.8348 15.2474 17.2211 15.6109L21.5207 19.9105C21.8843 20.2968 22.3988 20.5393 22.9711 20.5393C24.0719 20.5393 24.9643 19.647 24.9643 18.5462C24.9643 17.9738 24.7217 17.4593 24.3355 17.0958L20.0358 12.7962Z" fill="url(#paint5_linear_4299_24227)"/>
<path d="M18.5855 16.1535C19.6863 16.1535 20.5787 15.2611 20.5787 14.1603C20.5787 13.0595 19.6863 12.1671 18.5855 12.1671C17.4847 12.1671 16.5923 13.0595 16.5923 14.1603C16.5923 15.2611 17.4847 16.1535 18.5855 16.1535Z" fill="white"/>
</g>
<defs>
<linearGradient id="paint0_linear_4299_24227" x1="19.8049" y1="18.6881" x2="35.3126" y2="34.1958" gradientUnits="userSpaceOnUse">
<stop stop-color="#A7F3CE"/>
<stop offset="1" stop-color="#61DB99"/>
</linearGradient>
<linearGradient id="paint1_linear_4299_24227" x1="24.8813" y1="23.7642" x2="18.2945" y2="17.178" gradientUnits="userSpaceOnUse">
<stop stop-color="#61DB99" stop-opacity="0"/>
<stop offset="1" stop-color="#009E74"/>
</linearGradient>
<linearGradient id="paint2_linear_4299_24227" x1="8.66682" y1="11.4056" x2="25.0398" y2="27.7785" gradientUnits="userSpaceOnUse">
<stop stop-color="#62E1FB"/>
<stop offset="1" stop-color="#00A2F3"/>
</linearGradient>
<linearGradient id="paint3_linear_4299_24227" x1="11.7454" y1="18.5948" x2="3.1248" y2="9.97446" gradientUnits="userSpaceOnUse">
<stop stop-color="#00A2F3" stop-opacity="0"/>
<stop offset="1" stop-color="#0075CD"/>
</linearGradient>
<linearGradient id="paint4_linear_4299_24227" x1="17.3822" y1="18.5946" x2="8.76188" y2="9.97424" gradientUnits="userSpaceOnUse">
<stop stop-color="#00A2F3" stop-opacity="0"/>
<stop offset="1" stop-color="#0075CD"/>
</linearGradient>
<linearGradient id="paint5_linear_4299_24227" x1="23.0189" y1="18.5947" x2="14.3986" y2="9.97434" gradientUnits="userSpaceOnUse">
<stop stop-color="#00A2F3" stop-opacity="0"/>
<stop offset="1" stop-color="#0075CD"/>
</linearGradient>
<clipPath id="clip0_4299_24227">
<rect width="32" height="32" fill="white" transform="translate(0.5)"/>
</clipPath>
</defs>
</svg>
