<svg width="48" height="48" viewBox="0 0 48 48" fill="none" xmlns="http://www.w3.org/2000/svg">
<g clip-path="url(#clip0_4188_12917)">
<path d="M18.5746 28.291L9.18455 33.3504C8.78462 33.5659 8.28568 33.4164 8.07019 33.0164L0.098596 18.2216C-0.1169 17.8216 0.0325882 17.3227 0.43261 17.1072L9.82263 12.0478C10.2226 11.8323 10.7215 11.9818 10.937 12.3818L18.9085 27.1766C19.124 27.5766 18.9745 28.0755 18.5746 28.291Z" fill="url(#paint0_linear_4188_12917)"/>
<path d="M9.81045 12.0543L9.60744 12.1637L17.4565 26.7314C17.6756 27.138 17.5236 27.6452 17.117 27.8643L7.9541 32.8013L8.06347 33.0043C8.28257 33.4109 8.78974 33.563 9.19642 33.3439L18.5623 28.2975C18.9689 28.0784 19.121 27.5713 18.9019 27.1646L10.9433 12.3939C10.7243 11.9872 10.217 11.8352 9.81045 12.0543Z" fill="url(#paint1_linear_4188_12917)"/>
<path d="M17.818 27.8594L9.23987 32.4813C8.99202 32.6148 8.68297 32.5222 8.54938 32.2744L0.981971 18.2295C0.848476 17.9817 0.941109 17.6725 1.18887 17.539L9.76701 12.917C10.0148 12.7835 10.3239 12.8762 10.4575 13.1239L18.025 27.1689C18.1585 27.4167 18.0658 27.7259 17.818 27.8594Z" fill="url(#paint2_linear_4188_12917)"/>
<path d="M2.06848 17.0654L10.1194 32.0075L9.24012 32.4813C8.99208 32.615 8.68294 32.5222 8.54944 32.2746L0.981942 18.2297C0.848447 17.982 0.941172 17.6729 1.18921 17.5392L2.06848 17.0654Z" fill="url(#paint3_linear_4188_12917)"/>
<path d="M4.78454 15.6021L12.8354 30.5442L11.4777 31.2757L3.42676 16.3337L4.78454 15.6021Z" fill="url(#paint4_linear_4188_12917)"/>
<path d="M7.52966 14.1226L15.5805 29.0647L14.2228 29.7963L6.17188 14.8542L7.52966 14.1226Z" fill="url(#paint5_linear_4188_12917)"/>
<path d="M10.4576 13.1238L18.025 27.1687C18.1585 27.4163 18.0657 27.7255 17.8177 27.8592L16.9384 28.3329L8.8877 13.3909L9.76697 12.9171C10.015 12.7835 10.3241 12.8761 10.4576 13.1238Z" fill="url(#paint6_linear_4188_12917)"/>
<path d="M17.4847 26.1646L18.0257 27.1687C18.1592 27.4164 18.0665 27.7255 17.8184 27.8592L9.24047 32.481C8.99243 32.6147 8.68329 32.522 8.54979 32.2743L8.00879 31.2702L17.4847 26.1646Z" fill="url(#paint7_linear_4188_12917)"/>
<path d="M15.8704 23.1699L16.677 24.667L7.20123 29.7726L6.39453 28.2755L15.8704 23.1699Z" fill="url(#paint8_linear_4188_12917)"/>
<path d="M14.2572 20.1758L15.0638 21.6728L5.58795 26.7785L4.78125 25.2814L14.2572 20.1758Z" fill="url(#paint9_linear_4188_12917)"/>
<path d="M12.6252 17.147L13.4319 18.6441L3.95602 23.7497L3.14941 22.2526L12.6252 17.147Z" fill="url(#paint10_linear_4188_12917)"/>
<path d="M11.0119 14.1523L11.8186 15.6494L2.34274 20.7551L1.53613 19.258L11.0119 14.1523Z" fill="url(#paint11_linear_4188_12917)"/>
<path d="M21.0823 27.689L10.9688 31.078C10.538 31.2223 10.0718 30.9902 9.92745 30.5594L4.58776 14.6245C4.44345 14.1937 4.67558 13.7275 5.10639 13.5832L15.22 10.1942C15.6508 10.0499 16.117 10.282 16.2613 10.7128L21.601 26.6477C21.7453 27.0784 21.5131 27.5446 21.0823 27.689Z" fill="url(#paint12_linear_4188_12917)"/>
<path d="M15.2078 10.1984L14.989 10.2717L20.2467 25.9618C20.3934 26.3998 20.1574 26.8737 19.7195 27.0205L9.85059 30.3275L9.9239 30.5462C10.0707 30.9842 10.5447 31.2203 10.9826 31.0735L21.0702 27.6932C21.5082 27.5465 21.7443 27.0724 21.5975 26.6345L16.2665 10.7256C16.1197 10.2877 15.6457 10.0516 15.2078 10.1984Z" fill="url(#paint13_linear_4188_12917)"/>
<path d="M20.4106 27.135L11.1715 30.2309C10.9046 30.3203 10.6157 30.1765 10.5263 29.9096L5.4572 14.7824C5.3678 14.5155 5.51165 14.2266 5.77854 14.1372L15.0177 11.0412C15.2846 10.9518 15.5735 11.0956 15.6629 11.3625L20.7319 26.4898C20.8214 26.7566 20.6775 27.0455 20.4106 27.135Z" fill="url(#paint14_linear_4188_12917)"/>
<path d="M6.72585 13.8198L12.1187 29.9133L11.1717 30.2307C10.9045 30.3202 10.6156 30.1763 10.5262 29.9095L5.45719 14.7824C5.3678 14.5156 5.51164 14.2267 5.77882 14.1372L6.72585 13.8198Z" fill="url(#paint15_linear_4188_12917)"/>
<path d="M9.64993 12.8398L15.0427 28.9333L13.5804 29.4233L8.1875 13.3299L9.64993 12.8398Z" fill="url(#paint16_linear_4188_12917)"/>
<path d="M12.6078 11.8486L18.0007 27.9421L16.5383 28.4322L11.1455 12.3387L12.6078 11.8486Z" fill="url(#paint17_linear_4188_12917)"/>
<path d="M15.6627 11.3625L20.7317 26.4896C20.8211 26.7564 20.6773 27.0453 20.4101 27.1348L19.4631 27.4522L14.0703 11.3586L15.0173 11.0412C15.2844 10.9517 15.5733 11.0957 15.6627 11.3625Z" fill="url(#paint18_linear_4188_12917)"/>
<path d="M20.3701 25.4082L20.7325 26.4897C20.8219 26.7566 20.6781 27.0455 20.4109 27.1349L11.1719 30.2308C10.9048 30.3203 10.6159 30.1765 10.5265 29.9097L10.1641 28.8281L20.3701 25.4082Z" fill="url(#paint19_linear_4188_12917)"/>
<path d="M19.289 22.1826L19.8293 23.7951L9.62327 27.215L9.08301 25.6025L19.289 22.1826Z" fill="url(#paint20_linear_4188_12917)"/>
<path d="M18.208 18.9575L18.7483 20.57L8.54231 23.99L8.00195 22.3775L18.208 18.9575Z" fill="url(#paint21_linear_4188_12917)"/>
<path d="M17.1152 15.6953L17.6556 17.3078L7.44954 20.7277L6.90918 19.1152L17.1152 15.6953Z" fill="url(#paint22_linear_4188_12917)"/>
<path d="M16.0341 12.4702L16.5744 14.0827L6.36839 17.5026L5.82812 15.8902L16.0341 12.4702Z" fill="url(#paint23_linear_4188_12917)"/>
<path d="M23.6558 27.5224L13.1132 29.1423C12.6642 29.2113 12.2442 28.9032 12.1752 28.4541L9.62293 11.8434C9.55397 11.3944 9.862 10.9744 10.311 10.9054L20.8536 9.28553C21.3026 9.21656 21.7226 9.5246 21.7916 9.97371L24.3439 26.5845C24.4129 27.0335 24.1048 27.4534 23.6558 27.5224Z" fill="url(#paint24_linear_4188_12917)"/>
<path d="M20.8407 9.28763L20.6127 9.32267L23.1258 25.6784C23.196 26.1349 22.8828 26.5618 22.4262 26.632L12.1387 28.2126L12.1737 28.4406C12.2439 28.8971 12.6708 29.2103 13.1273 29.1402L23.6428 27.5245C24.0993 27.4544 24.4125 27.0274 24.3424 26.5709L21.7943 9.98728C21.7242 9.53077 21.2972 9.21756 20.8407 9.28763Z" fill="url(#paint25_linear_4188_12917)"/>
<path d="M23.0883 26.8619L13.4572 28.3417C13.1791 28.3844 12.9188 28.1936 12.8761 27.9153L10.4532 12.1465C10.4105 11.8683 10.6013 11.6081 10.8796 11.5654L20.5106 10.0856C20.7888 10.0429 21.0491 10.2337 21.0918 10.5119L23.5146 26.2808C23.5574 26.5589 23.3665 26.8192 23.0883 26.8619Z" fill="url(#paint26_linear_4188_12917)"/>
<path d="M11.867 11.4141L14.4447 28.1902L13.4575 28.3419C13.1791 28.3847 12.9188 28.1938 12.8761 27.9157L10.4532 12.1469C10.4105 11.8688 10.6014 11.6086 10.8799 11.5658L11.867 11.4141Z" fill="url(#paint27_linear_4188_12917)"/>
<path d="M14.9161 10.9453L17.4937 27.7214L15.9693 27.9556L13.3916 11.1795L14.9161 10.9453Z" fill="url(#paint28_linear_4188_12917)"/>
<path d="M17.9991 10.4717L20.5767 27.2478L19.0523 27.4821L16.4746 10.7059L17.9991 10.4717Z" fill="url(#paint29_linear_4188_12917)"/>
<path d="M21.092 10.5123L23.5149 26.2811C23.5576 26.5592 23.3667 26.8194 23.0882 26.8622L22.1011 27.0139L19.5234 10.2378L20.5106 10.0861C20.789 10.0433 21.0493 10.2342 21.092 10.5123Z" fill="url(#paint30_linear_4188_12917)"/>
<path d="M23.341 25.1533L23.5143 26.2807C23.557 26.5588 23.3661 26.819 23.0876 26.8618L13.4568 28.3417C13.1783 28.3845 12.9181 28.1936 12.8754 27.9155L12.7021 26.7881L23.341 25.1533Z" fill="url(#paint31_linear_4188_12917)"/>
<path d="M22.8254 21.7915L23.0837 23.4724L12.4448 25.1071L12.1865 23.4263L22.8254 21.7915Z" fill="url(#paint32_linear_4188_12917)"/>
<path d="M22.3089 18.4292L22.5671 20.1101L11.9282 21.7447L11.6699 20.0639L22.3089 18.4292Z" fill="url(#paint33_linear_4188_12917)"/>
<path d="M21.7864 15.0288L22.0447 16.7097L11.4057 18.3444L11.1475 16.6635L21.7864 15.0288Z" fill="url(#paint34_linear_4188_12917)"/>
<path d="M21.2698 11.6665L21.5281 13.3474L10.8891 14.9821L10.6309 13.3013L21.2698 11.6665Z" fill="url(#paint35_linear_4188_12917)"/>
<path d="M26.221 27.7957L15.5565 27.5993C15.1023 27.591 14.7408 27.2159 14.7492 26.7617L15.0586 9.95885C15.0669 9.50466 15.442 9.14319 15.8962 9.15151L26.5607 9.34796C27.015 9.35628 27.3763 9.73134 27.368 10.1855L27.0586 26.9885C27.0503 27.4427 26.6752 27.8041 26.221 27.7957Z" fill="url(#paint36_linear_4188_12917)"/>
<path d="M26.5468 9.34751L26.3161 9.34326L26.0114 25.8881C26.0029 26.3499 25.6217 26.7174 25.1599 26.7088L14.7534 26.5172L14.7492 26.7478C14.7407 27.2095 15.1081 27.5908 15.5699 27.5993L26.207 27.7952C26.6687 27.8037 27.05 27.4362 27.0585 26.9744L27.3675 10.199C27.3761 9.73727 27.0086 9.35602 26.5468 9.34751Z" fill="url(#paint37_linear_4188_12917)"/>
<path d="M25.774 27.0483L16.0316 26.8689C15.7502 26.8637 15.5262 26.6314 15.5313 26.3499L15.8251 10.3988C15.8303 10.1173 16.0626 9.89335 16.3441 9.89853L26.0866 10.078C26.368 10.0831 26.592 10.3155 26.5868 10.597L26.293 26.5482C26.2878 26.8296 26.0554 27.0535 25.774 27.0483Z" fill="url(#paint38_linear_4188_12917)"/>
<path d="M17.343 9.91702L17.0305 26.8871L16.0319 26.8687C15.7502 26.8635 15.5262 26.6311 15.5313 26.3498L15.8251 10.3987C15.8303 10.1173 16.0627 9.89335 16.3444 9.89853L17.343 9.91702Z" fill="url(#paint39_linear_4188_12917)"/>
<path d="M20.4269 9.97418L20.1144 26.9443L18.5723 26.9159L18.8848 9.9458L20.4269 9.97418Z" fill="url(#paint40_linear_4188_12917)"/>
<path d="M23.545 10.0313L23.2325 27.0014L21.6904 26.973L22.003 10.0029L23.545 10.0313Z" fill="url(#paint41_linear_4188_12917)"/>
<path d="M26.5861 10.5968L26.2923 26.5479C26.2871 26.8292 26.0547 27.0532 25.773 27.0481L24.7744 27.0297L25.087 10.0596L26.0856 10.078C26.3673 10.0831 26.5913 10.3155 26.5861 10.5968Z" fill="url(#paint42_linear_4188_12917)"/>
<path d="M26.3143 25.4077L26.2933 26.5481C26.2881 26.8294 26.0557 27.0534 25.774 27.0483L16.0319 26.8688C15.7502 26.8636 15.5262 26.6312 15.5313 26.3499L15.5523 25.2095L26.3143 25.4077Z" fill="url(#paint43_linear_4188_12917)"/>
<path d="M26.3763 22.0068L26.3449 23.7071L15.583 23.5089L15.6143 21.8086L26.3763 22.0068Z" fill="url(#paint44_linear_4188_12917)"/>
<path d="M26.4398 18.6059L26.4084 20.3062L15.6465 20.108L15.6778 18.4077L26.4398 18.6059Z" fill="url(#paint45_linear_4188_12917)"/>
<path d="M26.5022 15.166L26.4709 16.8663L15.709 16.6681L15.7402 14.9678L26.5022 15.166Z" fill="url(#paint46_linear_4188_12917)"/>
<path d="M26.5648 11.7651L26.5334 13.4654L15.7715 13.2672L15.8028 11.5669L26.5648 11.7651Z" fill="url(#paint47_linear_4188_12917)"/>
<path d="M28.7023 28.5011L18.2266 26.4941C17.7803 26.4086 17.4879 25.9776 17.5734 25.5314L20.7356 9.02591C20.8211 8.57975 21.2521 8.28725 21.6983 8.37276L32.1741 10.3797C32.6203 10.4652 32.9128 10.8962 32.8272 11.3424L29.6651 27.8479C29.5796 28.2942 29.1486 28.5866 28.7023 28.5011Z" fill="url(#paint48_linear_4188_12917)"/>
<path d="M32.1602 10.3773L31.9337 10.334L28.8201 26.586C28.7332 27.0397 28.295 27.337 27.8413 27.2501L17.619 25.2917L17.5756 25.5182C17.4887 25.9718 17.786 26.41 18.2397 26.4969L28.6885 28.4988C29.1422 28.5857 29.5804 28.2884 29.6673 27.8348L32.8243 11.3562C32.9112 10.9024 32.6138 10.4642 32.1602 10.3773Z" fill="url(#paint49_linear_4188_12917)"/>
<path d="M28.3882 27.6884L18.8181 25.855C18.5417 25.802 18.3605 25.5349 18.4135 25.2585L21.4154 9.58962C21.4683 9.31321 21.7354 9.13201 22.0118 9.18498L31.5819 11.0184C31.8583 11.0714 32.0395 11.3385 31.9865 11.6149L28.9846 27.2838C28.9317 27.5602 28.6647 27.7413 28.3882 27.6884Z" fill="url(#paint50_linear_4188_12917)"/>
<path d="M22.9931 9.37302L19.7994 26.0428L18.8185 25.8549C18.5418 25.8018 18.3606 25.5348 18.4135 25.2584L21.4153 9.58953C21.4683 9.31321 21.7354 9.13201 22.0121 9.18498L22.9931 9.37302Z" fill="url(#paint51_linear_4188_12917)"/>
<path d="M26.0229 9.95328L22.8292 26.6231L21.3145 26.3329L24.5082 9.66309L26.0229 9.95328Z" fill="url(#paint52_linear_4188_12917)"/>
<path d="M29.0863 10.5407L25.8927 27.2105L24.3779 26.9203L27.5715 10.2505L29.0863 10.5407Z" fill="url(#paint53_linear_4188_12917)"/>
<path d="M31.9868 11.6149L28.9849 27.2838C28.932 27.5601 28.6649 27.7413 28.3882 27.6883L27.4072 27.5004L30.6008 10.8306L31.5818 11.0185C31.8585 11.0715 32.0397 11.3386 31.9868 11.6149Z" fill="url(#paint54_linear_4188_12917)"/>
<path d="M29.1997 26.164L28.9851 27.2843C28.9321 27.5606 28.665 27.7418 28.3883 27.6889L18.8185 25.8554C18.5418 25.8024 18.3606 25.5354 18.4135 25.259L18.6281 24.1387L29.1997 26.164Z" fill="url(#paint55_linear_4188_12917)"/>
<path d="M29.8387 22.8231L29.5188 24.4934L18.9473 22.468L19.2672 20.7979L29.8387 22.8231Z" fill="url(#paint56_linear_4188_12917)"/>
<path d="M30.4794 19.4823L30.1594 21.1525L19.5879 19.1272L19.9079 17.457L30.4794 19.4823Z" fill="url(#paint57_linear_4188_12917)"/>
<path d="M31.1269 16.1034L30.8069 17.7736L20.2354 15.7483L20.5553 14.0781L31.1269 16.1034Z" fill="url(#paint58_linear_4188_12917)"/>
<path d="M31.7666 12.7626L31.4466 14.4328L20.875 12.4075L21.1951 10.7373L31.7666 12.7626Z" fill="url(#paint59_linear_4188_12917)"/>
<path d="M31.0266 29.6182L21.0446 25.8591C20.6195 25.699 20.4046 25.2245 20.5647 24.7994L26.4875 9.07197C26.6476 8.6468 27.1221 8.43195 27.5472 8.59207L37.5292 12.3512C37.9543 12.5113 38.1692 12.9857 38.0091 13.4109L32.0863 29.1383C31.9262 29.5635 31.4518 29.7783 31.0266 29.6182Z" fill="url(#paint60_linear_4188_12917)"/>
<path d="M37.5162 12.3464L37.3004 12.2651L31.4686 27.7511C31.3058 28.1834 30.8235 28.4018 30.3912 28.239L20.6508 24.5709L20.5695 24.7867C20.4067 25.219 20.6252 25.7013 21.0575 25.8641L31.0137 29.6135C31.446 29.7763 31.9283 29.5579 32.0911 29.1256L38.0043 13.4238C38.167 12.9916 37.9485 12.5092 37.5162 12.3464Z" fill="url(#paint61_linear_4188_12917)"/>
<path d="M30.8553 28.7642L21.7364 25.3301C21.4731 25.2309 21.3398 24.9369 21.4391 24.6736L27.0617 9.74323C27.1609 9.47985 27.4549 9.34673 27.7183 9.44592L36.8371 12.88C37.1006 12.9792 37.2337 13.2732 37.1345 13.5366L31.512 28.4669C31.4127 28.7303 31.1187 28.8634 30.8553 28.7642Z" fill="url(#paint62_linear_4188_12917)"/>
<path d="M28.6531 9.79783L22.6714 25.6818L21.7367 25.3299C21.4731 25.2306 21.3399 24.9366 21.439 24.6733L27.0616 9.7431C27.1608 9.47981 27.4548 9.34668 27.7185 9.44597L28.6531 9.79783Z" fill="url(#paint63_linear_4188_12917)"/>
<path d="M31.5404 10.8854L25.5586 26.7694L24.1152 26.2258L30.097 10.3418L31.5404 10.8854Z" fill="url(#paint64_linear_4188_12917)"/>
<path d="M34.4593 11.9845L28.4776 27.8684L27.0342 27.3249L33.016 11.4409L34.4593 11.9845Z" fill="url(#paint65_linear_4188_12917)"/>
<path d="M37.135 13.5364L31.5124 28.4667C31.4132 28.73 31.1192 28.8631 30.8555 28.7638L29.9209 28.4118L35.9026 12.5278L36.8373 12.8798C37.101 12.9792 37.2342 13.2731 37.135 13.5364Z" fill="url(#paint66_linear_4188_12917)"/>
<path d="M31.9142 27.3994L31.5122 28.4669C31.413 28.7302 31.1191 28.8633 30.8554 28.764L21.7367 25.33C21.4731 25.2307 21.3399 24.9367 21.439 24.6735L21.841 23.606L31.9142 27.3994Z" fill="url(#paint67_linear_4188_12917)"/>
<path d="M33.113 24.2163L32.5136 25.8078L22.4404 22.0142L23.0398 20.4229L33.113 24.2163Z" fill="url(#paint68_linear_4188_12917)"/>
<path d="M34.3121 21.0328L33.7128 22.6242L23.6396 18.8307L24.2389 17.2393L34.3121 21.0328Z" fill="url(#paint69_linear_4188_12917)"/>
<path d="M35.524 17.813L34.9247 19.4044L24.8516 15.611L25.4509 14.0195L35.524 17.813Z" fill="url(#paint70_linear_4188_12917)"/>
<path d="M36.7232 14.6298L36.124 16.2213L26.0508 12.4278L26.6501 10.8364L36.7232 14.6298Z" fill="url(#paint71_linear_4188_12917)"/>
<path d="M33.1279 31.114L23.9305 25.7122C23.5388 25.4821 23.4077 24.9781 23.6378 24.5863L32.1487 10.0951C32.3788 9.70331 32.8828 9.57231 33.2746 9.80242L42.472 15.2041C42.8637 15.4342 42.9948 15.9383 42.7647 16.3301L34.2538 30.8214C34.0237 31.213 33.5197 31.3441 33.1279 31.114Z" fill="url(#paint72_linear_4188_12917)"/>
<path d="M42.46 15.1974L42.2612 15.0806L33.881 29.3493C33.6471 29.7476 33.1346 29.8808 32.7363 29.6469L23.7615 24.3759L23.6446 24.5748C23.4107 24.973 23.5439 25.4856 23.9422 25.7195L33.1159 31.1073C33.5141 31.3412 34.0267 31.208 34.2606 30.8097L42.7575 16.3421C42.9916 15.9438 42.8583 15.4313 42.46 15.1974Z" fill="url(#paint73_linear_4188_12917)"/>
<path d="M33.105 30.2438L24.7028 25.3091C24.4601 25.1665 24.3789 24.8542 24.5215 24.6115L32.6009 10.8547C32.7435 10.612 33.0558 10.5307 33.2985 10.6733L41.7007 15.608C41.9433 15.7505 42.0246 16.0628 41.882 16.3056L33.8025 30.0624C33.6599 30.3051 33.3476 30.3863 33.105 30.2438Z" fill="url(#paint74_linear_4188_12917)"/>
<path d="M34.1599 11.1792L25.5643 25.8147L24.7031 25.3089C24.4601 25.1663 24.3789 24.8539 24.5214 24.6112L32.6009 10.8545C32.7434 10.6119 33.0557 10.5307 33.2987 10.6734L34.1599 11.1792Z" fill="url(#paint75_linear_4188_12917)"/>
<path d="M36.8191 12.7411L28.2235 27.3766L26.8936 26.5955L35.4892 11.96L36.8191 12.7411Z" fill="url(#paint76_linear_4188_12917)"/>
<path d="M39.5086 14.3211L30.913 28.9566L29.583 28.1755L38.1786 13.54L39.5086 14.3211Z" fill="url(#paint77_linear_4188_12917)"/>
<path d="M41.8817 16.3055L33.8022 30.0622C33.6597 30.3048 33.3474 30.3861 33.1044 30.2433L32.2432 29.7376L40.8388 15.1021L41.7 15.6078C41.943 15.7506 42.0242 16.0629 41.8817 16.3055Z" fill="url(#paint78_linear_4188_12917)"/>
<path d="M34.3804 29.0786L33.8028 30.0622C33.6604 30.3048 33.348 30.386 33.105 30.2433L24.7031 25.3087C24.4601 25.1661 24.3789 24.8537 24.5214 24.611L25.099 23.6274L34.3804 29.0786Z" fill="url(#paint79_linear_4188_12917)"/>
<path d="M36.1026 26.1454L35.2414 27.6117L25.96 22.1607L26.8212 20.6943L36.1026 26.1454Z" fill="url(#paint80_linear_4188_12917)"/>
<path d="M37.8253 23.2123L36.964 24.6786L27.6826 19.2275L28.5439 17.7612L37.8253 23.2123Z" fill="url(#paint81_linear_4188_12917)"/>
<path d="M39.5674 20.246L38.7062 21.7124L29.4248 16.2613L30.286 14.7949L39.5674 20.246Z" fill="url(#paint82_linear_4188_12917)"/>
<path d="M41.2901 17.3129L40.4289 18.7793L31.1475 13.3282L32.0086 11.8618L41.2901 17.3129Z" fill="url(#paint83_linear_4188_12917)"/>
<path d="M34.9433 32.9456L26.7984 26.0586C26.4514 25.7653 26.4079 25.2463 26.7014 24.8993L37.5524 12.0664C37.8458 11.7194 38.3648 11.6761 38.7117 11.9694L46.8567 18.8564C47.2036 19.1497 47.247 19.6687 46.9536 20.0157L36.1026 32.8486C35.8092 33.1955 35.2902 33.239 34.9433 32.9456Z" fill="url(#paint84_linear_4188_12917)"/>
<path d="M46.8464 18.8477L46.6703 18.6987L35.9858 31.3347C35.6876 31.6874 35.1599 31.7316 34.8072 31.4333L26.8593 24.7129L26.7104 24.889C26.4122 25.2417 26.4564 25.7694 26.809 26.0677L34.933 32.937C35.2857 33.2352 35.8134 33.191 36.1116 32.8384L46.945 20.0263C47.2433 19.6735 47.1991 19.1458 46.8464 18.8477Z" fill="url(#paint85_linear_4188_12917)"/>
<path d="M35.0685 32.0839L27.6279 25.7923C27.4129 25.6106 27.386 25.2891 27.5678 25.074L37.8689 12.8915C38.0506 12.6766 38.3722 12.6497 38.5872 12.8314L46.0278 19.123C46.2428 19.3047 46.2697 19.6264 46.0879 19.8413L35.7867 32.0238C35.605 32.2387 35.2835 32.2656 35.0685 32.0839Z" fill="url(#paint86_linear_4188_12917)"/>
<path d="M39.3499 13.4765L28.3907 26.4372L27.628 25.7923C27.4129 25.6104 27.386 25.2888 27.5677 25.0739L37.8688 12.8914C38.0504 12.6766 38.372 12.6497 38.5872 12.8316L39.3499 13.4765Z" fill="url(#paint87_linear_4188_12917)"/>
<path d="M41.7051 15.468L30.7461 28.4287L29.5684 27.4329L40.5274 14.4722L41.7051 15.468Z" fill="url(#paint88_linear_4188_12917)"/>
<path d="M44.087 17.4822L33.128 30.4429L31.9502 29.4471L42.9093 16.4863L44.087 17.4822Z" fill="url(#paint89_linear_4188_12917)"/>
<path d="M46.0879 19.8414L35.7868 32.0239C35.6051 32.2387 35.2835 32.2656 35.0684 32.0837L34.3057 31.4388L45.2648 18.478L46.0275 19.1229C46.2426 19.3049 46.2695 19.6264 46.0879 19.8414Z" fill="url(#paint90_linear_4188_12917)"/>
<path d="M36.5235 31.1527L35.7869 32.0237C35.6053 32.2386 35.2836 32.2655 35.0685 32.0835L27.628 25.7921C27.4129 25.6102 27.386 25.2885 27.5677 25.0737L28.3041 24.2026L36.5235 31.1527Z" fill="url(#paint91_linear_4188_12917)"/>
<path d="M38.7197 28.5554L37.6217 29.8539L29.4023 22.904L30.5003 21.6055L38.7197 28.5554Z" fill="url(#paint92_linear_4188_12917)"/>
<path d="M40.916 25.9578L39.818 27.2564L31.5986 20.3064L32.6966 19.0078L40.916 25.9578Z" fill="url(#paint93_linear_4188_12917)"/>
<path d="M43.1367 23.3308L42.0387 24.6294L33.8193 17.6795L34.9173 16.3809L43.1367 23.3308Z" fill="url(#paint94_linear_4188_12917)"/>
<path d="M45.334 20.7332L44.236 22.0317L36.0166 15.0818L37.1147 13.7832L45.334 20.7332Z" fill="url(#paint95_linear_4188_12917)"/>
<path d="M40.9175 29.3851C40.8341 29.5841 40.8303 29.7999 40.9254 29.9841L41.6981 31.4805C41.982 32.0306 42.0904 32.6579 42.0228 33.2999C42.9173 32.8231 43.3812 31.8568 43.0904 31.0659C43.0164 30.8648 42.9308 30.6678 42.8336 30.4757L42.1805 29.1854C42.0623 28.9516 41.8143 28.8239 41.5374 28.8213C41.4843 28.8396 41.432 28.8622 41.3807 28.8898C41.1613 29.007 41.0002 29.188 40.9175 29.3851Z" fill="url(#paint96_linear_4188_12917)"/>
<path d="M43.0821 27.2314L43.6096 29.4157C43.688 29.7407 43.7504 30.0679 43.7968 30.3963C43.9793 31.687 43.1482 32.9046 41.8817 33.2137C42.1244 32.299 42.137 31.329 41.9051 30.3954L41.2738 27.856C41.196 27.5434 41.2532 27.2276 41.4088 26.9716C41.5629 26.718 41.814 26.5225 42.1249 26.4461C42.1976 26.4278 42.2704 26.4177 42.3431 26.4141C42.6987 26.5391 42.9866 26.8358 43.0821 27.2314Z" fill="url(#paint97_linear_4188_12917)"/>
<path d="M44.8753 25.9982L44.9182 28.8757C44.9245 29.3039 44.9101 29.7303 44.8755 30.1535C44.7394 31.8175 43.3577 33.1043 41.6885 33.1332C42.2495 32.059 42.5389 30.8507 42.5126 29.6189L42.4402 26.2683C42.4311 25.8559 42.5917 25.4775 42.8582 25.2015C43.1222 24.9282 43.4911 24.7547 43.901 24.747C43.9971 24.7447 44.0908 24.7525 44.1828 24.7685C44.5915 25.0252 44.8676 25.477 44.8753 25.9982Z" fill="url(#paint98_linear_4188_12917)"/>
<path d="M45.6776 23.2073C44.8973 23.2226 44.2757 23.8702 44.2925 24.6504L44.3608 27.8267C44.3873 29.0629 44.0787 30.2724 43.485 31.3353C42.9646 30.8507 42.1486 30.8715 41.6503 31.3873L41.0476 32.0112C39.8532 33.2476 38.3184 34.1006 36.6399 34.4609C34.7106 34.875 33.1239 36.2484 32.4363 38.0994L30.7305 42.6915L31.8202 43.7441L33.8867 45.7404C34.4662 46.3002 35.4132 46.1873 35.8461 45.5078C35.8474 45.5057 35.8487 45.5038 35.85 45.5018C37.3835 43.1022 39.1533 40.8607 41.1331 38.8112L43.6107 36.2463C45.9247 33.8507 47.1966 30.6381 47.1464 27.315L47.1052 24.5863C47.0936 23.8097 46.4545 23.1921 45.6776 23.2073Z" fill="url(#paint99_linear_4188_12917)"/>
<path d="M33.9539 45.8056L30.7305 42.6918L32.436 38.0995C32.7184 37.3404 33.1513 36.6614 33.6973 36.0961C34.4826 35.2831 35.5015 34.7051 36.6396 34.4609C38.3179 34.1006 39.8532 33.2477 41.0476 32.0113L41.65 31.3876C41.8161 31.2157 42.0173 31.0984 42.2312 31.0373C42.4086 30.9857 42.5945 30.9732 42.7759 30.9987C43.0331 31.0339 43.2816 31.1463 43.4848 31.3352C44.0783 30.2723 44.387 29.0627 44.3605 27.8269L44.2921 24.6505C44.2776 23.9845 44.7285 23.4152 45.3464 23.2539C45.8643 23.4528 46.2343 23.9503 46.243 24.5396L46.2846 27.2685C46.3346 30.5914 45.0626 33.8041 42.7486 36.1996L40.2708 38.7646C38.2254 40.882 36.4039 43.205 34.8355 45.695C34.8348 45.6961 34.834 45.6973 34.8333 45.6985C34.6407 46.005 34.2146 46.0574 33.9539 45.8056Z" fill="url(#paint100_linear_4188_12917)"/>
<path d="M43.4857 31.3355C42.9653 30.8509 42.1493 30.8717 41.651 31.3875L41.0482 32.0114C39.8539 33.2478 38.3191 34.1008 36.6406 34.4611C34.7113 34.8751 33.1245 36.2486 32.437 38.0995L32.3721 38.2743L37.2053 38.1906L38.7355 37.2443C40.2496 36.3079 41.6413 35.1865 42.8782 33.906L43.5289 33.2324C44.0321 32.7115 44.0337 31.8648 43.5128 31.3616C43.5068 31.3559 43.4857 31.3355 43.4857 31.3355Z" fill="url(#paint101_linear_4188_12917)"/>
<path d="M39.5113 44.4741H30.734C30.581 44.4741 30.457 44.35 30.457 44.1971V41.4313C30.457 41.2783 30.5811 41.1543 30.734 41.1543H39.5113C39.6643 41.1543 39.7883 41.2784 39.7883 41.4313V44.1971C39.7883 44.3501 39.6643 44.4741 39.5113 44.4741Z" fill="url(#paint102_linear_4188_12917)"/>
<path d="M40.1598 45.5713V43.789C40.1598 43.4193 39.8601 43.1196 39.4905 43.1196H30.7544C30.3847 43.1196 30.085 43.4193 30.085 43.789V45.5714C30.085 45.9411 30.3847 46.2409 30.7544 46.2409H39.4905C39.8601 46.2407 40.1598 45.941 40.1598 45.5713Z" fill="url(#paint103_linear_4188_12917)"/>
<path d="M30.4463 44.2424C30.4463 43.8486 30.7276 43.5293 31.0746 43.5293H39.8929C39.9722 43.5293 40.0479 43.5467 40.1178 43.5772C40.1447 43.6565 40.16 43.7424 40.16 43.8325V45.5274C40.16 45.9212 39.8786 46.2405 39.5317 46.2405H30.7134C30.6341 46.2405 30.5583 46.2231 30.4884 46.1926C30.4616 46.1133 30.4463 46.0274 30.4463 45.9373V44.2424Z" fill="url(#paint104_linear_4188_12917)"/>
<path d="M6.23013 29.3851C6.31352 29.5841 6.31731 29.7999 6.22218 29.9841L5.4495 31.4805C5.16559 32.0306 5.05715 32.6579 5.12482 33.2999C4.2303 32.8231 3.76639 31.8568 4.05724 31.0659C4.13119 30.8648 4.2168 30.6678 4.31396 30.4757L4.96711 29.1854C5.08535 28.9516 5.33329 28.8239 5.61017 28.8213C5.66333 28.8396 5.71556 28.8622 5.76687 28.8898C5.98634 29.007 6.14748 29.188 6.23013 29.3851Z" fill="url(#paint105_linear_4188_12917)"/>
<path d="M4.06683 27.2314L3.53942 29.4157C3.46102 29.7407 3.39862 30.0679 3.35221 30.3963C3.16981 31.687 4.00082 32.9046 5.26727 33.2137C5.02459 32.299 5.01202 31.329 5.24388 30.3954L5.8752 27.856C5.95295 27.5434 5.89582 27.2276 5.74023 26.9716C5.58612 26.718 5.33503 26.5225 5.02413 26.4461C4.95137 26.4278 4.87871 26.4177 4.80586 26.4141C4.45021 26.5391 4.16233 26.8358 4.06683 27.2314Z" fill="url(#paint106_linear_4188_12917)"/>
<path d="M2.27382 25.9982L2.23093 28.8757C2.22464 29.3039 2.23906 29.7303 2.27364 30.1535C2.40972 31.8175 3.79144 33.1043 5.46068 33.1332C4.89962 32.059 4.61026 30.8507 4.6366 29.6189L4.70899 26.2683C4.71796 25.8559 4.55747 25.4775 4.29094 25.2015C4.02691 24.9282 3.65804 24.7547 3.24813 24.747C3.15208 24.7447 3.05833 24.7525 2.96644 24.7685C2.55754 25.0252 2.28149 25.477 2.27382 25.9982Z" fill="url(#paint107_linear_4188_12917)"/>
<path d="M1.47033 23.2073C2.25069 23.2226 2.87221 23.8702 2.85548 24.6504L2.78716 27.8267C2.76054 29.0629 3.06922 30.2724 3.66292 31.3353C4.18331 30.8507 4.99935 30.8715 5.49764 31.3873L6.1004 32.0112C7.29473 33.2476 8.82955 34.1006 10.508 34.4609C12.4373 34.875 14.0241 36.2484 14.7116 38.0994L16.4174 42.6915L15.3277 43.7441L13.2611 45.7404C12.6817 46.3002 11.7346 46.1873 11.3018 45.5078C11.3004 45.5057 11.2992 45.5038 11.2979 45.5018C9.76438 43.1022 7.99456 40.8607 6.01479 38.8112L3.53719 36.2463C1.22313 33.8507 -0.0487677 30.6381 0.00143144 27.315L0.0425707 24.5863C0.0543116 23.8097 0.693496 23.1921 1.47033 23.2073Z" fill="url(#paint108_linear_4188_12917)"/>
<path d="M13.1934 45.8056L16.4169 42.6918L14.7113 38.0995C14.429 37.3404 13.9961 36.6614 13.4501 36.0961C12.6647 35.2831 11.6459 34.7051 10.5078 34.4609C8.82935 34.1006 7.29416 33.2477 6.09983 32.0113L5.49734 31.3876C5.33131 31.2157 5.13005 31.0984 4.91622 31.0373C4.73881 30.9857 4.5529 30.9732 4.37151 30.9987C4.11423 31.0339 3.86573 31.1463 3.66253 31.3352C3.06911 30.2723 2.76033 29.0627 2.78687 27.8269L2.85528 24.6505C2.86979 23.9845 2.41892 23.4152 1.801 23.2539C1.28311 23.4528 0.913041 23.9503 0.904351 24.5396L0.862749 27.2685C0.812735 30.5914 2.08482 33.8041 4.39879 36.1996L6.87657 38.7646C8.92198 40.882 10.7435 43.205 12.3118 45.695C12.3125 45.6961 12.3132 45.6973 12.314 45.6985C12.5066 46.005 12.9328 46.0574 13.1934 45.8056Z" fill="url(#paint109_linear_4188_12917)"/>
<path d="M3.66331 31.3355C4.1837 30.8509 4.99973 30.8717 5.49803 31.3875L6.10079 32.0114C7.29512 33.2478 8.82994 34.1008 10.5084 34.4611C12.4377 34.8751 14.0245 36.2486 14.712 38.0995L14.7769 38.2743L9.94366 38.1906L8.41346 37.2443C6.89935 36.3079 5.50773 35.1865 4.27078 33.906L3.62013 33.2324C3.11694 32.7115 3.11537 31.8648 3.63622 31.3616C3.64223 31.3559 3.66331 31.3355 3.66331 31.3355Z" fill="url(#paint110_linear_4188_12917)"/>
<path d="M16.4146 44.4741H7.63733C7.48432 44.4741 7.36035 44.35 7.36035 44.1971V41.4313C7.36035 41.2783 7.48442 41.1543 7.63733 41.1543H16.4146C16.5676 41.1543 16.6916 41.2784 16.6916 41.4313V44.1971C16.6917 44.3501 16.5676 44.4741 16.4146 44.4741Z" fill="url(#paint111_linear_4188_12917)"/>
<path d="M17.0632 45.5713V43.789C17.0632 43.4193 16.7634 43.1196 16.3937 43.1196H7.6576C7.2879 43.1196 6.98828 43.4193 6.98828 43.789V45.5714C6.98828 45.9411 7.288 46.2409 7.6576 46.2409H16.3937C16.7634 46.2407 17.0632 45.941 17.0632 45.5713Z" fill="url(#paint112_linear_4188_12917)"/>
<path d="M7.34961 44.2424C7.34961 43.8486 7.63093 43.5293 7.97788 43.5293H16.7962C16.8756 43.5293 16.9512 43.5467 17.0211 43.5772C17.0479 43.6565 17.0633 43.7424 17.0633 43.8325V45.5274C17.0633 45.9212 16.782 46.2405 16.435 46.2405H7.61669C7.53728 46.2405 7.46166 46.2231 7.39177 46.1926C7.36486 46.1133 7.34961 46.0274 7.34961 45.9373V44.2424Z" fill="url(#paint113_linear_4188_12917)"/>
<path d="M12.6492 13.2202C11.4942 13.9729 10.5087 14.9643 9.76232 16.1242C9.59453 16.385 9.20718 16.3843 9.04031 16.1229C8.29823 14.9603 7.31634 13.9653 6.16407 13.2084C5.90827 13.0404 5.90901 12.6583 6.16536 12.4913C7.32041 11.7385 8.3059 10.7471 9.05223 9.58728C9.22003 9.32649 9.60738 9.32713 9.77425 9.58858C10.5163 10.7511 11.4983 11.7461 12.6506 12.5031C12.9062 12.6712 12.9056 13.0532 12.6492 13.2202Z" fill="url(#paint114_linear_4188_12917)"/>
<path d="M44.616 10.8359C43.4609 11.5886 42.4755 12.58 41.7291 13.7399C41.5613 14.0007 41.174 14 41.0071 13.7386C40.265 12.5761 39.2831 11.5811 38.1309 10.8241C37.8751 10.6561 37.8758 10.274 38.1322 10.107C39.2872 9.35427 40.2727 8.36286 41.019 7.20301C41.1868 6.94221 41.5742 6.94286 41.741 7.2043C42.4831 8.36683 43.4651 9.36185 44.6174 10.1188C44.8731 10.2868 44.8723 10.6688 44.616 10.8359Z" fill="url(#paint115_linear_4188_12917)"/>
<path d="M7.06221 7.62699C6.24544 8.15931 5.54847 8.86043 5.02069 9.68063C4.90198 9.86506 4.62806 9.8646 4.5101 9.6797C3.98536 8.85756 3.29099 8.15394 2.47615 7.61867C2.29532 7.49988 2.29579 7.22974 2.47708 7.11159C3.29385 6.57928 3.99082 5.87825 4.51851 5.05796C4.63721 4.87353 4.91114 4.87399 5.0291 5.05888C5.55393 5.88102 6.2483 6.58464 7.06314 7.11991C7.24406 7.23871 7.2435 7.50884 7.06221 7.62699Z" fill="url(#paint116_linear_4188_12917)"/>
<path d="M15.7126 3.61469C14.8958 4.14701 14.1989 4.84813 13.6711 5.66833C13.5524 5.85276 13.2785 5.8523 13.1605 5.6674C12.6358 4.84526 11.9414 4.14164 11.1265 3.60637C10.9457 3.48758 10.9462 3.21744 11.1275 3.0993C11.9442 2.56698 12.6412 1.86595 13.1689 1.04575C13.2876 0.861318 13.5615 0.86178 13.6795 1.04668C14.2043 1.86881 14.8987 2.57243 15.7135 3.10771C15.8944 3.22641 15.8939 3.49654 15.7126 3.61469Z" fill="url(#paint117_linear_4188_12917)"/>
<path d="M36.5222 5.17777C35.7054 5.71009 35.0084 6.41121 34.4806 7.23141C34.3619 7.41584 34.088 7.41538 33.9701 7.23048C33.4453 6.40835 32.7509 5.70472 31.9361 5.16945C31.7553 5.05066 31.7557 4.78052 31.937 4.66238C32.7538 4.13006 33.4508 3.42894 33.9785 2.60874C34.0972 2.42431 34.3711 2.42477 34.4891 2.60966C35.0139 3.4318 35.7083 4.13542 36.5231 4.6707C36.7039 4.7894 36.7035 5.05962 36.5222 5.17777Z" fill="url(#paint118_linear_4188_12917)"/>
</g>
<defs>
<linearGradient id="paint0_linear_4188_12917" x1="7.5394" y1="22.1091" x2="30.7595" y2="29.0717" gradientUnits="userSpaceOnUse">
<stop stop-color="#E4F2FF"/>
<stop offset="1" stop-color="#B2CBFF"/>
</linearGradient>
<linearGradient id="paint1_linear_4188_12917" x1="13.2917" y1="21.3438" x2="28.8969" y2="0.403227" gradientUnits="userSpaceOnUse">
<stop stop-color="#3F3CED" stop-opacity="0"/>
<stop offset="0.2796" stop-color="#3C3DE4" stop-opacity="0.28"/>
<stop offset="0.7305" stop-color="#3541CC" stop-opacity="0.731"/>
<stop offset="1" stop-color="#2F43BB"/>
</linearGradient>
<linearGradient id="paint2_linear_4188_12917" x1="3.05167" y1="20.0398" x2="21.689" y2="27.7222" gradientUnits="userSpaceOnUse">
<stop stop-color="#FF7044"/>
<stop offset="1" stop-color="#F82814"/>
</linearGradient>
<linearGradient id="paint3_linear_4188_12917" x1="-2.95976" y1="22.2656" x2="17.9956" y2="28.5492" gradientUnits="userSpaceOnUse">
<stop stop-color="#FF7044" stop-opacity="0"/>
<stop offset="1" stop-color="#FFA325"/>
</linearGradient>
<linearGradient id="paint4_linear_4188_12917" x1="-2.36675" y1="20.2894" x2="18.5886" y2="26.573" gradientUnits="userSpaceOnUse">
<stop stop-color="#FF7044" stop-opacity="0"/>
<stop offset="1" stop-color="#FFA325"/>
</linearGradient>
<linearGradient id="paint5_linear_4188_12917" x1="-1.73452" y1="18.1776" x2="19.2208" y2="24.4611" gradientUnits="userSpaceOnUse">
<stop stop-color="#FF7044" stop-opacity="0"/>
<stop offset="1" stop-color="#FFA325"/>
</linearGradient>
<linearGradient id="paint6_linear_4188_12917" x1="-1.14175" y1="16.2015" x2="19.8136" y2="22.485" gradientUnits="userSpaceOnUse">
<stop stop-color="#FF7044" stop-opacity="0"/>
<stop offset="1" stop-color="#FFA325"/>
</linearGradient>
<linearGradient id="paint7_linear_4188_12917" x1="2.73407" y1="35.0353" x2="20.806" y2="25.3011" gradientUnits="userSpaceOnUse">
<stop stop-color="#FF7044" stop-opacity="0"/>
<stop offset="1" stop-color="#FFA325"/>
</linearGradient>
<linearGradient id="paint8_linear_4188_12917" x1="1.13272" y1="32.0639" x2="19.2046" y2="22.3297" gradientUnits="userSpaceOnUse">
<stop stop-color="#FF7044" stop-opacity="0"/>
<stop offset="1" stop-color="#FFA325"/>
</linearGradient>
<linearGradient id="paint9_linear_4188_12917" x1="-0.47948" y1="29.0707" x2="17.5924" y2="19.3366" gradientUnits="userSpaceOnUse">
<stop stop-color="#FF7044" stop-opacity="0"/>
<stop offset="1" stop-color="#FFA325"/>
</linearGradient>
<linearGradient id="paint10_linear_4188_12917" x1="-2.11033" y1="26.0429" x2="15.9615" y2="16.3088" gradientUnits="userSpaceOnUse">
<stop stop-color="#FF7044" stop-opacity="0"/>
<stop offset="1" stop-color="#FFA325"/>
</linearGradient>
<linearGradient id="paint11_linear_4188_12917" x1="-3.72262" y1="23.0494" x2="14.3493" y2="13.3152" gradientUnits="userSpaceOnUse">
<stop stop-color="#FF7044" stop-opacity="0"/>
<stop offset="1" stop-color="#FFA325"/>
</linearGradient>
<linearGradient id="paint12_linear_4188_12917" x1="11.2714" y1="19.7196" x2="32.9811" y2="30.523" gradientUnits="userSpaceOnUse">
<stop stop-color="#E4F2FF"/>
<stop offset="1" stop-color="#B2CBFF"/>
</linearGradient>
<linearGradient id="paint13_linear_4188_12917" x1="17.0728" y1="19.9408" x2="36.0091" y2="1.94504" gradientUnits="userSpaceOnUse">
<stop stop-color="#3F3CED" stop-opacity="0"/>
<stop offset="0.2796" stop-color="#3C3DE4" stop-opacity="0.28"/>
<stop offset="0.7305" stop-color="#3541CC" stop-opacity="0.731"/>
<stop offset="1" stop-color="#2F43BB"/>
</linearGradient>
<linearGradient id="paint14_linear_4188_12917" x1="7.19879" y1="16.918" x2="24.2685" y2="27.6537" gradientUnits="userSpaceOnUse">
<stop stop-color="#FF7044"/>
<stop offset="1" stop-color="#F82814"/>
</linearGradient>
<linearGradient id="paint15_linear_4188_12917" x1="0.894835" y1="18.0924" x2="20.4874" y2="27.8422" gradientUnits="userSpaceOnUse">
<stop stop-color="#FF7044" stop-opacity="0"/>
<stop offset="1" stop-color="#FFA325"/>
</linearGradient>
<linearGradient id="paint16_linear_4188_12917" x1="1.81338" y1="16.2449" x2="21.4059" y2="25.9948" gradientUnits="userSpaceOnUse">
<stop stop-color="#FF7044" stop-opacity="0"/>
<stop offset="1" stop-color="#FFA325"/>
</linearGradient>
<linearGradient id="paint17_linear_4188_12917" x1="2.79607" y1="14.2702" x2="22.3886" y2="24.02" gradientUnits="userSpaceOnUse">
<stop stop-color="#FF7044" stop-opacity="0"/>
<stop offset="1" stop-color="#FFA325"/>
</linearGradient>
<linearGradient id="paint18_linear_4188_12917" x1="3.71542" y1="12.4226" x2="23.308" y2="22.1725" gradientUnits="userSpaceOnUse">
<stop stop-color="#FF7044" stop-opacity="0"/>
<stop offset="1" stop-color="#FFA325"/>
</linearGradient>
<linearGradient id="paint19_linear_4188_12917" x1="4.3415" y1="31.6472" x2="23.8087" y2="25.1171" gradientUnits="userSpaceOnUse">
<stop stop-color="#FF7044" stop-opacity="0"/>
<stop offset="1" stop-color="#FFA325"/>
</linearGradient>
<linearGradient id="paint20_linear_4188_12917" x1="3.26742" y1="28.4463" x2="22.7346" y2="21.9161" gradientUnits="userSpaceOnUse">
<stop stop-color="#FF7044" stop-opacity="0"/>
<stop offset="1" stop-color="#FFA325"/>
</linearGradient>
<linearGradient id="paint21_linear_4188_12917" x1="2.1854" y1="25.2219" x2="21.6525" y2="18.6917" gradientUnits="userSpaceOnUse">
<stop stop-color="#FF7044" stop-opacity="0"/>
<stop offset="1" stop-color="#FFA325"/>
</linearGradient>
<linearGradient id="paint22_linear_4188_12917" x1="1.09152" y1="21.9603" x2="20.5588" y2="15.4301" gradientUnits="userSpaceOnUse">
<stop stop-color="#FF7044" stop-opacity="0"/>
<stop offset="1" stop-color="#FFA325"/>
</linearGradient>
<linearGradient id="paint23_linear_4188_12917" x1="0.00940557" y1="18.7359" x2="19.4766" y2="12.2058" gradientUnits="userSpaceOnUse">
<stop stop-color="#FF7044" stop-opacity="0"/>
<stop offset="1" stop-color="#FFA325"/>
</linearGradient>
<linearGradient id="paint24_linear_4188_12917" x1="15.3365" y1="17.9975" x2="34.8853" y2="32.3332" gradientUnits="userSpaceOnUse">
<stop stop-color="#E4F2FF"/>
<stop offset="1" stop-color="#B2CBFF"/>
</linearGradient>
<linearGradient id="paint25_linear_4188_12917" x1="21.014" y1="19.2027" x2="42.7311" y2="4.69523" gradientUnits="userSpaceOnUse">
<stop stop-color="#3F3CED" stop-opacity="0"/>
<stop offset="0.2796" stop-color="#3C3DE4" stop-opacity="0.28"/>
<stop offset="0.7305" stop-color="#3541CC" stop-opacity="0.731"/>
<stop offset="1" stop-color="#2F43BB"/>
</linearGradient>
<linearGradient id="paint26_linear_4188_12917" x1="11.8013" y1="14.5445" x2="26.7908" y2="28.0242" gradientUnits="userSpaceOnUse">
<stop stop-color="#FF7044"/>
<stop offset="1" stop-color="#F82814"/>
</linearGradient>
<linearGradient id="paint27_linear_4188_12917" x1="5.39157" y1="14.6293" x2="23.0333" y2="27.5665" gradientUnits="userSpaceOnUse">
<stop stop-color="#FF7044" stop-opacity="0"/>
<stop offset="1" stop-color="#FFA325"/>
</linearGradient>
<linearGradient id="paint28_linear_4188_12917" x1="6.61182" y1="12.9655" x2="24.2535" y2="25.9027" gradientUnits="userSpaceOnUse">
<stop stop-color="#FF7044" stop-opacity="0"/>
<stop offset="1" stop-color="#FFA325"/>
</linearGradient>
<linearGradient id="paint29_linear_4188_12917" x1="7.91553" y1="11.1878" x2="25.5573" y2="24.125" gradientUnits="userSpaceOnUse">
<stop stop-color="#FF7044" stop-opacity="0"/>
<stop offset="1" stop-color="#FFA325"/>
</linearGradient>
<linearGradient id="paint30_linear_4188_12917" x1="9.13542" y1="9.52463" x2="26.7771" y2="22.4618" gradientUnits="userSpaceOnUse">
<stop stop-color="#FF7044" stop-opacity="0"/>
<stop offset="1" stop-color="#FFA325"/>
</linearGradient>
<linearGradient id="paint31_linear_4188_12917" x1="6.4793" y1="28.5685" x2="26.7679" y2="25.4472" gradientUnits="userSpaceOnUse">
<stop stop-color="#FF7044" stop-opacity="0"/>
<stop offset="1" stop-color="#FFA325"/>
</linearGradient>
<linearGradient id="paint32_linear_4188_12917" x1="5.96716" y1="25.233" x2="26.2558" y2="22.1117" gradientUnits="userSpaceOnUse">
<stop stop-color="#FF7044" stop-opacity="0"/>
<stop offset="1" stop-color="#FFA325"/>
</linearGradient>
<linearGradient id="paint33_linear_4188_12917" x1="5.45021" y1="21.872" x2="25.7389" y2="18.7507" gradientUnits="userSpaceOnUse">
<stop stop-color="#FF7044" stop-opacity="0"/>
<stop offset="1" stop-color="#FFA325"/>
</linearGradient>
<linearGradient id="paint34_linear_4188_12917" x1="4.92735" y1="18.473" x2="25.216" y2="15.3517" gradientUnits="userSpaceOnUse">
<stop stop-color="#FF7044" stop-opacity="0"/>
<stop offset="1" stop-color="#FFA325"/>
</linearGradient>
<linearGradient id="paint35_linear_4188_12917" x1="4.4104" y1="15.1122" x2="24.6991" y2="11.9908" gradientUnits="userSpaceOnUse">
<stop stop-color="#FF7044" stop-opacity="0"/>
<stop offset="1" stop-color="#FFA325"/>
</linearGradient>
<linearGradient id="paint36_linear_4188_12917" x1="19.6512" y1="17.0052" x2="36.4912" y2="34.4626" gradientUnits="userSpaceOnUse">
<stop stop-color="#E4F2FF"/>
<stop offset="1" stop-color="#B2CBFF"/>
</linearGradient>
<linearGradient id="paint37_linear_4188_12917" x1="25.0438" y1="19.1579" x2="48.9225" y2="8.54319" gradientUnits="userSpaceOnUse">
<stop stop-color="#3F3CED" stop-opacity="0"/>
<stop offset="0.2796" stop-color="#3C3DE4" stop-opacity="0.28"/>
<stop offset="0.7305" stop-color="#3541CC" stop-opacity="0.731"/>
<stop offset="1" stop-color="#2F43BB"/>
</linearGradient>
<linearGradient id="paint38_linear_4188_12917" x1="16.752" y1="12.9997" x2="29.2418" y2="28.8383" gradientUnits="userSpaceOnUse">
<stop stop-color="#FF7044"/>
<stop offset="1" stop-color="#F82814"/>
</linearGradient>
<linearGradient id="paint39_linear_4188_12917" x1="10.4173" y1="11.9938" x2="25.6147" y2="27.7484" gradientUnits="userSpaceOnUse">
<stop stop-color="#FF7044" stop-opacity="0"/>
<stop offset="1" stop-color="#FFA325"/>
</linearGradient>
<linearGradient id="paint40_linear_4188_12917" x1="11.9027" y1="10.5611" x2="27.1001" y2="26.3157" gradientUnits="userSpaceOnUse">
<stop stop-color="#FF7044" stop-opacity="0"/>
<stop offset="1" stop-color="#FFA325"/>
</linearGradient>
<linearGradient id="paint41_linear_4188_12917" x1="13.4897" y1="9.02925" x2="28.6871" y2="24.7838" gradientUnits="userSpaceOnUse">
<stop stop-color="#FF7044" stop-opacity="0"/>
<stop offset="1" stop-color="#FFA325"/>
</linearGradient>
<linearGradient id="paint42_linear_4188_12917" x1="14.9753" y1="7.59601" x2="30.1727" y2="23.3506" gradientUnits="userSpaceOnUse">
<stop stop-color="#FF7044" stop-opacity="0"/>
<stop offset="1" stop-color="#FFA325"/>
</linearGradient>
<linearGradient id="paint43_linear_4188_12917" x1="9.12214" y1="25.9238" x2="29.6578" y2="26.2934" gradientUnits="userSpaceOnUse">
<stop stop-color="#FF7044" stop-opacity="0"/>
<stop offset="1" stop-color="#FFA325"/>
</linearGradient>
<linearGradient id="paint44_linear_4188_12917" x1="9.18235" y1="22.5474" x2="29.7181" y2="22.917" gradientUnits="userSpaceOnUse">
<stop stop-color="#FF7044" stop-opacity="0"/>
<stop offset="1" stop-color="#FFA325"/>
</linearGradient>
<linearGradient id="paint45_linear_4188_12917" x1="9.24447" y1="19.1458" x2="29.7802" y2="19.5154" gradientUnits="userSpaceOnUse">
<stop stop-color="#FF7044" stop-opacity="0"/>
<stop offset="1" stop-color="#FFA325"/>
</linearGradient>
<linearGradient id="paint46_linear_4188_12917" x1="9.30557" y1="15.7052" x2="29.8413" y2="16.0748" gradientUnits="userSpaceOnUse">
<stop stop-color="#FF7044" stop-opacity="0"/>
<stop offset="1" stop-color="#FFA325"/>
</linearGradient>
<linearGradient id="paint47_linear_4188_12917" x1="9.36671" y1="12.3037" x2="29.9024" y2="12.6733" gradientUnits="userSpaceOnUse">
<stop stop-color="#FF7044" stop-opacity="0"/>
<stop offset="1" stop-color="#FFA325"/>
</linearGradient>
<linearGradient id="paint48_linear_4188_12917" x1="24.0575" y1="16.7441" x2="37.6739" y2="36.8083" gradientUnits="userSpaceOnUse">
<stop stop-color="#E4F2FF"/>
<stop offset="1" stop-color="#B2CBFF"/>
</linearGradient>
<linearGradient id="paint49_linear_4188_12917" x1="29.0027" y1="19.783" x2="54.3313" y2="13.3929" gradientUnits="userSpaceOnUse">
<stop stop-color="#3F3CED" stop-opacity="0"/>
<stop offset="0.2796" stop-color="#3C3DE4" stop-opacity="0.28"/>
<stop offset="0.7305" stop-color="#3541CC" stop-opacity="0.731"/>
<stop offset="1" stop-color="#2F43BB"/>
</linearGradient>
<linearGradient id="paint50_linear_4188_12917" x1="21.8829" y1="12.3046" x2="31.4894" y2="30.0333" gradientUnits="userSpaceOnUse">
<stop stop-color="#FF7044"/>
<stop offset="1" stop-color="#F82814"/>
</linearGradient>
<linearGradient id="paint51_linear_4188_12917" x1="15.8139" y1="10.2351" x2="28.1025" y2="28.3429" gradientUnits="userSpaceOnUse">
<stop stop-color="#FF7044" stop-opacity="0"/>
<stop offset="1" stop-color="#FFA325"/>
</linearGradient>
<linearGradient id="paint52_linear_4188_12917" x1="17.5215" y1="9.07613" x2="29.81" y2="27.1839" gradientUnits="userSpaceOnUse">
<stop stop-color="#FF7044" stop-opacity="0"/>
<stop offset="1" stop-color="#FFA325"/>
</linearGradient>
<linearGradient id="paint53_linear_4188_12917" x1="19.3462" y1="7.83792" x2="31.6347" y2="25.9456" gradientUnits="userSpaceOnUse">
<stop stop-color="#FF7044" stop-opacity="0"/>
<stop offset="1" stop-color="#FFA325"/>
</linearGradient>
<linearGradient id="paint54_linear_4188_12917" x1="21.0534" y1="6.67866" x2="33.3418" y2="24.7865" gradientUnits="userSpaceOnUse">
<stop stop-color="#FF7044" stop-opacity="0"/>
<stop offset="1" stop-color="#FFA325"/>
</linearGradient>
<linearGradient id="paint55_linear_4188_12917" x1="12.167" y1="23.7371" x2="32.3332" y2="27.5978" gradientUnits="userSpaceOnUse">
<stop stop-color="#FF7044" stop-opacity="0"/>
<stop offset="1" stop-color="#FFA325"/>
</linearGradient>
<linearGradient id="paint56_linear_4188_12917" x1="12.8006" y1="20.4213" x2="32.9668" y2="24.282" gradientUnits="userSpaceOnUse">
<stop stop-color="#FF7044" stop-opacity="0"/>
<stop offset="1" stop-color="#FFA325"/>
</linearGradient>
<linearGradient id="paint57_linear_4188_12917" x1="13.4406" y1="17.0809" x2="33.6068" y2="20.9416" gradientUnits="userSpaceOnUse">
<stop stop-color="#FF7044" stop-opacity="0"/>
<stop offset="1" stop-color="#FFA325"/>
</linearGradient>
<linearGradient id="paint58_linear_4188_12917" x1="14.0874" y1="13.7023" x2="34.2536" y2="17.563" gradientUnits="userSpaceOnUse">
<stop stop-color="#FF7044" stop-opacity="0"/>
<stop offset="1" stop-color="#FFA325"/>
</linearGradient>
<linearGradient id="paint59_linear_4188_12917" x1="14.7263" y1="10.3618" x2="34.8925" y2="14.2225" gradientUnits="userSpaceOnUse">
<stop stop-color="#FF7044" stop-opacity="0"/>
<stop offset="1" stop-color="#FFA325"/>
</linearGradient>
<linearGradient id="paint60_linear_4188_12917" x1="28.454" y1="17.2473" x2="38.469" y2="39.3352" gradientUnits="userSpaceOnUse">
<stop stop-color="#E4F2FF"/>
<stop offset="1" stop-color="#B2CBFF"/>
</linearGradient>
<linearGradient id="paint61_linear_4188_12917" x1="32.8128" y1="21.0823" x2="58.8641" y2="19.0833" gradientUnits="userSpaceOnUse">
<stop stop-color="#3F3CED" stop-opacity="0"/>
<stop offset="0.2796" stop-color="#3C3DE4" stop-opacity="0.28"/>
<stop offset="0.7305" stop-color="#3541CC" stop-opacity="0.731"/>
<stop offset="1" stop-color="#2F43BB"/>
</linearGradient>
<linearGradient id="paint62_linear_4188_12917" x1="27.0642" y1="12.5024" x2="33.5234" y2="31.6078" gradientUnits="userSpaceOnUse">
<stop stop-color="#FF7044"/>
<stop offset="1" stop-color="#F82814"/>
</linearGradient>
<linearGradient id="paint63_linear_4188_12917" x1="21.4336" y1="9.43215" x2="30.4717" y2="29.3655" gradientUnits="userSpaceOnUse">
<stop stop-color="#FF7044" stop-opacity="0"/>
<stop offset="1" stop-color="#FFA325"/>
</linearGradient>
<linearGradient id="paint64_linear_4188_12917" x1="23.3138" y1="8.58043" x2="32.3519" y2="28.5138" gradientUnits="userSpaceOnUse">
<stop stop-color="#FF7044" stop-opacity="0"/>
<stop offset="1" stop-color="#FFA325"/>
</linearGradient>
<linearGradient id="paint65_linear_4188_12917" x1="25.3225" y1="7.66933" x2="34.3606" y2="27.6027" gradientUnits="userSpaceOnUse">
<stop stop-color="#FF7044" stop-opacity="0"/>
<stop offset="1" stop-color="#FFA325"/>
</linearGradient>
<linearGradient id="paint66_linear_4188_12917" x1="27.202" y1="6.81693" x2="36.2401" y2="26.7503" gradientUnits="userSpaceOnUse">
<stop stop-color="#FF7044" stop-opacity="0"/>
<stop offset="1" stop-color="#FFA325"/>
</linearGradient>
<linearGradient id="paint67_linear_4188_12917" x1="15.5463" y1="22.121" x2="34.7681" y2="29.3497" gradientUnits="userSpaceOnUse">
<stop stop-color="#FF7044" stop-opacity="0"/>
<stop offset="1" stop-color="#FFA325"/>
</linearGradient>
<linearGradient id="paint68_linear_4188_12917" x1="16.7349" y1="18.9608" x2="35.9566" y2="26.1895" gradientUnits="userSpaceOnUse">
<stop stop-color="#FF7044" stop-opacity="0"/>
<stop offset="1" stop-color="#FFA325"/>
</linearGradient>
<linearGradient id="paint69_linear_4188_12917" x1="17.9327" y1="15.7766" x2="37.1544" y2="23.0053" gradientUnits="userSpaceOnUse">
<stop stop-color="#FF7044" stop-opacity="0"/>
<stop offset="1" stop-color="#FFA325"/>
</linearGradient>
<linearGradient id="paint70_linear_4188_12917" x1="19.1432" y1="12.5562" x2="38.365" y2="19.7849" gradientUnits="userSpaceOnUse">
<stop stop-color="#FF7044" stop-opacity="0"/>
<stop offset="1" stop-color="#FFA325"/>
</linearGradient>
<linearGradient id="paint71_linear_4188_12917" x1="20.3411" y1="9.37239" x2="39.5628" y2="16.6011" gradientUnits="userSpaceOnUse">
<stop stop-color="#FF7044" stop-opacity="0"/>
<stop offset="1" stop-color="#FFA325"/>
</linearGradient>
<linearGradient id="paint72_linear_4188_12917" x1="32.6942" y1="18.4739" x2="38.799" y2="41.9326" gradientUnits="userSpaceOnUse">
<stop stop-color="#E4F2FF"/>
<stop offset="1" stop-color="#B2CBFF"/>
</linearGradient>
<linearGradient id="paint73_linear_4188_12917" x1="36.3347" y1="22.9932" x2="62.333" y2="25.458" gradientUnits="userSpaceOnUse">
<stop stop-color="#3F3CED" stop-opacity="0"/>
<stop offset="0.2796" stop-color="#3C3DE4" stop-opacity="0.28"/>
<stop offset="0.7305" stop-color="#3541CC" stop-opacity="0.731"/>
<stop offset="1" stop-color="#2F43BB"/>
</linearGradient>
<linearGradient id="paint74_linear_4188_12917" x1="32.1335" y1="13.5648" x2="35.2438" y2="33.4809" gradientUnits="userSpaceOnUse">
<stop stop-color="#FF7044"/>
<stop offset="1" stop-color="#F82814"/>
</linearGradient>
<linearGradient id="paint75_linear_4188_12917" x1="27.1106" y1="9.58283" x2="32.6197" y2="30.7529" gradientUnits="userSpaceOnUse">
<stop stop-color="#FF7044" stop-opacity="0"/>
<stop offset="1" stop-color="#FFA325"/>
</linearGradient>
<linearGradient id="paint76_linear_4188_12917" x1="29.1061" y1="9.06324" x2="34.6153" y2="30.2333" gradientUnits="userSpaceOnUse">
<stop stop-color="#FF7044" stop-opacity="0"/>
<stop offset="1" stop-color="#FFA325"/>
</linearGradient>
<linearGradient id="paint77_linear_4188_12917" x1="31.2394" y1="8.5084" x2="36.7486" y2="29.6785" gradientUnits="userSpaceOnUse">
<stop stop-color="#FF7044" stop-opacity="0"/>
<stop offset="1" stop-color="#FFA325"/>
</linearGradient>
<linearGradient id="paint78_linear_4188_12917" x1="33.2361" y1="7.98893" x2="38.7452" y2="29.159" gradientUnits="userSpaceOnUse">
<stop stop-color="#FF7044" stop-opacity="0"/>
<stop offset="1" stop-color="#FFA325"/>
</linearGradient>
<linearGradient id="paint79_linear_4188_12917" x1="19.1525" y1="21.0777" x2="36.8537" y2="31.4684" gradientUnits="userSpaceOnUse">
<stop stop-color="#FF7044" stop-opacity="0"/>
<stop offset="1" stop-color="#FFA325"/>
</linearGradient>
<linearGradient id="paint80_linear_4188_12917" x1="20.8606" y1="18.1672" x2="38.5619" y2="28.558" gradientUnits="userSpaceOnUse">
<stop stop-color="#FF7044" stop-opacity="0"/>
<stop offset="1" stop-color="#FFA325"/>
</linearGradient>
<linearGradient id="paint81_linear_4188_12917" x1="22.5818" y1="15.2351" x2="40.2831" y2="25.6259" gradientUnits="userSpaceOnUse">
<stop stop-color="#FF7044" stop-opacity="0"/>
<stop offset="1" stop-color="#FFA325"/>
</linearGradient>
<linearGradient id="paint82_linear_4188_12917" x1="24.3226" y1="12.2698" x2="42.0239" y2="22.6606" gradientUnits="userSpaceOnUse">
<stop stop-color="#FF7044" stop-opacity="0"/>
<stop offset="1" stop-color="#FFA325"/>
</linearGradient>
<linearGradient id="paint83_linear_4188_12917" x1="26.044" y1="9.33777" x2="43.7452" y2="19.7285" gradientUnits="userSpaceOnUse">
<stop stop-color="#FF7044" stop-opacity="0"/>
<stop offset="1" stop-color="#FFA325"/>
</linearGradient>
<linearGradient id="paint84_linear_4188_12917" x1="36.653" y1="20.4328" x2="38.6765" y2="44.6118" gradientUnits="userSpaceOnUse">
<stop stop-color="#E4F2FF"/>
<stop offset="1" stop-color="#B2CBFF"/>
</linearGradient>
<linearGradient id="paint85_linear_4188_12917" x1="39.4737" y1="25.5103" x2="64.6962" y2="32.3719" gradientUnits="userSpaceOnUse">
<stop stop-color="#3F3CED" stop-opacity="0"/>
<stop offset="0.2796" stop-color="#3C3DE4" stop-opacity="0.28"/>
<stop offset="0.7305" stop-color="#3541CC" stop-opacity="0.731"/>
<stop offset="1" stop-color="#2F43BB"/>
</linearGradient>
<linearGradient id="paint86_linear_4188_12917" x1="36.9364" y1="15.4947" x2="36.61" y2="35.6691" gradientUnits="userSpaceOnUse">
<stop stop-color="#FF7044"/>
<stop offset="1" stop-color="#F82814"/>
</linearGradient>
<linearGradient id="paint87_linear_4188_12917" x1="32.6603" y1="10.7111" x2="34.4865" y2="32.5321" gradientUnits="userSpaceOnUse">
<stop stop-color="#FF7044" stop-opacity="0"/>
<stop offset="1" stop-color="#FFA325"/>
</linearGradient>
<linearGradient id="paint88_linear_4188_12917" x1="34.7178" y1="10.5386" x2="36.5439" y2="32.3595" gradientUnits="userSpaceOnUse">
<stop stop-color="#FF7044" stop-opacity="0"/>
<stop offset="1" stop-color="#FFA325"/>
</linearGradient>
<linearGradient id="paint89_linear_4188_12917" x1="36.9169" y1="10.3546" x2="38.7431" y2="32.1755" gradientUnits="userSpaceOnUse">
<stop stop-color="#FF7044" stop-opacity="0"/>
<stop offset="1" stop-color="#FFA325"/>
</linearGradient>
<linearGradient id="paint90_linear_4188_12917" x1="38.9745" y1="10.1822" x2="40.8006" y2="32.0032" gradientUnits="userSpaceOnUse">
<stop stop-color="#FF7044" stop-opacity="0"/>
<stop offset="1" stop-color="#FFA325"/>
</linearGradient>
<linearGradient id="paint91_linear_4188_12917" x1="22.8525" y1="20.6931" x2="38.5412" y2="33.9587" gradientUnits="userSpaceOnUse">
<stop stop-color="#FF7044" stop-opacity="0"/>
<stop offset="1" stop-color="#FFA325"/>
</linearGradient>
<linearGradient id="paint92_linear_4188_12917" x1="25.0334" y1="18.1138" x2="40.7222" y2="31.3793" gradientUnits="userSpaceOnUse">
<stop stop-color="#FF7044" stop-opacity="0"/>
<stop offset="1" stop-color="#FFA325"/>
</linearGradient>
<linearGradient id="paint93_linear_4188_12917" x1="27.2308" y1="15.5148" x2="42.9195" y2="28.7804" gradientUnits="userSpaceOnUse">
<stop stop-color="#FF7044" stop-opacity="0"/>
<stop offset="1" stop-color="#FFA325"/>
</linearGradient>
<linearGradient id="paint94_linear_4188_12917" x1="29.4526" y1="12.8865" x2="45.1413" y2="26.1521" gradientUnits="userSpaceOnUse">
<stop stop-color="#FF7044" stop-opacity="0"/>
<stop offset="1" stop-color="#FFA325"/>
</linearGradient>
<linearGradient id="paint95_linear_4188_12917" x1="31.6509" y1="10.2874" x2="47.3396" y2="23.553" gradientUnits="userSpaceOnUse">
<stop stop-color="#FF7044" stop-opacity="0"/>
<stop offset="1" stop-color="#FFA325"/>
</linearGradient>
<linearGradient id="paint96_linear_4188_12917" x1="40.9042" y1="31.3336" x2="42.5452" y2="30.7597" gradientUnits="userSpaceOnUse">
<stop stop-color="#FFDECF"/>
<stop offset="1" stop-color="#FAA68E"/>
</linearGradient>
<linearGradient id="paint97_linear_4188_12917" x1="41.2355" y1="29.8691" x2="43.0806" y2="29.9316" gradientUnits="userSpaceOnUse">
<stop stop-color="#FFDECF"/>
<stop offset="1" stop-color="#FAA68E"/>
</linearGradient>
<linearGradient id="paint98_linear_4188_12917" x1="41.7022" y1="28.5993" x2="43.9884" y2="29.1976" gradientUnits="userSpaceOnUse">
<stop stop-color="#FFDECF"/>
<stop offset="1" stop-color="#FAA68E"/>
</linearGradient>
<linearGradient id="paint99_linear_4188_12917" x1="41.6173" y1="35.7606" x2="34.7238" y2="30.5147" gradientUnits="userSpaceOnUse">
<stop stop-color="#FFDECF"/>
<stop offset="1" stop-color="#FAA68E"/>
</linearGradient>
<linearGradient id="paint100_linear_4188_12917" x1="39.9476" y1="34.7581" x2="48.5157" y2="38.4473" gradientUnits="userSpaceOnUse">
<stop stop-color="#FFDECF" stop-opacity="0"/>
<stop offset="1" stop-color="white"/>
</linearGradient>
<linearGradient id="paint101_linear_4188_12917" x1="38.696" y1="35.1113" x2="42.328" y2="36.7412" gradientUnits="userSpaceOnUse">
<stop stop-color="#FFDECF" stop-opacity="0"/>
<stop offset="1" stop-color="white"/>
</linearGradient>
<linearGradient id="paint102_linear_4188_12917" x1="33.8986" y1="41.5371" x2="37.3067" y2="45.0927" gradientUnits="userSpaceOnUse">
<stop stop-color="#E4F2FF"/>
<stop offset="1" stop-color="#B2CBFF"/>
</linearGradient>
<linearGradient id="paint103_linear_4188_12917" x1="35.0354" y1="44.5345" x2="37.921" y2="49.3636" gradientUnits="userSpaceOnUse">
<stop stop-color="#8A7889"/>
<stop offset="1" stop-color="#6E566E"/>
</linearGradient>
<linearGradient id="paint104_linear_4188_12917" x1="35.8919" y1="45.7882" x2="31.0839" y2="38.4115" gradientUnits="userSpaceOnUse">
<stop stop-color="#BDC2D1" stop-opacity="0"/>
<stop offset="0.3183" stop-color="#C1C6D4" stop-opacity="0.318"/>
<stop offset="0.6082" stop-color="#CCD0DD" stop-opacity="0.608"/>
<stop offset="0.8861" stop-color="#DEE2EC" stop-opacity="0.886"/>
<stop offset="1" stop-color="#E8ECF4"/>
</linearGradient>
<linearGradient id="paint105_linear_4188_12917" x1="6.24585" y1="31.3323" x2="4.60475" y2="30.7583" gradientUnits="userSpaceOnUse">
<stop stop-color="#FFDECF"/>
<stop offset="1" stop-color="#FAA68E"/>
</linearGradient>
<linearGradient id="paint106_linear_4188_12917" x1="5.90208" y1="29.8686" x2="4.05695" y2="29.9312" gradientUnits="userSpaceOnUse">
<stop stop-color="#FFDECF"/>
<stop offset="1" stop-color="#FAA68E"/>
</linearGradient>
<linearGradient id="paint107_linear_4188_12917" x1="5.44933" y1="28.598" x2="3.16308" y2="29.1962" gradientUnits="userSpaceOnUse">
<stop stop-color="#FFDECF"/>
<stop offset="1" stop-color="#FAA68E"/>
</linearGradient>
<linearGradient id="paint108_linear_4188_12917" x1="5.53074" y1="35.7682" x2="12.4243" y2="30.5223" gradientUnits="userSpaceOnUse">
<stop stop-color="#FFDECF"/>
<stop offset="1" stop-color="#FAA68E"/>
</linearGradient>
<linearGradient id="paint109_linear_4188_12917" x1="7.19993" y1="34.7657" x2="-1.36823" y2="38.4549" gradientUnits="userSpaceOnUse">
<stop stop-color="#FFDECF" stop-opacity="0"/>
<stop offset="1" stop-color="white"/>
</linearGradient>
<linearGradient id="paint110_linear_4188_12917" x1="8.45693" y1="35.1113" x2="4.82477" y2="36.7411" gradientUnits="userSpaceOnUse">
<stop stop-color="#FFDECF" stop-opacity="0"/>
<stop offset="1" stop-color="white"/>
</linearGradient>
<linearGradient id="paint111_linear_4188_12917" x1="10.802" y1="41.5371" x2="14.2101" y2="45.0927" gradientUnits="userSpaceOnUse">
<stop stop-color="#E4F2FF"/>
<stop offset="1" stop-color="#B2CBFF"/>
</linearGradient>
<linearGradient id="paint112_linear_4188_12917" x1="11.9387" y1="44.5345" x2="14.8243" y2="49.3636" gradientUnits="userSpaceOnUse">
<stop stop-color="#8A7889"/>
<stop offset="1" stop-color="#6E566E"/>
</linearGradient>
<linearGradient id="paint113_linear_4188_12917" x1="12.7952" y1="45.7882" x2="7.98722" y2="38.4115" gradientUnits="userSpaceOnUse">
<stop stop-color="#BDC2D1" stop-opacity="0"/>
<stop offset="0.3183" stop-color="#C1C6D4" stop-opacity="0.318"/>
<stop offset="0.6082" stop-color="#CCD0DD" stop-opacity="0.608"/>
<stop offset="0.8861" stop-color="#DEE2EC" stop-opacity="0.886"/>
<stop offset="1" stop-color="#E8ECF4"/>
</linearGradient>
<linearGradient id="paint114_linear_4188_12917" x1="8.28512" y1="11.3587" x2="11.9192" y2="16.2244" gradientUnits="userSpaceOnUse">
<stop stop-color="#FFD945"/>
<stop offset="0.3043" stop-color="#FFCD3E"/>
<stop offset="0.8558" stop-color="#FFAD2B"/>
<stop offset="1" stop-color="#FFA325"/>
</linearGradient>
<linearGradient id="paint115_linear_4188_12917" x1="40.2525" y1="8.98076" x2="43.8866" y2="13.8465" gradientUnits="userSpaceOnUse">
<stop stop-color="#FFD945"/>
<stop offset="0.3043" stop-color="#FFCD3E"/>
<stop offset="0.8558" stop-color="#FFAD2B"/>
<stop offset="1" stop-color="#FFA325"/>
</linearGradient>
<linearGradient id="paint116_linear_4188_12917" x1="3.97651" y1="6.31025" x2="6.54635" y2="9.75104" gradientUnits="userSpaceOnUse">
<stop stop-color="#FFD945"/>
<stop offset="0.3043" stop-color="#FFCD3E"/>
<stop offset="0.8558" stop-color="#FFAD2B"/>
<stop offset="1" stop-color="#FFA325"/>
</linearGradient>
<linearGradient id="paint117_linear_4188_12917" x1="12.6277" y1="2.29961" x2="15.1976" y2="5.7405" gradientUnits="userSpaceOnUse">
<stop stop-color="#FFD945"/>
<stop offset="0.3043" stop-color="#FFCD3E"/>
<stop offset="0.8558" stop-color="#FFAD2B"/>
<stop offset="1" stop-color="#FFA325"/>
</linearGradient>
<linearGradient id="paint118_linear_4188_12917" x1="33.437" y1="3.86678" x2="36.0069" y2="7.30767" gradientUnits="userSpaceOnUse">
<stop stop-color="#FFD945"/>
<stop offset="0.3043" stop-color="#FFCD3E"/>
<stop offset="0.8558" stop-color="#FFAD2B"/>
<stop offset="1" stop-color="#FFA325"/>
</linearGradient>
<clipPath id="clip0_4188_12917">
<rect width="47.1484" height="47.1484" fill="white"/>
</clipPath>
</defs>
</svg>
