<svg width="48" height="48" viewBox="0 0 48 48" fill="none" xmlns="http://www.w3.org/2000/svg">
<g clip-path="url(#clip0_4203_12951)">
<path d="M19.0004 28.291L9.61033 33.3504C9.21041 33.5659 8.71146 33.4164 8.49597 33.0164L0.524377 18.2216C0.308881 17.8217 0.458369 17.3227 0.858391 17.1072L10.2484 12.0478C10.6483 11.8323 11.1473 11.9818 11.3628 12.3819L19.3343 27.1767C19.5498 27.5766 19.4003 28.0755 19.0004 28.291Z" fill="url(#paint0_linear_4203_12951)"/>
<path d="M10.2353 12.0543L10.0322 12.1637L17.8813 26.7314C18.1004 27.138 17.9484 27.6452 17.5418 27.8643L8.37891 32.8013L8.48827 33.0043C8.70737 33.4109 9.21454 33.563 9.62122 33.3439L18.9871 28.2975C19.3937 28.0784 19.5458 27.5713 19.3267 27.1646L11.3681 12.3939C11.1491 11.9872 10.6418 11.8352 10.2353 12.0543Z" fill="url(#paint1_linear_4203_12951)"/>
<path d="M18.2448 27.8593L9.66663 32.4812C9.41878 32.6147 9.10973 32.522 8.97614 32.2743L1.40873 18.2293C1.27523 17.9816 1.36787 17.6724 1.61563 17.5388L10.1938 12.9169C10.4415 12.7834 10.7507 12.876 10.8843 13.1238L18.4518 27.1688C18.5853 27.4166 18.4925 27.7258 18.2448 27.8593Z" fill="url(#paint2_linear_4203_12951)"/>
<path d="M2.49524 17.0652L10.5462 32.0073L9.66688 32.4811C9.41884 32.6148 9.1097 32.5221 8.9762 32.2744L1.4087 18.2295C1.2752 17.9819 1.36793 17.6727 1.61597 17.539L2.49524 17.0652Z" fill="url(#paint3_linear_4203_12951)"/>
<path d="M5.20934 15.6021L13.2603 30.5442L11.9025 31.2757L3.85156 16.3337L5.20934 15.6021Z" fill="url(#paint4_linear_4203_12951)"/>
<path d="M7.95544 14.1224L16.0063 29.0646L14.6486 29.7961L6.59766 14.8541L7.95544 14.1224Z" fill="url(#paint5_linear_4203_12951)"/>
<path d="M10.8824 13.1238L18.4498 27.1687C18.5833 27.4163 18.4905 27.7255 18.2425 27.8592L17.3632 28.3329L9.3125 13.3909L10.1918 12.9171C10.4398 12.7835 10.749 12.8761 10.8824 13.1238Z" fill="url(#paint6_linear_4203_12951)"/>
<path d="M17.9095 26.1646L18.4505 27.1688C18.584 27.4164 18.4913 27.7256 18.2432 27.8593L9.66528 32.4811C9.41724 32.6148 9.10809 32.5221 8.9746 32.2744L8.43359 31.2702L17.9095 26.1646Z" fill="url(#paint7_linear_4203_12951)"/>
<path d="M16.2962 23.17L17.1028 24.6671L7.62701 29.7728L6.82031 28.2757L16.2962 23.17Z" fill="url(#paint8_linear_4203_12951)"/>
<path d="M14.6829 20.1755L15.4895 21.6725L6.01373 26.7783L5.20703 25.2812L14.6829 20.1755Z" fill="url(#paint9_linear_4203_12951)"/>
<path d="M13.05 17.1469L13.8567 18.644L4.38083 23.7496L3.57422 22.2525L13.05 17.1469Z" fill="url(#paint10_linear_4203_12951)"/>
<path d="M11.4387 14.1523L12.2454 15.6494L2.7695 20.755L1.96289 19.2579L11.4387 14.1523Z" fill="url(#paint11_linear_4203_12951)"/>
<path d="M21.5081 27.6891L11.3946 31.078C10.9638 31.2223 10.4975 30.9902 10.3532 30.5594L5.01354 14.6245C4.86923 14.1937 5.10137 13.7275 5.53217 13.5832L15.6458 10.1942C16.0766 10.0499 16.5428 10.2821 16.6871 10.7129L22.0268 26.6477C22.1711 27.0784 21.9389 27.5447 21.5081 27.6891Z" fill="url(#paint12_linear_4203_12951)"/>
<path d="M15.6345 10.1985L15.4158 10.2718L20.6735 25.962C20.8202 26.3999 20.5842 26.8739 20.1462 27.0207L10.2773 30.3276L10.3507 30.5464C10.4975 30.9843 10.9714 31.2204 11.4094 31.0736L21.497 27.6933C21.9349 27.5466 22.171 27.0725 22.0242 26.6346L16.6932 10.7257C16.5464 10.2878 16.0724 10.0517 15.6345 10.1985Z" fill="url(#paint13_linear_4203_12951)"/>
<path d="M20.8374 27.135L11.5982 30.231C11.3313 30.3204 11.0424 30.1766 10.9531 29.9097L5.88395 14.7824C5.79456 14.5155 5.9384 14.2266 6.2053 14.1372L15.4444 11.0412C15.7113 10.9518 16.0002 11.0957 16.0896 11.3626L21.1586 26.4898C21.2481 26.7566 21.1043 27.0455 20.8374 27.135Z" fill="url(#paint14_linear_4203_12951)"/>
<path d="M7.15261 13.82L12.5455 29.9135L11.5984 30.2309C11.3313 30.3203 11.0424 30.1765 10.953 29.9097L5.88395 14.7825C5.79455 14.5157 5.9384 14.2268 6.20558 14.1374L7.15261 13.82Z" fill="url(#paint15_linear_4203_12951)"/>
<path d="M10.0757 12.84L15.4685 28.9335L14.0061 29.4234L8.61328 13.33L10.0757 12.84Z" fill="url(#paint16_linear_4203_12951)"/>
<path d="M13.0327 11.8488L18.4255 27.9423L16.9631 28.4323L11.5703 12.3388L13.0327 11.8488Z" fill="url(#paint17_linear_4203_12951)"/>
<path d="M16.0885 11.3626L21.1575 26.4898C21.2469 26.7566 21.1031 27.0455 20.8359 27.135L19.8889 27.4523L14.4961 11.3587L15.4431 11.0414C15.7102 10.9519 15.9991 11.0958 16.0885 11.3626Z" fill="url(#paint18_linear_4203_12951)"/>
<path d="M20.7959 25.4082L21.1583 26.4897C21.2477 26.7566 21.1038 27.0455 20.8367 27.1349L11.5977 30.2308C11.3305 30.3203 11.0416 30.1765 10.9522 29.9097L10.5898 28.8281L20.7959 25.4082Z" fill="url(#paint19_linear_4203_12951)"/>
<path d="M19.7138 22.1829L20.2541 23.7953L10.0481 27.2153L9.50781 25.6028L19.7138 22.1829Z" fill="url(#paint20_linear_4203_12951)"/>
<path d="M18.6338 18.9576L19.1741 20.5701L8.96809 23.9901L8.42773 22.3776L18.6338 18.9576Z" fill="url(#paint21_linear_4203_12951)"/>
<path d="M17.54 15.6956L18.0804 17.308L7.87434 20.728L7.33398 19.1155L17.54 15.6956Z" fill="url(#paint22_linear_4203_12951)"/>
<path d="M16.4599 12.4702L17.0002 14.0827L6.79417 17.5026L6.25391 15.8902L16.4599 12.4702Z" fill="url(#paint23_linear_4203_12951)"/>
<path d="M24.0816 27.5223L13.539 29.1422C13.09 29.2111 12.67 28.9031 12.601 28.454L10.0487 11.8433C9.97975 11.3942 10.2878 10.9742 10.7368 10.9053L21.2794 9.28541C21.7284 9.21644 22.1484 9.52448 22.2173 9.97359L24.7696 26.5843C24.8387 27.0334 24.5306 27.4533 24.0816 27.5223Z" fill="url(#paint24_linear_4203_12951)"/>
<path d="M21.2665 9.28745L21.0385 9.32249L23.5516 25.6782C23.6218 26.1347 23.3086 26.5616 22.852 26.6318L12.5645 28.2124L12.5995 28.4404C12.6697 28.8969 13.0966 29.2101 13.5531 29.1401L24.0686 27.5244C24.5251 27.4542 24.8383 27.0273 24.7682 26.5708L22.2201 9.98709C22.15 9.53059 21.723 9.21737 21.2665 9.28745Z" fill="url(#paint25_linear_4203_12951)"/>
<path d="M23.5141 26.862L13.883 28.3419C13.6048 28.3846 13.3446 28.1938 13.3019 27.9155L10.879 12.1467C10.8363 11.8685 11.0271 11.6082 11.3054 11.5655L20.9364 10.0857C21.2146 10.043 21.4748 10.2338 21.5175 10.5121L23.9404 26.2809C23.9832 26.5591 23.7923 26.8193 23.5141 26.862Z" fill="url(#paint26_linear_4203_12951)"/>
<path d="M12.2928 11.4139L14.8705 28.19L13.8833 28.3418C13.6048 28.3846 13.3446 28.1937 13.3019 27.9156L10.879 12.1467C10.8363 11.8687 11.0272 11.6084 11.3057 11.5656L12.2928 11.4139Z" fill="url(#paint27_linear_4203_12951)"/>
<path d="M15.3409 10.9454L17.9185 27.7216L16.3941 27.9557L13.8164 11.1796L15.3409 10.9454Z" fill="url(#paint28_linear_4203_12951)"/>
<path d="M18.4249 10.4717L21.0025 27.2478L19.4781 27.4821L16.9004 10.7059L18.4249 10.4717Z" fill="url(#paint29_linear_4203_12951)"/>
<path d="M21.5178 10.512L23.9407 26.2808C23.9834 26.5589 23.7925 26.8192 23.514 26.862L22.5268 27.0137L19.9492 10.2375L20.9364 10.0858C21.2148 10.043 21.4751 10.2339 21.5178 10.512Z" fill="url(#paint30_linear_4203_12951)"/>
<path d="M23.7678 25.1534L23.941 26.2808C23.9838 26.5589 23.7929 26.8192 23.5144 26.862L13.8836 28.3418C13.6051 28.3846 13.3449 28.1937 13.3022 27.9156L13.1289 26.7882L23.7678 25.1534Z" fill="url(#paint31_linear_4203_12951)"/>
<path d="M23.2502 21.7913L23.5085 23.4722L12.8696 25.1068L12.6113 23.426L23.2502 21.7913Z" fill="url(#paint32_linear_4203_12951)"/>
<path d="M22.7347 18.4292L22.9929 20.1101L12.354 21.7448L12.0957 20.0639L22.7347 18.4292Z" fill="url(#paint33_linear_4203_12951)"/>
<path d="M22.2112 15.0288L22.4695 16.7097L11.8305 18.3444L11.5723 16.6635L22.2112 15.0288Z" fill="url(#paint34_linear_4203_12951)"/>
<path d="M21.6955 11.6666L21.9538 13.3475L11.3148 14.9822L11.0566 13.3014L21.6955 11.6666Z" fill="url(#paint35_linear_4203_12951)"/>
<path d="M26.6478 27.7956L15.9833 27.5992C15.5291 27.5908 15.1676 27.2158 15.1759 26.7616L15.4853 9.95873C15.4937 9.50454 15.8687 9.14307 16.3229 9.15139L26.9874 9.34784C27.4417 9.35616 27.8031 9.73122 27.7948 10.1854L27.4854 26.9884C27.477 27.4426 27.102 27.804 26.6478 27.7956Z" fill="url(#paint36_linear_4203_12951)"/>
<path d="M26.9736 9.34751L26.7429 9.34326L26.4382 25.8881C26.4297 26.3499 26.0484 26.7174 25.5867 26.7088L15.1802 26.5172L15.1759 26.7478C15.1674 27.2095 15.5349 27.5908 15.9967 27.5993L26.6337 27.7952C27.0955 27.8037 27.4768 27.4362 27.4853 26.9744L27.7942 10.199C27.8028 9.73727 27.4353 9.35602 26.9736 9.34751Z" fill="url(#paint37_linear_4203_12951)"/>
<path d="M26.1998 27.0485L16.4574 26.869C16.1759 26.8638 15.9519 26.6315 15.9571 26.35L16.2509 10.3989C16.2561 10.1175 16.4884 9.89347 16.7699 9.89865L26.5123 10.0781C26.7938 10.0833 27.0178 10.3156 27.0126 10.5971L26.7188 26.5483C26.7136 26.8297 26.4812 27.0536 26.1998 27.0485Z" fill="url(#paint38_linear_4203_12951)"/>
<path d="M17.7688 9.91714L17.4563 26.8872L16.4576 26.8688C16.1759 26.8637 15.9519 26.6312 15.9571 26.3499L16.2509 10.3988C16.2561 10.1175 16.4885 9.89347 16.7702 9.89865L17.7688 9.91714Z" fill="url(#paint39_linear_4203_12951)"/>
<path d="M20.8526 9.97397L20.5402 26.9441L18.998 26.9157L19.3106 9.94559L20.8526 9.97397Z" fill="url(#paint40_linear_4203_12951)"/>
<path d="M23.9718 10.0313L23.6592 27.0014L22.1172 26.973L22.4298 10.0029L23.9718 10.0313Z" fill="url(#paint41_linear_4203_12951)"/>
<path d="M27.0129 10.597L26.7191 26.5482C26.7139 26.8295 26.4815 27.0535 26.1998 27.0483L25.2012 27.0299L25.5137 10.0598L26.5124 10.0782C26.794 10.0833 27.0181 10.3157 27.0129 10.597Z" fill="url(#paint42_linear_4203_12951)"/>
<path d="M26.74 25.4077L26.7191 26.5482C26.7139 26.8295 26.4815 27.0535 26.1998 27.0483L16.4576 26.8689C16.1759 26.8637 15.9519 26.6313 15.9571 26.35L15.9781 25.2095L26.74 25.4077Z" fill="url(#paint43_linear_4203_12951)"/>
<path d="M26.8011 22.0068L26.7698 23.7071L16.0078 23.5089L16.0391 21.8086L26.8011 22.0068Z" fill="url(#paint44_linear_4203_12951)"/>
<path d="M26.8655 18.6058L26.8342 20.3061L16.0723 20.1079L16.1036 18.4076L26.8655 18.6058Z" fill="url(#paint45_linear_4203_12951)"/>
<path d="M26.928 15.166L26.8967 16.8663L16.1348 16.6681L16.166 14.9678L26.928 15.166Z" fill="url(#paint46_linear_4203_12951)"/>
<path d="M26.9906 11.765L26.9592 13.4653L16.1973 13.2671L16.2286 11.5668L26.9906 11.765Z" fill="url(#paint47_linear_4203_12951)"/>
<path d="M29.1281 28.501L18.6524 26.4941C18.2061 26.4086 17.9137 25.9776 17.9992 25.5314L21.1614 9.02587C21.2469 8.57972 21.6779 8.28722 22.1241 8.37273L32.5999 10.3797C33.0461 10.4652 33.3385 10.8962 33.253 11.3423L30.0908 27.8479C30.0053 28.2941 29.5743 28.5865 29.1281 28.501Z" fill="url(#paint48_linear_4203_12951)"/>
<path d="M32.586 10.3771L32.3595 10.3337L29.2458 26.5858C29.1589 27.0394 28.7207 27.3367 28.2671 27.2498L18.0448 25.2914L18.0014 25.5179C17.9145 25.9716 18.2118 26.4098 18.6655 26.4967L29.1143 28.4985C29.5679 28.5854 30.0061 28.2881 30.093 27.8346L33.25 11.3559C33.3369 10.9022 33.0396 10.464 32.586 10.3771Z" fill="url(#paint49_linear_4203_12951)"/>
<path d="M28.8139 27.6887L19.2439 25.8552C18.9675 25.8023 18.7863 25.5352 18.8393 25.2588L21.8412 9.58987C21.8941 9.31345 22.1612 9.13225 22.4376 9.18522L32.0076 11.0187C32.2841 11.0716 32.4653 11.3387 32.4123 11.6151L29.4104 27.284C29.3574 27.5604 29.0904 27.7415 28.8139 27.6887Z" fill="url(#paint50_linear_4203_12951)"/>
<path d="M23.4189 9.37314L20.2252 26.043L19.2443 25.855C18.9676 25.802 18.7864 25.535 18.8392 25.2585L21.8411 9.58965C21.8941 9.31333 22.1612 9.13213 22.4379 9.1851L23.4189 9.37314Z" fill="url(#paint51_linear_4203_12951)"/>
<path d="M26.4487 9.95352L23.255 26.6233L21.7402 26.3332L24.9339 9.66333L26.4487 9.95352Z" fill="url(#paint52_linear_4203_12951)"/>
<path d="M29.5131 10.5406L26.3194 27.2104L24.8047 26.9202L27.9983 10.2504L29.5131 10.5406Z" fill="url(#paint53_linear_4203_12951)"/>
<path d="M32.4116 11.615L29.4097 27.2839C29.3568 27.5603 29.0897 27.7415 28.813 27.6885L27.832 27.5005L31.0256 10.8307L32.0066 11.0187C32.2833 11.0716 32.4645 11.3387 32.4116 11.615Z" fill="url(#paint54_linear_4203_12951)"/>
<path d="M29.6255 26.1638L29.4108 27.2841C29.3579 27.5604 29.0908 27.7416 28.8141 27.6886L19.2443 25.8552C18.9676 25.8021 18.7864 25.5351 18.8392 25.2587L19.0539 24.1384L29.6255 26.1638Z" fill="url(#paint55_linear_4203_12951)"/>
<path d="M30.2645 22.8229L29.9445 24.4931L19.373 22.4678L19.693 20.7976L30.2645 22.8229Z" fill="url(#paint56_linear_4203_12951)"/>
<path d="M30.9051 19.482L30.5852 21.1523L20.0137 19.127L20.3336 17.4568L30.9051 19.482Z" fill="url(#paint57_linear_4203_12951)"/>
<path d="M31.5517 16.1032L31.2317 17.7735L20.6602 15.7481L20.9801 14.078L31.5517 16.1032Z" fill="url(#paint58_linear_4203_12951)"/>
<path d="M32.1923 12.7624L31.8724 14.4327L21.3008 12.4073L21.6208 10.7372L32.1923 12.7624Z" fill="url(#paint59_linear_4203_12951)"/>
<path d="M31.4524 29.618L21.4704 25.8589C21.0452 25.6988 20.8304 25.2244 20.9905 24.7992L26.9133 9.07178C27.0734 8.64662 27.5478 8.43177 27.973 8.59189L37.955 12.351C38.3801 12.5111 38.595 12.9856 38.4349 13.4107L32.5121 29.1381C32.352 29.5633 31.8775 29.7782 31.4524 29.618Z" fill="url(#paint60_linear_4203_12951)"/>
<path d="M37.942 12.3462L37.7261 12.2649L31.8943 27.7509C31.7315 28.1831 31.2492 28.4016 30.817 28.2388L21.0766 24.5707L20.9953 24.7865C20.8325 25.2188 21.051 25.7011 21.4832 25.8639L31.4395 29.6133C31.8718 29.7761 32.3541 29.5577 32.5169 29.1254L38.43 13.4236C38.5927 12.9914 38.3743 12.509 37.942 12.3462Z" fill="url(#paint61_linear_4203_12951)"/>
<path d="M31.2811 28.7641L22.1622 25.3301C21.8988 25.2309 21.7656 24.9369 21.8649 24.6735L27.4875 9.74317C27.5867 9.47979 27.8807 9.34666 28.1441 9.44586L37.2629 12.8799C37.5264 12.9791 37.6595 13.2731 37.5603 13.5365L31.9377 28.4668C31.8385 28.7302 31.5445 28.8633 31.2811 28.7641Z" fill="url(#paint62_linear_4203_12951)"/>
<path d="M29.0789 9.79804L23.0971 25.6821L22.1625 25.3301C21.8988 25.2308 21.7657 24.9368 21.8648 24.6735L27.4874 9.74331C27.5866 9.48002 27.8806 9.3469 28.1442 9.44619L29.0789 9.79804Z" fill="url(#paint63_linear_4203_12951)"/>
<path d="M31.9661 10.8851L25.9844 26.7692L24.541 26.2256L30.5228 10.3416L31.9661 10.8851Z" fill="url(#paint64_linear_4203_12951)"/>
<path d="M34.8861 11.9845L28.9043 27.8684L27.4609 27.3249L33.4428 11.4409L34.8861 11.9845Z" fill="url(#paint65_linear_4203_12951)"/>
<path d="M37.5617 13.5366L31.9391 28.4668C31.8399 28.7301 31.546 28.8632 31.2823 28.7639L30.3477 28.412L36.3294 12.528L37.264 12.8799C37.5277 12.9793 37.6609 13.2733 37.5617 13.5366Z" fill="url(#paint66_linear_4203_12951)"/>
<path d="M32.34 27.3994L31.938 28.4669C31.8388 28.7302 31.5448 28.8633 31.2812 28.7641L22.1625 25.3301C21.8988 25.2308 21.7657 24.9368 21.8648 24.6735L22.2668 23.606L32.34 27.3994Z" fill="url(#paint67_linear_4203_12951)"/>
<path d="M33.5397 24.2161L32.9404 25.8076L22.8672 22.0141L23.4665 20.4227L33.5397 24.2161Z" fill="url(#paint68_linear_4203_12951)"/>
<path d="M34.7389 21.0328L34.1395 22.6242L24.0664 18.8307L24.6657 17.2393L34.7389 21.0328Z" fill="url(#paint69_linear_4203_12951)"/>
<path d="M35.9498 17.8132L35.3505 19.4046L25.2773 15.6112L25.8767 14.0197L35.9498 17.8132Z" fill="url(#paint70_linear_4203_12951)"/>
<path d="M37.149 14.6298L36.5498 16.2213L26.4766 12.4278L27.0759 10.8364L37.149 14.6298Z" fill="url(#paint71_linear_4203_12951)"/>
<path d="M33.5527 31.1142L24.3553 25.7124C23.9636 25.4823 23.8325 24.9783 24.0626 24.5865L32.5735 10.0953C32.8036 9.70353 33.3076 9.57253 33.6994 9.80263L42.8968 15.2044C43.2885 15.4345 43.4196 15.9385 43.1895 16.3303L34.6786 30.8216C34.4485 31.2132 33.9445 31.3443 33.5527 31.1142Z" fill="url(#paint72_linear_4203_12951)"/>
<path d="M42.8858 15.1974L42.687 15.0806L34.3068 29.3493C34.0729 29.7476 33.5603 29.8808 33.1621 29.6469L24.1872 24.3759L24.0704 24.5748C23.8365 24.973 23.9697 25.4856 24.368 25.7195L33.5417 31.1073C33.9399 31.3412 34.4525 31.208 34.6864 30.8097L43.1833 16.3421C43.4174 15.9438 43.2841 15.4313 42.8858 15.1974Z" fill="url(#paint73_linear_4203_12951)"/>
<path d="M33.5307 30.2436L25.1286 25.3089C24.8858 25.1664 24.8047 24.8541 24.9472 24.6113L33.0267 10.8545C33.1693 10.6119 33.4816 10.5306 33.7243 10.6732L42.1264 15.6078C42.3691 15.7504 42.4504 16.0627 42.3078 16.3055L34.2283 30.0622C34.0857 30.305 33.7734 30.3862 33.5307 30.2436Z" fill="url(#paint74_linear_4203_12951)"/>
<path d="M34.5857 11.1792L25.9901 25.8147L25.1289 25.3089C24.8859 25.1663 24.8046 24.8539 24.9472 24.6112L33.0267 10.8545C33.1691 10.6119 33.4815 10.5307 33.7245 10.6734L34.5857 11.1792Z" fill="url(#paint75_linear_4203_12951)"/>
<path d="M37.2439 12.7413L28.6483 27.3768L27.3184 26.5957L35.914 11.9602L37.2439 12.7413Z" fill="url(#paint76_linear_4203_12951)"/>
<path d="M39.9334 14.321L31.3378 28.9565L30.0078 28.1755L38.6034 13.5399L39.9334 14.321Z" fill="url(#paint77_linear_4203_12951)"/>
<path d="M42.3065 16.3056L34.227 30.0623C34.0845 30.3049 33.7722 30.3862 33.5292 30.2434L32.668 29.7376L41.2636 15.1021L42.1248 15.6079C42.3678 15.7507 42.449 16.063 42.3065 16.3056Z" fill="url(#paint78_linear_4203_12951)"/>
<path d="M34.8062 29.0787L34.2286 30.0623C34.0861 30.3049 33.7738 30.3861 33.5308 30.2434L25.1289 25.3088C24.8859 25.1662 24.8046 24.8538 24.9472 24.6111L25.5248 23.6276L34.8062 29.0787Z" fill="url(#paint79_linear_4203_12951)"/>
<path d="M36.5274 26.1457L35.6663 27.612L26.3848 22.161L27.246 20.6946L36.5274 26.1457Z" fill="url(#paint80_linear_4203_12951)"/>
<path d="M38.2501 23.2125L37.3888 24.6789L28.1074 19.2278L28.9687 17.7614L38.2501 23.2125Z" fill="url(#paint81_linear_4203_12951)"/>
<path d="M39.9942 20.246L39.133 21.7124L29.8516 16.2613L30.7128 14.7949L39.9942 20.246Z" fill="url(#paint82_linear_4203_12951)"/>
<path d="M41.7169 17.3129L40.8556 18.7793L31.5742 13.3283L32.4354 11.8618L41.7169 17.3129Z" fill="url(#paint83_linear_4203_12951)"/>
<path d="M35.3681 32.9457L27.2232 26.0588C26.8762 25.7654 26.8327 25.2464 27.1262 24.8995L37.9772 12.0665C38.2706 11.7195 38.7896 11.6762 39.1365 11.9695L47.2815 18.8565C47.6284 19.1499 47.6718 19.6689 47.3784 20.0158L36.5274 32.8488C36.234 33.1956 35.715 33.2391 35.3681 32.9457Z" fill="url(#paint84_linear_4203_12951)"/>
<path d="M47.2712 18.8477L47.0951 18.6987L36.4106 31.3347C36.1124 31.6874 35.5847 31.7316 35.232 31.4333L27.2841 24.7129L27.1352 24.889C26.837 25.2417 26.8812 25.7694 27.2339 26.0677L35.3578 32.937C35.7105 33.2352 36.2382 33.191 36.5364 32.8384L47.3698 20.0263C47.6681 19.6735 47.6239 19.1458 47.2712 18.8477Z" fill="url(#paint85_linear_4203_12951)"/>
<path d="M35.4943 32.0838L28.0536 25.7923C27.8387 25.6105 27.8118 25.289 27.9935 25.074L38.2946 12.8915C38.4764 12.6765 38.798 12.6496 39.013 12.8314L46.4536 19.1229C46.6686 19.3047 46.6955 19.6263 46.5137 19.8412L36.2125 32.0237C36.0308 32.2387 35.7092 32.2656 35.4943 32.0838Z" fill="url(#paint86_linear_4203_12951)"/>
<path d="M39.7757 13.4765L28.8165 26.4372L28.0538 25.7923C27.8387 25.6103 27.8118 25.2887 27.9935 25.0738L38.2945 12.8914C38.4762 12.6765 38.7978 12.6496 39.013 12.8315L39.7757 13.4765Z" fill="url(#paint87_linear_4203_12951)"/>
<path d="M42.1309 15.468L31.1718 28.4287L29.9941 27.4329L40.9532 14.4722L42.1309 15.468Z" fill="url(#paint88_linear_4203_12951)"/>
<path d="M44.5138 17.4822L33.5547 30.4429L32.377 29.4471L43.3361 16.4863L44.5138 17.4822Z" fill="url(#paint89_linear_4203_12951)"/>
<path d="M46.5127 19.8414L36.2116 32.0239C36.0299 32.2387 35.7083 32.2656 35.4932 32.0837L34.7305 31.4388L45.6896 18.478L46.4523 19.1229C46.6674 19.3049 46.6943 19.6264 46.5127 19.8414Z" fill="url(#paint90_linear_4203_12951)"/>
<path d="M36.9492 31.1528L36.2127 32.0238C36.0311 32.2387 35.7094 32.2656 35.4943 32.0837L28.0538 25.7922C27.8387 25.6103 27.8118 25.2887 27.9935 25.0738L28.7299 24.2028L36.9492 31.1528Z" fill="url(#paint91_linear_4203_12951)"/>
<path d="M39.1455 28.5554L38.0475 29.8539L29.8281 22.904L30.9261 21.6055L39.1455 28.5554Z" fill="url(#paint92_linear_4203_12951)"/>
<path d="M41.3408 25.9579L40.2428 27.2565L32.0234 20.3066L33.1214 19.0079L41.3408 25.9579Z" fill="url(#paint93_linear_4203_12951)"/>
<path d="M43.5634 23.3308L42.4654 24.6294L34.2461 17.6795L35.3441 16.3809L43.5634 23.3308Z" fill="url(#paint94_linear_4203_12951)"/>
<path d="M45.7588 20.7334L44.6608 22.0319L36.4414 15.0821L37.5395 13.7834L45.7588 20.7334Z" fill="url(#paint95_linear_4203_12951)"/>
<path d="M41.3442 29.3851C41.2608 29.5841 41.257 29.7999 41.3522 29.9841L42.1249 31.4805C42.4088 32.0306 42.5172 32.6579 42.4495 33.2999C43.3441 32.8231 43.808 31.8568 43.5171 31.0659C43.4432 30.8648 43.3576 30.6678 43.2604 30.4757L42.6073 29.1854C42.489 28.9516 42.2411 28.8239 41.9642 28.8213C41.911 28.8396 41.8588 28.8622 41.8075 28.8898C41.588 29.007 41.427 29.188 41.3442 29.3851Z" fill="url(#paint96_linear_4203_12951)"/>
<path d="M43.5069 27.2312L44.0344 29.4155C44.1128 29.7406 44.1752 30.0677 44.2216 30.3961C44.4041 31.6869 43.573 32.9045 42.3065 33.2135C42.5492 32.2989 42.5618 31.3288 42.3299 30.3953L41.6986 27.8558C41.6209 27.5433 41.678 27.2274 41.8336 26.9715C41.9877 26.7179 42.2388 26.5223 42.5497 26.446C42.6224 26.4277 42.6952 26.4175 42.7679 26.4139C43.1235 26.539 43.4114 26.8357 43.5069 27.2312Z" fill="url(#paint97_linear_4203_12951)"/>
<path d="M45.3001 25.9982L45.343 28.8758C45.3493 29.304 45.3349 29.7303 45.3003 30.1536C45.1642 31.8175 43.7825 33.1043 42.1133 33.1333C42.6743 32.059 42.9637 30.8507 42.9374 29.6189L42.865 26.2684C42.8559 25.856 43.0165 25.4776 43.283 25.2016C43.5471 24.9282 43.9159 24.7548 44.3258 24.747C44.4219 24.7447 44.5156 24.7526 44.6076 24.7686C45.0163 25.0253 45.2924 25.4771 45.3001 25.9982Z" fill="url(#paint98_linear_4203_12951)"/>
<path d="M46.1034 23.2074C45.323 23.2227 44.7015 23.8703 44.7183 24.6505L44.7866 27.8269C44.8131 29.063 44.5045 30.2725 43.9108 31.3354C43.3904 30.8508 42.5744 30.8716 42.0761 31.3874L41.4733 32.0113C40.279 33.2477 38.7442 34.1007 37.0657 34.461C35.1364 34.8751 33.5496 36.2485 32.8621 38.0995L31.1562 42.6916L32.2459 43.7442L34.3125 45.7406C34.892 46.3003 35.839 46.1875 36.2718 45.508C36.2731 45.5058 36.2744 45.5039 36.2757 45.502C37.8093 43.1023 39.5791 40.8608 41.5589 38.8113L44.0365 36.2465C46.3505 33.8509 47.6224 30.6382 47.5722 27.3152L47.531 24.5865C47.5194 23.8098 46.8802 23.1923 46.1034 23.2074Z" fill="url(#paint99_linear_4203_12951)"/>
<path d="M34.3797 45.8057L31.1562 42.6919L32.8618 38.0997C33.1442 37.3405 33.5771 36.6616 34.1231 36.0962C34.9084 35.2832 35.9273 34.7053 37.0653 34.461C38.7437 34.1007 40.279 33.2478 41.4733 32.0114L42.0758 31.3877C42.2419 31.2158 42.4431 31.0985 42.6569 31.0374C42.8344 30.9858 43.0203 30.9733 43.2016 30.9988C43.4589 31.034 43.7074 31.1464 43.9106 31.3354C44.5041 30.2724 44.8128 29.0628 44.7863 27.8271L44.7179 24.6506C44.7034 23.9846 45.1542 23.4153 45.7722 23.254C46.2901 23.4529 46.6601 23.9504 46.6688 24.5397L46.7104 27.2686C46.7604 30.5915 45.4883 33.8042 43.1744 36.1997L40.6966 38.7647C38.6512 40.8822 36.8297 43.2051 35.2613 45.6951C35.2606 45.6962 35.2598 45.6974 35.2591 45.6986C35.0665 46.0052 34.6403 46.0575 34.3797 45.8057Z" fill="url(#paint100_linear_4203_12951)"/>
<path d="M43.9105 31.3356C43.3901 30.851 42.5741 30.8717 42.0758 31.3875L41.473 32.0114C40.2787 33.2478 38.7439 34.1009 37.0654 34.4611C35.1361 34.8752 33.5493 36.2487 32.8618 38.0996L32.7969 38.2743L37.6301 38.1907L39.1603 37.2444C40.6744 36.308 42.0661 35.1866 43.303 33.9061L43.9537 33.2325C44.4569 32.7116 44.4585 31.8648 43.9376 31.3616C43.9316 31.356 43.9105 31.3356 43.9105 31.3356Z" fill="url(#paint101_linear_4203_12951)"/>
<path d="M39.9371 44.4741H31.1598C31.0068 44.4741 30.8828 44.35 30.8828 44.1971V41.4313C30.8828 41.2783 31.0069 41.1543 31.1598 41.1543H39.9371C40.0901 41.1543 40.2141 41.2784 40.2141 41.4313V44.1971C40.214 44.3501 40.0901 44.4741 39.9371 44.4741Z" fill="url(#paint102_linear_4203_12951)"/>
<path d="M40.5866 45.5713V43.789C40.5866 43.4193 40.2869 43.1196 39.9173 43.1196H31.1811C30.8114 43.1196 30.5117 43.4193 30.5117 43.789V45.5714C30.5117 45.9411 30.8114 46.2409 31.1811 46.2409H39.9173C40.2869 46.2407 40.5866 45.941 40.5866 45.5713Z" fill="url(#paint103_linear_4203_12951)"/>
<path d="M30.8711 44.2426C30.8711 43.8487 31.1524 43.5294 31.4994 43.5294H40.3177C40.397 43.5294 40.4727 43.5468 40.5426 43.5773C40.5695 43.6566 40.5848 43.7425 40.5848 43.8326V45.5275C40.5848 45.9213 40.3035 46.2406 39.9565 46.2406H31.1382C31.0589 46.2406 30.9831 46.2233 30.9132 46.1927C30.8864 46.1134 30.8711 46.0275 30.8711 45.9374V44.2426Z" fill="url(#paint104_linear_4203_12951)"/>
<path d="M6.65591 29.3851C6.7393 29.584 6.74309 29.7999 6.64796 29.9841L5.87528 31.4804C5.59137 32.0306 5.48293 32.6578 5.5506 33.2999C4.65608 32.823 4.19218 31.8568 4.48302 31.0659C4.55697 30.8647 4.64258 30.6677 4.73974 30.4757L5.39289 29.1853C5.51113 28.9516 5.75907 28.8238 6.03596 28.8213C6.08911 28.8396 6.14135 28.8621 6.19265 28.8898C6.41213 29.007 6.57326 29.188 6.65591 29.3851Z" fill="url(#paint105_linear_4203_12951)"/>
<path d="M4.49164 27.2312L3.96422 29.4155C3.88582 29.7406 3.82342 30.0677 3.77701 30.3961C3.59461 31.6869 4.42563 32.9045 5.69207 33.2135C5.44939 32.2989 5.43682 31.3288 5.66868 30.3953L6.30001 27.8558C6.37776 27.5433 6.32062 27.2274 6.16503 26.9715C6.01092 26.7179 5.75983 26.5223 5.44893 26.446C5.37618 26.4277 5.30351 26.4175 5.23066 26.4139C4.87502 26.539 4.58713 26.8357 4.49164 27.2312Z" fill="url(#paint106_linear_4203_12951)"/>
<path d="M2.70058 25.9982L2.65768 28.8758C2.6514 29.304 2.66582 29.7303 2.70039 30.1536C2.83648 31.8175 4.2182 33.1043 5.88744 33.1333C5.32637 32.059 5.03701 30.8507 5.06336 29.6189L5.13575 26.2684C5.14471 25.856 4.98423 25.4776 4.7177 25.2016C4.45367 24.9282 4.0848 24.7548 3.67489 24.747C3.57883 24.7447 3.48509 24.7526 3.3932 24.7686C2.9843 25.0253 2.70825 25.4771 2.70058 25.9982Z" fill="url(#paint107_linear_4203_12951)"/>
<path d="M1.89612 23.2075C2.67647 23.2227 3.298 23.8703 3.28126 24.6506L3.21294 27.8269C3.18632 29.063 3.495 30.2725 4.0887 31.3355C4.60909 30.8509 5.42513 30.8717 5.92342 31.3875L6.52618 32.0114C7.72051 33.2478 9.25533 34.1008 10.9338 34.4611C12.8631 34.8751 14.4499 36.2485 15.1374 38.0995L16.8432 42.6917L15.7535 43.7443L13.6869 45.7406C13.1074 46.3004 12.1604 46.1875 11.7276 45.508C11.7262 45.5059 11.725 45.504 11.7237 45.502C10.1902 43.1024 8.42034 40.8609 6.44057 38.8114L3.96297 36.2465C1.64891 33.8509 0.377014 30.6383 0.427213 27.3152L0.468352 24.5865C0.480093 23.8099 1.11928 23.1923 1.89612 23.2075Z" fill="url(#paint108_linear_4203_12951)"/>
<path d="M13.6192 45.8058L16.8427 42.692L15.1371 38.0997C14.8548 37.3405 14.4219 36.6616 13.8759 36.0963C13.0905 35.2833 12.0716 34.7053 10.9336 34.461C9.25513 34.1008 7.71994 33.2479 6.52561 32.0115L5.92312 31.3877C5.75709 31.2158 5.55583 31.0985 5.342 31.0374C5.16459 30.9858 4.97868 30.9734 4.7973 30.9989C4.54001 31.034 4.29151 31.1464 4.08831 31.3354C3.49489 30.2724 3.18611 29.0628 3.21265 27.8271L3.28106 24.6507C3.29557 23.9847 2.8447 23.4154 2.22678 23.2541C1.70889 23.4529 1.33882 23.9505 1.33013 24.5397L1.28853 27.2686C1.23852 30.5915 2.5106 33.8042 4.82457 36.1997L7.30235 38.7648C9.34776 40.8822 11.1693 43.2051 12.7375 45.6951C12.7383 45.6962 12.739 45.6974 12.7398 45.6986C12.9324 46.0052 13.3586 46.0575 13.6192 45.8058Z" fill="url(#paint109_linear_4203_12951)"/>
<path d="M4.08909 31.3356C4.60948 30.851 5.42551 30.8717 5.92381 31.3875L6.52657 32.0114C7.7209 33.2478 9.25572 34.1009 10.9342 34.4611C12.8635 34.8752 14.4503 36.2487 15.1378 38.0996L15.2027 38.2743L10.3694 38.1907L8.83924 37.2444C7.32513 36.308 5.93351 35.1866 4.69656 33.9061L4.04591 33.2325C3.54272 32.7116 3.54115 31.8648 4.062 31.3616C4.06801 31.356 4.08909 31.3356 4.08909 31.3356Z" fill="url(#paint110_linear_4203_12951)"/>
<path d="M16.8394 44.4741H8.06213C7.90913 44.4741 7.78516 44.35 7.78516 44.1971V41.4313C7.78516 41.2783 7.90922 41.1543 8.06213 41.1543H16.8394C16.9924 41.1543 17.1164 41.2784 17.1164 41.4313V44.1971C17.1165 44.3501 16.9924 44.4741 16.8394 44.4741Z" fill="url(#paint111_linear_4203_12951)"/>
<path d="M17.4889 45.5713V43.789C17.4889 43.4193 17.1892 43.1196 16.8195 43.1196H8.08338C7.71369 43.1196 7.41406 43.4193 7.41406 43.789V45.5714C7.41406 45.9411 7.71378 46.2409 8.08338 46.2409H16.8195C17.1892 46.2407 17.4889 45.941 17.4889 45.5713Z" fill="url(#paint112_linear_4203_12951)"/>
<path d="M7.77539 44.2426C7.77539 43.8488 8.05671 43.5294 8.40367 43.5294H17.222C17.3014 43.5294 17.377 43.5468 17.4469 43.5773C17.4737 43.6567 17.4891 43.7425 17.4891 43.8327V45.5275C17.4891 45.9214 17.2077 46.2407 16.8608 46.2407H8.04247C7.96306 46.2407 7.88744 46.2233 7.81755 46.1928C7.79064 46.1135 7.77539 46.0276 7.77539 45.9374V44.2426Z" fill="url(#paint113_linear_4203_12951)"/>
<path d="M13.075 13.2203C11.9199 13.973 10.9344 14.9644 10.1881 16.1243C10.0203 16.3851 9.63296 16.3844 9.46609 16.123C8.72401 14.9605 7.74212 13.9655 6.58985 13.2085C6.33405 13.0405 6.33479 12.6584 6.59115 12.4914C7.74619 11.7387 8.73168 10.7473 9.47801 9.5874C9.64581 9.32661 10.0332 9.32726 10.2 9.5887C10.9421 10.7512 11.9241 11.7462 13.0764 12.5032C13.332 12.6713 13.3313 13.0533 13.075 13.2203Z" fill="url(#paint114_linear_4203_12951)"/>
<path d="M45.0418 10.8362C43.8867 11.5889 42.9012 12.5803 42.1549 13.7401C41.9871 14.0009 41.5998 14.0002 41.4329 13.7388C40.6908 12.5763 39.7089 11.5813 38.5566 10.8243C38.3008 10.6564 38.3016 10.2743 38.5579 10.1072C39.713 9.35451 40.6985 8.3631 41.4448 7.20325C41.6126 6.94245 42 6.9431 42.1668 7.20454C42.9089 8.36707 43.8909 9.36209 45.0432 10.1191C45.2989 10.287 45.2981 10.669 45.0418 10.8362Z" fill="url(#paint115_linear_4203_12951)"/>
<path d="M7.48702 7.62711C6.67024 8.15943 5.97328 8.86055 5.44549 9.68075C5.32679 9.86518 5.05287 9.86472 4.9349 9.67982C4.41017 8.85769 3.71579 8.15407 2.90096 7.61879C2.72013 7.5 2.72059 7.22987 2.90188 7.11172C3.71866 6.5794 4.41562 5.87837 4.94332 5.05808C5.06202 4.87365 5.33594 4.87411 5.4539 5.059C5.97873 5.88114 6.67311 6.58476 7.48794 7.12004C7.66886 7.23883 7.66831 7.50896 7.48702 7.62711Z" fill="url(#paint116_linear_4203_12951)"/>
<path d="M16.1394 3.61481C15.3226 4.14713 14.6256 4.84825 14.0978 5.66845C13.9791 5.85288 13.7052 5.85242 13.5872 5.66753C13.0625 4.84539 12.3681 4.14177 11.5533 3.60649C11.3725 3.4877 11.3729 3.21757 11.5542 3.09942C12.371 2.5671 13.068 1.86607 13.5957 1.04587C13.7144 0.86144 13.9883 0.861902 14.1062 1.0468C14.6311 1.86894 15.3254 2.57256 16.1403 3.10783C16.3211 3.22653 16.3207 3.49667 16.1394 3.61481Z" fill="url(#paint117_linear_4203_12951)"/>
<path d="M36.948 5.17774C36.1312 5.71006 35.4342 6.41118 34.9064 7.23138C34.7877 7.41581 34.5138 7.41535 34.3958 7.23045C33.8711 6.40831 33.1767 5.70469 32.3619 5.16942C32.1811 5.05063 32.1815 4.78049 32.3628 4.66235C33.1796 4.13003 33.8766 3.42891 34.4043 2.60871C34.523 2.42428 34.7969 2.42474 34.9148 2.60963C35.4397 3.43177 36.134 4.13539 36.9489 4.67067C37.1297 4.78937 37.1292 5.05959 36.948 5.17774Z" fill="url(#paint118_linear_4203_12951)"/>
</g>
<defs>
<linearGradient id="paint0_linear_4203_12951" x1="7.96518" y1="22.1091" x2="31.1853" y2="29.0717" gradientUnits="userSpaceOnUse">
<stop stop-color="#E4F2FF"/>
<stop offset="1" stop-color="#B2CBFF"/>
</linearGradient>
<linearGradient id="paint1_linear_4203_12951" x1="13.7165" y1="21.3438" x2="29.3217" y2="0.403227" gradientUnits="userSpaceOnUse">
<stop stop-color="#3F3CED" stop-opacity="0"/>
<stop offset="0.2796" stop-color="#3C3DE4" stop-opacity="0.28"/>
<stop offset="0.7305" stop-color="#3541CC" stop-opacity="0.731"/>
<stop offset="1" stop-color="#2F43BB"/>
</linearGradient>
<linearGradient id="paint2_linear_4203_12951" x1="3.47843" y1="20.0396" x2="22.1157" y2="27.7221" gradientUnits="userSpaceOnUse">
<stop stop-color="#FF7044"/>
<stop offset="1" stop-color="#F82814"/>
</linearGradient>
<linearGradient id="paint3_linear_4203_12951" x1="-2.533" y1="22.2654" x2="18.4224" y2="28.549" gradientUnits="userSpaceOnUse">
<stop stop-color="#FF7044" stop-opacity="0"/>
<stop offset="1" stop-color="#FFA325"/>
</linearGradient>
<linearGradient id="paint4_linear_4203_12951" x1="-1.94194" y1="20.2894" x2="19.0134" y2="26.573" gradientUnits="userSpaceOnUse">
<stop stop-color="#FF7044" stop-opacity="0"/>
<stop offset="1" stop-color="#FFA325"/>
</linearGradient>
<linearGradient id="paint5_linear_4203_12951" x1="-1.30874" y1="18.1775" x2="19.6466" y2="24.461" gradientUnits="userSpaceOnUse">
<stop stop-color="#FF7044" stop-opacity="0"/>
<stop offset="1" stop-color="#FFA325"/>
</linearGradient>
<linearGradient id="paint6_linear_4203_12951" x1="-0.71695" y1="16.2015" x2="20.2384" y2="22.485" gradientUnits="userSpaceOnUse">
<stop stop-color="#FF7044" stop-opacity="0"/>
<stop offset="1" stop-color="#FFA325"/>
</linearGradient>
<linearGradient id="paint7_linear_4203_12951" x1="3.15887" y1="35.0354" x2="21.2308" y2="25.3012" gradientUnits="userSpaceOnUse">
<stop stop-color="#FF7044" stop-opacity="0"/>
<stop offset="1" stop-color="#FFA325"/>
</linearGradient>
<linearGradient id="paint8_linear_4203_12951" x1="1.5585" y1="32.064" x2="19.6304" y2="22.3298" gradientUnits="userSpaceOnUse">
<stop stop-color="#FF7044" stop-opacity="0"/>
<stop offset="1" stop-color="#FFA325"/>
</linearGradient>
<linearGradient id="paint9_linear_4203_12951" x1="-0.0536988" y1="29.0705" x2="18.0181" y2="19.3363" gradientUnits="userSpaceOnUse">
<stop stop-color="#FF7044" stop-opacity="0"/>
<stop offset="1" stop-color="#FFA325"/>
</linearGradient>
<linearGradient id="paint10_linear_4203_12951" x1="-1.68553" y1="26.0429" x2="16.3863" y2="16.3087" gradientUnits="userSpaceOnUse">
<stop stop-color="#FF7044" stop-opacity="0"/>
<stop offset="1" stop-color="#FFA325"/>
</linearGradient>
<linearGradient id="paint11_linear_4203_12951" x1="-3.29586" y1="23.0494" x2="14.7761" y2="13.3152" gradientUnits="userSpaceOnUse">
<stop stop-color="#FF7044" stop-opacity="0"/>
<stop offset="1" stop-color="#FFA325"/>
</linearGradient>
<linearGradient id="paint12_linear_4203_12951" x1="11.6972" y1="19.7196" x2="33.4069" y2="30.523" gradientUnits="userSpaceOnUse">
<stop stop-color="#E4F2FF"/>
<stop offset="1" stop-color="#B2CBFF"/>
</linearGradient>
<linearGradient id="paint13_linear_4203_12951" x1="17.4995" y1="19.9409" x2="36.4359" y2="1.94516" gradientUnits="userSpaceOnUse">
<stop stop-color="#3F3CED" stop-opacity="0"/>
<stop offset="0.2796" stop-color="#3C3DE4" stop-opacity="0.28"/>
<stop offset="0.7305" stop-color="#3541CC" stop-opacity="0.731"/>
<stop offset="1" stop-color="#2F43BB"/>
</linearGradient>
<linearGradient id="paint14_linear_4203_12951" x1="7.62555" y1="16.9181" x2="24.6953" y2="27.6537" gradientUnits="userSpaceOnUse">
<stop stop-color="#FF7044"/>
<stop offset="1" stop-color="#F82814"/>
</linearGradient>
<linearGradient id="paint15_linear_4203_12951" x1="1.32159" y1="18.0925" x2="20.9141" y2="27.8424" gradientUnits="userSpaceOnUse">
<stop stop-color="#FF7044" stop-opacity="0"/>
<stop offset="1" stop-color="#FFA325"/>
</linearGradient>
<linearGradient id="paint16_linear_4203_12951" x1="2.23916" y1="16.2451" x2="21.8317" y2="25.9949" gradientUnits="userSpaceOnUse">
<stop stop-color="#FF7044" stop-opacity="0"/>
<stop offset="1" stop-color="#FFA325"/>
</linearGradient>
<linearGradient id="paint17_linear_4203_12951" x1="3.22087" y1="14.2703" x2="22.8134" y2="24.0201" gradientUnits="userSpaceOnUse">
<stop stop-color="#FF7044" stop-opacity="0"/>
<stop offset="1" stop-color="#FFA325"/>
</linearGradient>
<linearGradient id="paint18_linear_4203_12951" x1="4.1412" y1="12.4228" x2="23.7338" y2="22.1726" gradientUnits="userSpaceOnUse">
<stop stop-color="#FF7044" stop-opacity="0"/>
<stop offset="1" stop-color="#FFA325"/>
</linearGradient>
<linearGradient id="paint19_linear_4203_12951" x1="4.76728" y1="31.6472" x2="24.2344" y2="25.1171" gradientUnits="userSpaceOnUse">
<stop stop-color="#FF7044" stop-opacity="0"/>
<stop offset="1" stop-color="#FFA325"/>
</linearGradient>
<linearGradient id="paint20_linear_4203_12951" x1="3.69222" y1="28.4465" x2="23.1594" y2="21.9164" gradientUnits="userSpaceOnUse">
<stop stop-color="#FF7044" stop-opacity="0"/>
<stop offset="1" stop-color="#FFA325"/>
</linearGradient>
<linearGradient id="paint21_linear_4203_12951" x1="2.61118" y1="25.2219" x2="22.0783" y2="18.6918" gradientUnits="userSpaceOnUse">
<stop stop-color="#FF7044" stop-opacity="0"/>
<stop offset="1" stop-color="#FFA325"/>
</linearGradient>
<linearGradient id="paint22_linear_4203_12951" x1="1.51632" y1="21.9605" x2="20.9836" y2="15.4304" gradientUnits="userSpaceOnUse">
<stop stop-color="#FF7044" stop-opacity="0"/>
<stop offset="1" stop-color="#FFA325"/>
</linearGradient>
<linearGradient id="paint23_linear_4203_12951" x1="0.435187" y1="18.7359" x2="19.9023" y2="12.2058" gradientUnits="userSpaceOnUse">
<stop stop-color="#FF7044" stop-opacity="0"/>
<stop offset="1" stop-color="#FFA325"/>
</linearGradient>
<linearGradient id="paint24_linear_4203_12951" x1="15.7623" y1="17.9973" x2="35.3111" y2="32.3331" gradientUnits="userSpaceOnUse">
<stop stop-color="#E4F2FF"/>
<stop offset="1" stop-color="#B2CBFF"/>
</linearGradient>
<linearGradient id="paint25_linear_4203_12951" x1="21.4398" y1="19.2025" x2="43.1568" y2="4.69505" gradientUnits="userSpaceOnUse">
<stop stop-color="#3F3CED" stop-opacity="0"/>
<stop offset="0.2796" stop-color="#3C3DE4" stop-opacity="0.28"/>
<stop offset="0.7305" stop-color="#3541CC" stop-opacity="0.731"/>
<stop offset="1" stop-color="#2F43BB"/>
</linearGradient>
<linearGradient id="paint26_linear_4203_12951" x1="12.2271" y1="14.5446" x2="27.2166" y2="28.0244" gradientUnits="userSpaceOnUse">
<stop stop-color="#FF7044"/>
<stop offset="1" stop-color="#F82814"/>
</linearGradient>
<linearGradient id="paint27_linear_4203_12951" x1="5.81735" y1="14.6291" x2="23.4591" y2="27.5663" gradientUnits="userSpaceOnUse">
<stop stop-color="#FF7044" stop-opacity="0"/>
<stop offset="1" stop-color="#FFA325"/>
</linearGradient>
<linearGradient id="paint28_linear_4203_12951" x1="7.03663" y1="12.9656" x2="24.6783" y2="25.9029" gradientUnits="userSpaceOnUse">
<stop stop-color="#FF7044" stop-opacity="0"/>
<stop offset="1" stop-color="#FFA325"/>
</linearGradient>
<linearGradient id="paint29_linear_4203_12951" x1="8.34131" y1="11.1878" x2="25.9831" y2="24.125" gradientUnits="userSpaceOnUse">
<stop stop-color="#FF7044" stop-opacity="0"/>
<stop offset="1" stop-color="#FFA325"/>
</linearGradient>
<linearGradient id="paint30_linear_4203_12951" x1="9.5612" y1="9.52438" x2="27.2029" y2="22.4616" gradientUnits="userSpaceOnUse">
<stop stop-color="#FF7044" stop-opacity="0"/>
<stop offset="1" stop-color="#FFA325"/>
</linearGradient>
<linearGradient id="paint31_linear_4203_12951" x1="6.90606" y1="28.5687" x2="27.1947" y2="25.4473" gradientUnits="userSpaceOnUse">
<stop stop-color="#FF7044" stop-opacity="0"/>
<stop offset="1" stop-color="#FFA325"/>
</linearGradient>
<linearGradient id="paint32_linear_4203_12951" x1="6.39196" y1="25.2328" x2="26.6806" y2="22.1114" gradientUnits="userSpaceOnUse">
<stop stop-color="#FF7044" stop-opacity="0"/>
<stop offset="1" stop-color="#FFA325"/>
</linearGradient>
<linearGradient id="paint33_linear_4203_12951" x1="5.87599" y1="21.872" x2="26.1646" y2="18.7507" gradientUnits="userSpaceOnUse">
<stop stop-color="#FF7044" stop-opacity="0"/>
<stop offset="1" stop-color="#FFA325"/>
</linearGradient>
<linearGradient id="paint34_linear_4203_12951" x1="5.35215" y1="18.473" x2="25.6408" y2="15.3517" gradientUnits="userSpaceOnUse">
<stop stop-color="#FF7044" stop-opacity="0"/>
<stop offset="1" stop-color="#FFA325"/>
</linearGradient>
<linearGradient id="paint35_linear_4203_12951" x1="4.83618" y1="15.1123" x2="25.1249" y2="11.9909" gradientUnits="userSpaceOnUse">
<stop stop-color="#FF7044" stop-opacity="0"/>
<stop offset="1" stop-color="#FFA325"/>
</linearGradient>
<linearGradient id="paint36_linear_4203_12951" x1="20.078" y1="17.0051" x2="36.918" y2="34.4625" gradientUnits="userSpaceOnUse">
<stop stop-color="#E4F2FF"/>
<stop offset="1" stop-color="#B2CBFF"/>
</linearGradient>
<linearGradient id="paint37_linear_4203_12951" x1="25.4705" y1="19.1579" x2="49.3492" y2="8.54319" gradientUnits="userSpaceOnUse">
<stop stop-color="#3F3CED" stop-opacity="0"/>
<stop offset="0.2796" stop-color="#3C3DE4" stop-opacity="0.28"/>
<stop offset="0.7305" stop-color="#3541CC" stop-opacity="0.731"/>
<stop offset="1" stop-color="#2F43BB"/>
</linearGradient>
<linearGradient id="paint38_linear_4203_12951" x1="17.1778" y1="12.9999" x2="29.6675" y2="28.8384" gradientUnits="userSpaceOnUse">
<stop stop-color="#FF7044"/>
<stop offset="1" stop-color="#F82814"/>
</linearGradient>
<linearGradient id="paint39_linear_4203_12951" x1="10.8431" y1="11.994" x2="26.0405" y2="27.7485" gradientUnits="userSpaceOnUse">
<stop stop-color="#FF7044" stop-opacity="0"/>
<stop offset="1" stop-color="#FFA325"/>
</linearGradient>
<linearGradient id="paint40_linear_4203_12951" x1="12.3285" y1="10.5609" x2="27.5259" y2="26.3154" gradientUnits="userSpaceOnUse">
<stop stop-color="#FF7044" stop-opacity="0"/>
<stop offset="1" stop-color="#FFA325"/>
</linearGradient>
<linearGradient id="paint41_linear_4203_12951" x1="13.9165" y1="9.02925" x2="29.1139" y2="24.7838" gradientUnits="userSpaceOnUse">
<stop stop-color="#FF7044" stop-opacity="0"/>
<stop offset="1" stop-color="#FFA325"/>
</linearGradient>
<linearGradient id="paint42_linear_4203_12951" x1="15.4021" y1="7.59626" x2="30.5994" y2="23.3509" gradientUnits="userSpaceOnUse">
<stop stop-color="#FF7044" stop-opacity="0"/>
<stop offset="1" stop-color="#FFA325"/>
</linearGradient>
<linearGradient id="paint43_linear_4203_12951" x1="9.54792" y1="25.9238" x2="30.0836" y2="26.2935" gradientUnits="userSpaceOnUse">
<stop stop-color="#FF7044" stop-opacity="0"/>
<stop offset="1" stop-color="#FFA325"/>
</linearGradient>
<linearGradient id="paint44_linear_4203_12951" x1="9.60715" y1="22.5474" x2="30.1429" y2="22.917" gradientUnits="userSpaceOnUse">
<stop stop-color="#FF7044" stop-opacity="0"/>
<stop offset="1" stop-color="#FFA325"/>
</linearGradient>
<linearGradient id="paint45_linear_4203_12951" x1="9.67025" y1="19.1457" x2="30.206" y2="19.5153" gradientUnits="userSpaceOnUse">
<stop stop-color="#FF7044" stop-opacity="0"/>
<stop offset="1" stop-color="#FFA325"/>
</linearGradient>
<linearGradient id="paint46_linear_4203_12951" x1="9.73135" y1="15.7052" x2="30.2671" y2="16.0748" gradientUnits="userSpaceOnUse">
<stop stop-color="#FF7044" stop-opacity="0"/>
<stop offset="1" stop-color="#FFA325"/>
</linearGradient>
<linearGradient id="paint47_linear_4203_12951" x1="9.79249" y1="12.3036" x2="30.3282" y2="12.6733" gradientUnits="userSpaceOnUse">
<stop stop-color="#FF7044" stop-opacity="0"/>
<stop offset="1" stop-color="#FFA325"/>
</linearGradient>
<linearGradient id="paint48_linear_4203_12951" x1="24.4833" y1="16.7441" x2="38.0996" y2="36.8083" gradientUnits="userSpaceOnUse">
<stop stop-color="#E4F2FF"/>
<stop offset="1" stop-color="#B2CBFF"/>
</linearGradient>
<linearGradient id="paint49_linear_4203_12951" x1="29.4285" y1="19.7827" x2="54.757" y2="13.3926" gradientUnits="userSpaceOnUse">
<stop stop-color="#3F3CED" stop-opacity="0"/>
<stop offset="0.2796" stop-color="#3C3DE4" stop-opacity="0.28"/>
<stop offset="0.7305" stop-color="#3541CC" stop-opacity="0.731"/>
<stop offset="1" stop-color="#2F43BB"/>
</linearGradient>
<linearGradient id="paint50_linear_4203_12951" x1="22.3086" y1="12.3048" x2="31.9151" y2="30.0336" gradientUnits="userSpaceOnUse">
<stop stop-color="#FF7044"/>
<stop offset="1" stop-color="#F82814"/>
</linearGradient>
<linearGradient id="paint51_linear_4203_12951" x1="16.2397" y1="10.2352" x2="28.5282" y2="28.343" gradientUnits="userSpaceOnUse">
<stop stop-color="#FF7044" stop-opacity="0"/>
<stop offset="1" stop-color="#FFA325"/>
</linearGradient>
<linearGradient id="paint52_linear_4203_12951" x1="17.9473" y1="9.07637" x2="30.2358" y2="27.1841" gradientUnits="userSpaceOnUse">
<stop stop-color="#FF7044" stop-opacity="0"/>
<stop offset="1" stop-color="#FFA325"/>
</linearGradient>
<linearGradient id="paint53_linear_4203_12951" x1="19.7729" y1="7.83779" x2="32.0614" y2="25.9455" gradientUnits="userSpaceOnUse">
<stop stop-color="#FF7044" stop-opacity="0"/>
<stop offset="1" stop-color="#FFA325"/>
</linearGradient>
<linearGradient id="paint54_linear_4203_12951" x1="21.4782" y1="6.67881" x2="33.7667" y2="24.7866" gradientUnits="userSpaceOnUse">
<stop stop-color="#FF7044" stop-opacity="0"/>
<stop offset="1" stop-color="#FFA325"/>
</linearGradient>
<linearGradient id="paint55_linear_4203_12951" x1="12.5928" y1="23.7368" x2="32.759" y2="27.5975" gradientUnits="userSpaceOnUse">
<stop stop-color="#FF7044" stop-opacity="0"/>
<stop offset="1" stop-color="#FFA325"/>
</linearGradient>
<linearGradient id="paint56_linear_4203_12951" x1="13.2264" y1="20.421" x2="33.3925" y2="24.2818" gradientUnits="userSpaceOnUse">
<stop stop-color="#FF7044" stop-opacity="0"/>
<stop offset="1" stop-color="#FFA325"/>
</linearGradient>
<linearGradient id="paint57_linear_4203_12951" x1="13.8664" y1="17.0806" x2="34.0326" y2="20.9413" gradientUnits="userSpaceOnUse">
<stop stop-color="#FF7044" stop-opacity="0"/>
<stop offset="1" stop-color="#FFA325"/>
</linearGradient>
<linearGradient id="paint58_linear_4203_12951" x1="14.5122" y1="13.7021" x2="34.6784" y2="17.5628" gradientUnits="userSpaceOnUse">
<stop stop-color="#FF7044" stop-opacity="0"/>
<stop offset="1" stop-color="#FFA325"/>
</linearGradient>
<linearGradient id="paint59_linear_4203_12951" x1="15.1521" y1="10.3617" x2="35.3183" y2="14.2224" gradientUnits="userSpaceOnUse">
<stop stop-color="#FF7044" stop-opacity="0"/>
<stop offset="1" stop-color="#FFA325"/>
</linearGradient>
<linearGradient id="paint60_linear_4203_12951" x1="28.8798" y1="17.2471" x2="38.8948" y2="39.335" gradientUnits="userSpaceOnUse">
<stop stop-color="#E4F2FF"/>
<stop offset="1" stop-color="#B2CBFF"/>
</linearGradient>
<linearGradient id="paint61_linear_4203_12951" x1="33.2386" y1="21.0821" x2="59.2899" y2="19.0831" gradientUnits="userSpaceOnUse">
<stop stop-color="#3F3CED" stop-opacity="0"/>
<stop offset="0.2796" stop-color="#3C3DE4" stop-opacity="0.28"/>
<stop offset="0.7305" stop-color="#3541CC" stop-opacity="0.731"/>
<stop offset="1" stop-color="#2F43BB"/>
</linearGradient>
<linearGradient id="paint62_linear_4203_12951" x1="27.4899" y1="12.5024" x2="33.9492" y2="31.6077" gradientUnits="userSpaceOnUse">
<stop stop-color="#FF7044"/>
<stop offset="1" stop-color="#F82814"/>
</linearGradient>
<linearGradient id="paint63_linear_4203_12951" x1="21.8593" y1="9.43237" x2="30.8975" y2="29.3657" gradientUnits="userSpaceOnUse">
<stop stop-color="#FF7044" stop-opacity="0"/>
<stop offset="1" stop-color="#FFA325"/>
</linearGradient>
<linearGradient id="paint64_linear_4203_12951" x1="23.7396" y1="8.58018" x2="32.7777" y2="28.5136" gradientUnits="userSpaceOnUse">
<stop stop-color="#FF7044" stop-opacity="0"/>
<stop offset="1" stop-color="#FFA325"/>
</linearGradient>
<linearGradient id="paint65_linear_4203_12951" x1="25.7492" y1="7.66933" x2="34.7873" y2="27.6027" gradientUnits="userSpaceOnUse">
<stop stop-color="#FF7044" stop-opacity="0"/>
<stop offset="1" stop-color="#FFA325"/>
</linearGradient>
<linearGradient id="paint66_linear_4203_12951" x1="27.6287" y1="6.81708" x2="36.6669" y2="26.7505" gradientUnits="userSpaceOnUse">
<stop stop-color="#FF7044" stop-opacity="0"/>
<stop offset="1" stop-color="#FFA325"/>
</linearGradient>
<linearGradient id="paint67_linear_4203_12951" x1="15.9721" y1="22.1211" x2="35.1939" y2="29.3498" gradientUnits="userSpaceOnUse">
<stop stop-color="#FF7044" stop-opacity="0"/>
<stop offset="1" stop-color="#FFA325"/>
</linearGradient>
<linearGradient id="paint68_linear_4203_12951" x1="17.1616" y1="18.9606" x2="36.3834" y2="26.1893" gradientUnits="userSpaceOnUse">
<stop stop-color="#FF7044" stop-opacity="0"/>
<stop offset="1" stop-color="#FFA325"/>
</linearGradient>
<linearGradient id="paint69_linear_4203_12951" x1="18.3595" y1="15.7766" x2="37.5812" y2="23.0053" gradientUnits="userSpaceOnUse">
<stop stop-color="#FF7044" stop-opacity="0"/>
<stop offset="1" stop-color="#FFA325"/>
</linearGradient>
<linearGradient id="paint70_linear_4203_12951" x1="19.569" y1="12.5564" x2="38.7908" y2="19.7851" gradientUnits="userSpaceOnUse">
<stop stop-color="#FF7044" stop-opacity="0"/>
<stop offset="1" stop-color="#FFA325"/>
</linearGradient>
<linearGradient id="paint71_linear_4203_12951" x1="20.7669" y1="9.37239" x2="39.9886" y2="16.6011" gradientUnits="userSpaceOnUse">
<stop stop-color="#FF7044" stop-opacity="0"/>
<stop offset="1" stop-color="#FFA325"/>
</linearGradient>
<linearGradient id="paint72_linear_4203_12951" x1="33.119" y1="18.4742" x2="39.2238" y2="41.9328" gradientUnits="userSpaceOnUse">
<stop stop-color="#E4F2FF"/>
<stop offset="1" stop-color="#B2CBFF"/>
</linearGradient>
<linearGradient id="paint73_linear_4203_12951" x1="36.7605" y1="22.9932" x2="62.7588" y2="25.458" gradientUnits="userSpaceOnUse">
<stop stop-color="#3F3CED" stop-opacity="0"/>
<stop offset="0.2796" stop-color="#3C3DE4" stop-opacity="0.28"/>
<stop offset="0.7305" stop-color="#3541CC" stop-opacity="0.731"/>
<stop offset="1" stop-color="#2F43BB"/>
</linearGradient>
<linearGradient id="paint74_linear_4203_12951" x1="32.5592" y1="13.5647" x2="35.6695" y2="33.4808" gradientUnits="userSpaceOnUse">
<stop stop-color="#FF7044"/>
<stop offset="1" stop-color="#F82814"/>
</linearGradient>
<linearGradient id="paint75_linear_4203_12951" x1="27.5363" y1="9.58283" x2="33.0455" y2="30.7529" gradientUnits="userSpaceOnUse">
<stop stop-color="#FF7044" stop-opacity="0"/>
<stop offset="1" stop-color="#FFA325"/>
</linearGradient>
<linearGradient id="paint76_linear_4203_12951" x1="29.5309" y1="9.06346" x2="35.0401" y2="30.2335" gradientUnits="userSpaceOnUse">
<stop stop-color="#FF7044" stop-opacity="0"/>
<stop offset="1" stop-color="#FFA325"/>
</linearGradient>
<linearGradient id="paint77_linear_4203_12951" x1="31.6642" y1="8.50831" x2="37.1734" y2="29.6784" gradientUnits="userSpaceOnUse">
<stop stop-color="#FF7044" stop-opacity="0"/>
<stop offset="1" stop-color="#FFA325"/>
</linearGradient>
<linearGradient id="paint78_linear_4203_12951" x1="33.6609" y1="7.98902" x2="39.17" y2="29.1591" gradientUnits="userSpaceOnUse">
<stop stop-color="#FF7044" stop-opacity="0"/>
<stop offset="1" stop-color="#FFA325"/>
</linearGradient>
<linearGradient id="paint79_linear_4203_12951" x1="19.5783" y1="21.0778" x2="37.2795" y2="31.4685" gradientUnits="userSpaceOnUse">
<stop stop-color="#FF7044" stop-opacity="0"/>
<stop offset="1" stop-color="#FFA325"/>
</linearGradient>
<linearGradient id="paint80_linear_4203_12951" x1="21.2854" y1="18.1674" x2="38.9867" y2="28.5582" gradientUnits="userSpaceOnUse">
<stop stop-color="#FF7044" stop-opacity="0"/>
<stop offset="1" stop-color="#FFA325"/>
</linearGradient>
<linearGradient id="paint81_linear_4203_12951" x1="23.0066" y1="15.2353" x2="40.7079" y2="25.6261" gradientUnits="userSpaceOnUse">
<stop stop-color="#FF7044" stop-opacity="0"/>
<stop offset="1" stop-color="#FFA325"/>
</linearGradient>
<linearGradient id="paint82_linear_4203_12951" x1="24.7494" y1="12.2698" x2="42.4507" y2="22.6606" gradientUnits="userSpaceOnUse">
<stop stop-color="#FF7044" stop-opacity="0"/>
<stop offset="1" stop-color="#FFA325"/>
</linearGradient>
<linearGradient id="paint83_linear_4203_12951" x1="26.4707" y1="9.3378" x2="44.1719" y2="19.7285" gradientUnits="userSpaceOnUse">
<stop stop-color="#FF7044" stop-opacity="0"/>
<stop offset="1" stop-color="#FFA325"/>
</linearGradient>
<linearGradient id="paint84_linear_4203_12951" x1="37.0778" y1="20.4329" x2="39.1013" y2="44.6119" gradientUnits="userSpaceOnUse">
<stop stop-color="#E4F2FF"/>
<stop offset="1" stop-color="#B2CBFF"/>
</linearGradient>
<linearGradient id="paint85_linear_4203_12951" x1="39.8985" y1="25.5103" x2="65.121" y2="32.3719" gradientUnits="userSpaceOnUse">
<stop stop-color="#3F3CED" stop-opacity="0"/>
<stop offset="0.2796" stop-color="#3C3DE4" stop-opacity="0.28"/>
<stop offset="0.7305" stop-color="#3541CC" stop-opacity="0.731"/>
<stop offset="1" stop-color="#2F43BB"/>
</linearGradient>
<linearGradient id="paint86_linear_4203_12951" x1="37.3622" y1="15.4947" x2="37.0358" y2="35.669" gradientUnits="userSpaceOnUse">
<stop stop-color="#FF7044"/>
<stop offset="1" stop-color="#F82814"/>
</linearGradient>
<linearGradient id="paint87_linear_4203_12951" x1="33.0861" y1="10.7111" x2="34.9123" y2="32.532" gradientUnits="userSpaceOnUse">
<stop stop-color="#FF7044" stop-opacity="0"/>
<stop offset="1" stop-color="#FFA325"/>
</linearGradient>
<linearGradient id="paint88_linear_4203_12951" x1="35.1436" y1="10.5386" x2="36.9697" y2="32.3595" gradientUnits="userSpaceOnUse">
<stop stop-color="#FF7044" stop-opacity="0"/>
<stop offset="1" stop-color="#FFA325"/>
</linearGradient>
<linearGradient id="paint89_linear_4203_12951" x1="37.3437" y1="10.3546" x2="39.1698" y2="32.1755" gradientUnits="userSpaceOnUse">
<stop stop-color="#FF7044" stop-opacity="0"/>
<stop offset="1" stop-color="#FFA325"/>
</linearGradient>
<linearGradient id="paint90_linear_4203_12951" x1="39.3993" y1="10.1822" x2="41.2254" y2="32.0032" gradientUnits="userSpaceOnUse">
<stop stop-color="#FF7044" stop-opacity="0"/>
<stop offset="1" stop-color="#FFA325"/>
</linearGradient>
<linearGradient id="paint91_linear_4203_12951" x1="23.2783" y1="20.6933" x2="38.967" y2="33.9589" gradientUnits="userSpaceOnUse">
<stop stop-color="#FF7044" stop-opacity="0"/>
<stop offset="1" stop-color="#FFA325"/>
</linearGradient>
<linearGradient id="paint92_linear_4203_12951" x1="25.4592" y1="18.1138" x2="41.1479" y2="31.3793" gradientUnits="userSpaceOnUse">
<stop stop-color="#FF7044" stop-opacity="0"/>
<stop offset="1" stop-color="#FFA325"/>
</linearGradient>
<linearGradient id="paint93_linear_4203_12951" x1="27.6556" y1="15.5149" x2="43.3443" y2="28.7805" gradientUnits="userSpaceOnUse">
<stop stop-color="#FF7044" stop-opacity="0"/>
<stop offset="1" stop-color="#FFA325"/>
</linearGradient>
<linearGradient id="paint94_linear_4203_12951" x1="29.8793" y1="12.8865" x2="45.5681" y2="26.1521" gradientUnits="userSpaceOnUse">
<stop stop-color="#FF7044" stop-opacity="0"/>
<stop offset="1" stop-color="#FFA325"/>
</linearGradient>
<linearGradient id="paint95_linear_4203_12951" x1="32.0757" y1="10.2877" x2="47.7644" y2="23.5533" gradientUnits="userSpaceOnUse">
<stop stop-color="#FF7044" stop-opacity="0"/>
<stop offset="1" stop-color="#FFA325"/>
</linearGradient>
<linearGradient id="paint96_linear_4203_12951" x1="41.3309" y1="31.3336" x2="42.972" y2="30.7597" gradientUnits="userSpaceOnUse">
<stop stop-color="#FFDECF"/>
<stop offset="1" stop-color="#FAA68E"/>
</linearGradient>
<linearGradient id="paint97_linear_4203_12951" x1="41.6603" y1="29.8689" x2="43.5054" y2="29.9315" gradientUnits="userSpaceOnUse">
<stop stop-color="#FFDECF"/>
<stop offset="1" stop-color="#FAA68E"/>
</linearGradient>
<linearGradient id="paint98_linear_4203_12951" x1="42.127" y1="28.5993" x2="44.4132" y2="29.1977" gradientUnits="userSpaceOnUse">
<stop stop-color="#FFDECF"/>
<stop offset="1" stop-color="#FAA68E"/>
</linearGradient>
<linearGradient id="paint99_linear_4203_12951" x1="42.0431" y1="35.7607" x2="35.1496" y2="30.5149" gradientUnits="userSpaceOnUse">
<stop stop-color="#FFDECF"/>
<stop offset="1" stop-color="#FAA68E"/>
</linearGradient>
<linearGradient id="paint100_linear_4203_12951" x1="40.3734" y1="34.7583" x2="48.9415" y2="38.4475" gradientUnits="userSpaceOnUse">
<stop stop-color="#FFDECF" stop-opacity="0"/>
<stop offset="1" stop-color="white"/>
</linearGradient>
<linearGradient id="paint101_linear_4203_12951" x1="39.1208" y1="35.1114" x2="42.7528" y2="36.7412" gradientUnits="userSpaceOnUse">
<stop stop-color="#FFDECF" stop-opacity="0"/>
<stop offset="1" stop-color="white"/>
</linearGradient>
<linearGradient id="paint102_linear_4203_12951" x1="34.3244" y1="41.5371" x2="37.7325" y2="45.0927" gradientUnits="userSpaceOnUse">
<stop stop-color="#E4F2FF"/>
<stop offset="1" stop-color="#B2CBFF"/>
</linearGradient>
<linearGradient id="paint103_linear_4203_12951" x1="35.4621" y1="44.5345" x2="38.3478" y2="49.3636" gradientUnits="userSpaceOnUse">
<stop stop-color="#8A7889"/>
<stop offset="1" stop-color="#6E566E"/>
</linearGradient>
<linearGradient id="paint104_linear_4203_12951" x1="36.3167" y1="45.7883" x2="31.5087" y2="38.4116" gradientUnits="userSpaceOnUse">
<stop stop-color="#BDC2D1" stop-opacity="0"/>
<stop offset="0.3183" stop-color="#C1C6D4" stop-opacity="0.318"/>
<stop offset="0.6082" stop-color="#CCD0DD" stop-opacity="0.608"/>
<stop offset="0.8861" stop-color="#DEE2EC" stop-opacity="0.886"/>
<stop offset="1" stop-color="#E8ECF4"/>
</linearGradient>
<linearGradient id="paint105_linear_4203_12951" x1="6.67163" y1="31.3323" x2="5.03053" y2="30.7583" gradientUnits="userSpaceOnUse">
<stop stop-color="#FFDECF"/>
<stop offset="1" stop-color="#FAA68E"/>
</linearGradient>
<linearGradient id="paint106_linear_4203_12951" x1="6.32688" y1="29.8685" x2="4.48175" y2="29.9311" gradientUnits="userSpaceOnUse">
<stop stop-color="#FFDECF"/>
<stop offset="1" stop-color="#FAA68E"/>
</linearGradient>
<linearGradient id="paint107_linear_4203_12951" x1="5.87609" y1="28.598" x2="3.58983" y2="29.1963" gradientUnits="userSpaceOnUse">
<stop stop-color="#FFDECF"/>
<stop offset="1" stop-color="#FAA68E"/>
</linearGradient>
<linearGradient id="paint108_linear_4203_12951" x1="5.95652" y1="35.7683" x2="12.8501" y2="30.5225" gradientUnits="userSpaceOnUse">
<stop stop-color="#FFDECF"/>
<stop offset="1" stop-color="#FAA68E"/>
</linearGradient>
<linearGradient id="paint109_linear_4203_12951" x1="7.62571" y1="34.7658" x2="-0.94245" y2="38.4551" gradientUnits="userSpaceOnUse">
<stop stop-color="#FFDECF" stop-opacity="0"/>
<stop offset="1" stop-color="white"/>
</linearGradient>
<linearGradient id="paint110_linear_4203_12951" x1="8.88271" y1="35.1114" x2="5.25055" y2="36.7411" gradientUnits="userSpaceOnUse">
<stop stop-color="#FFDECF" stop-opacity="0"/>
<stop offset="1" stop-color="white"/>
</linearGradient>
<linearGradient id="paint111_linear_4203_12951" x1="11.2268" y1="41.5371" x2="14.6349" y2="45.0927" gradientUnits="userSpaceOnUse">
<stop stop-color="#E4F2FF"/>
<stop offset="1" stop-color="#B2CBFF"/>
</linearGradient>
<linearGradient id="paint112_linear_4203_12951" x1="12.3645" y1="44.5345" x2="15.2501" y2="49.3636" gradientUnits="userSpaceOnUse">
<stop stop-color="#8A7889"/>
<stop offset="1" stop-color="#6E566E"/>
</linearGradient>
<linearGradient id="paint113_linear_4203_12951" x1="13.221" y1="45.7883" x2="8.413" y2="38.4116" gradientUnits="userSpaceOnUse">
<stop stop-color="#BDC2D1" stop-opacity="0"/>
<stop offset="0.3183" stop-color="#C1C6D4" stop-opacity="0.318"/>
<stop offset="0.6082" stop-color="#CCD0DD" stop-opacity="0.608"/>
<stop offset="0.8861" stop-color="#DEE2EC" stop-opacity="0.886"/>
<stop offset="1" stop-color="#E8ECF4"/>
</linearGradient>
<linearGradient id="paint114_linear_4203_12951" x1="8.7109" y1="11.3588" x2="12.345" y2="16.2245" gradientUnits="userSpaceOnUse">
<stop stop-color="#FFD945"/>
<stop offset="0.3043" stop-color="#FFCD3E"/>
<stop offset="0.8558" stop-color="#FFAD2B"/>
<stop offset="1" stop-color="#FFA325"/>
</linearGradient>
<linearGradient id="paint115_linear_4203_12951" x1="40.6782" y1="8.981" x2="44.3124" y2="13.8467" gradientUnits="userSpaceOnUse">
<stop stop-color="#FFD945"/>
<stop offset="0.3043" stop-color="#FFCD3E"/>
<stop offset="0.8558" stop-color="#FFAD2B"/>
<stop offset="1" stop-color="#FFA325"/>
</linearGradient>
<linearGradient id="paint116_linear_4203_12951" x1="4.40132" y1="6.31037" x2="6.97115" y2="9.75116" gradientUnits="userSpaceOnUse">
<stop stop-color="#FFD945"/>
<stop offset="0.3043" stop-color="#FFCD3E"/>
<stop offset="0.8558" stop-color="#FFAD2B"/>
<stop offset="1" stop-color="#FFA325"/>
</linearGradient>
<linearGradient id="paint117_linear_4203_12951" x1="13.0544" y1="2.29973" x2="15.6243" y2="5.74062" gradientUnits="userSpaceOnUse">
<stop stop-color="#FFD945"/>
<stop offset="0.3043" stop-color="#FFCD3E"/>
<stop offset="0.8558" stop-color="#FFAD2B"/>
<stop offset="1" stop-color="#FFA325"/>
</linearGradient>
<linearGradient id="paint118_linear_4203_12951" x1="33.8627" y1="3.86675" x2="36.4327" y2="7.30764" gradientUnits="userSpaceOnUse">
<stop stop-color="#FFD945"/>
<stop offset="0.3043" stop-color="#FFCD3E"/>
<stop offset="0.8558" stop-color="#FFAD2B"/>
<stop offset="1" stop-color="#FFA325"/>
</linearGradient>
<clipPath id="clip0_4203_12951">
<rect width="47.1484" height="47.1484" fill="white" transform="translate(0.425781)"/>
</clipPath>
</defs>
</svg>
