<svg width="48" height="48" viewBox="0 0 48 48" fill="none" xmlns="http://www.w3.org/2000/svg">
<g clip-path="url(#clip0_4188_13043)">
<path d="M13.6872 36.9525L17.4238 35.8187C18.3551 35.5356 19.339 36.0607 19.6219 36.992C19.8683 37.8067 19.4971 38.6617 18.7765 39.052C20.6255 39.7361 22.5963 40.0776 24.613 40.0516C28.0669 40.0086 31.3557 38.8839 34.1235 36.7984C35.829 35.5137 37.2395 33.9387 38.3031 32.1454C38.4987 31.8157 38.9261 31.7102 39.2529 31.9106L41.0839 33.0331C41.4054 33.2301 41.5077 33.649 41.3149 33.973C40.0225 36.146 38.3112 38.0548 36.2431 39.6128C32.8722 42.1517 28.8654 43.5226 24.6568 43.5752C22.0307 43.6084 19.469 43.1294 17.082 42.1744C17.1782 43.0053 16.6721 43.81 15.8459 44.0614C14.9144 44.3435 13.9305 43.8186 13.6475 42.8873L12.5128 39.15C12.4763 39.0592 12.243 38.4479 12.5715 37.804C12.9167 37.1275 13.5983 36.9712 13.6872 36.9525Z" fill="url(#paint0_linear_4188_13043)"/>
<path d="M13.8573 37.4769L17.5834 36.3456C18.0687 36.1982 18.599 36.371 18.9032 36.7757C18.9882 36.8886 19.0528 37.0152 19.0943 37.1521C19.2599 37.7004 19.0163 38.2954 18.5141 38.5674L17.4442 39.1463L18.5852 39.5686C20.5092 40.2808 22.5397 40.6293 24.6198 40.6033C28.1915 40.5582 31.5924 39.3946 34.4552 37.2388C36.3822 35.7868 37.9352 33.9936 39.0724 31.9057L39.1496 31.8474L41.1828 33.0938C39.8921 35.455 38.1094 37.5176 35.912 39.1726C32.6345 41.6415 28.7407 42.9732 24.65 43.0246C22.1014 43.0567 19.6241 42.5988 17.287 41.6635L16.4283 41.3195L16.5345 42.2385C16.6023 42.819 16.2451 43.3642 15.6851 43.5343C15.2006 43.6815 14.6702 43.5087 14.3654 43.1049C14.2804 42.992 14.2165 42.8644 14.175 42.7276L13.0454 39.009C13.0121 38.9223 12.8864 38.5655 13.0456 38.1679C13.2594 37.634 13.8007 37.4908 13.8573 37.4769Z" fill="url(#paint1_linear_4188_13043)"/>
<path d="M12.5533 38.0161C12.7083 38.1329 12.865 38.2468 13.0234 38.358C19.5988 42.993 28.6708 43.0989 35.4429 37.998C37.4688 36.4723 39.1037 34.6197 40.3284 32.5696L41.0847 33.0331C41.4062 33.2302 41.5085 33.649 41.3157 33.9731C40.0233 36.146 38.312 38.0549 36.2439 39.6129C32.873 42.1518 28.8662 43.5226 24.6576 43.5752C22.0315 43.6085 19.4698 43.1295 17.0828 42.1745C17.179 43.0053 16.6729 43.8101 15.8466 44.0614C14.9152 44.3436 13.9312 43.8186 13.6483 42.8873L12.5136 39.1501C12.4679 39.0146 12.4106 38.7858 12.4342 38.5023C12.4513 38.2964 12.5055 38.1302 12.5533 38.0161Z" fill="url(#paint2_linear_4188_13043)"/>
<path d="M34.3131 11.0474L30.5765 12.1812C29.6452 12.4642 28.6613 11.9391 28.3783 11.0078C28.132 10.1932 28.5031 9.33829 29.2238 8.94789C27.3748 8.26375 25.404 7.92229 23.3873 7.94827C19.9333 7.99128 16.6446 9.11599 13.8768 11.2014C12.1713 12.4862 10.7608 14.0611 9.6972 15.8544C9.50163 16.1841 9.07414 16.2896 8.74737 16.0893L6.91621 14.9669C6.59471 14.7698 6.4924 14.351 6.68516 14.027C7.97758 11.854 9.68892 9.94517 11.757 8.38714C15.1279 5.84822 19.1347 4.4774 23.3433 4.42479C25.9694 4.39157 28.5311 4.87053 30.9181 5.82554C30.8219 4.99467 31.328 4.18997 32.1542 3.93858C33.0857 3.65641 34.0696 4.1814 34.3525 5.11269L35.4873 8.84992C35.5172 8.95646 35.714 9.70658 35.2435 10.3775C34.9222 10.8354 34.4714 10.9982 34.3131 11.0474Z" fill="url(#paint3_linear_4188_13043)"/>
<path d="M34.1419 10.5235L30.4157 11.6548C29.9305 11.8022 29.4001 11.6294 29.0959 11.2247C29.0109 11.1117 28.9464 10.9851 28.9049 10.8483C28.7392 10.3 28.9829 9.70495 29.4851 9.43295L30.555 8.85403L29.414 8.43173C27.4899 7.71954 25.4595 7.37102 23.3793 7.39709C19.8077 7.44217 16.4068 8.60575 13.5439 10.7616C11.617 12.2136 10.0639 14.0068 8.92681 16.0947L8.84954 16.153L6.81641 14.9065C8.10704 12.5452 9.88982 10.4826 12.0872 8.82768C15.3646 6.35879 19.2585 5.02702 23.3492 4.97563C25.8978 4.94354 28.3751 5.40151 30.7121 6.33676L31.5709 6.68076L31.4647 5.7618C31.3968 5.18128 31.7541 4.63606 32.3141 4.46599C32.7986 4.31879 33.329 4.49159 33.6337 4.89535C33.7188 5.00829 33.7827 5.13582 33.8242 5.27267L34.9537 8.99126C34.9944 9.09168 35.1043 9.40114 34.9909 9.75775C34.8039 10.3455 34.1845 10.5128 34.1419 10.5235Z" fill="url(#paint4_linear_4188_13043)"/>
<path d="M35.4475 9.98394C35.2925 9.86714 35.1358 9.75317 34.9774 9.64201C28.402 5.0071 19.33 4.90121 12.5579 10.0021C10.5319 11.5278 8.89711 13.3804 7.67236 15.4305L6.91621 14.9669C6.59471 14.7698 6.4924 14.351 6.68516 14.027C7.97758 11.854 9.68892 9.94517 11.757 8.38714C15.1279 5.84822 19.1347 4.4774 23.3433 4.42479C25.9694 4.39157 28.5311 4.87053 30.9181 5.82554C30.8219 4.99467 31.328 4.18997 32.1542 3.93858C33.0857 3.65641 34.0696 4.1814 34.3526 5.1127L35.4873 8.84992C35.5322 9.01745 35.5771 9.27166 35.5415 9.57585C35.5229 9.73575 35.4862 9.87317 35.4475 9.98394Z" fill="url(#paint5_linear_4188_13043)"/>
<path d="M21.1709 22.881C21.1709 17.6529 16.4316 13.4146 10.5855 13.4146C4.73939 13.4146 0 17.6529 0 22.881V25.1189C0 30.3472 4.73929 34.5854 10.5854 34.5854C16.4315 34.5854 21.1708 30.3471 21.1708 25.1189C21.1709 25.1116 21.1709 22.8883 21.1709 22.881Z" fill="url(#paint6_linear_4188_13043)"/>
<path d="M19.3034 17.5114C17.394 15.0367 14.2017 13.4146 10.5853 13.4146C6.96893 13.4146 3.77674 15.0368 1.86719 17.5114V30.4885C3.77665 32.9632 6.96893 34.5854 10.5853 34.5854C14.2017 34.5854 17.394 32.9632 19.3034 30.4885V17.5114Z" fill="url(#paint7_linear_4188_13043)"/>
<path d="M17.7539 32.0836C19.0285 31.0338 20.0141 29.7079 20.5922 28.2118V25.9739L17.7539 29.8457V32.0836Z" fill="url(#paint8_linear_4188_13043)"/>
<path d="M4.37695 32.7861C6.12114 33.9177 8.26608 34.5855 10.5857 34.5855C12.9053 34.5855 15.0503 33.9177 16.7945 32.7861V15.2139C15.0503 14.0823 12.9053 13.4146 10.5857 13.4146C8.26608 13.4146 6.12114 14.0823 4.37695 15.2139V32.7861Z" fill="url(#paint9_linear_4188_13043)"/>
<path d="M8.18066 34.3399C8.95328 34.5005 9.75836 34.5855 10.5857 34.5855C11.4129 34.5855 12.2179 34.5005 12.9906 34.3399V13.6601C12.218 13.4995 11.4129 13.4146 10.5857 13.4146C9.75836 13.4146 8.95337 13.4995 8.18066 13.6601V34.3399Z" fill="url(#paint10_linear_4188_13043)"/>
<path d="M10.5854 32.3474C16.4316 32.3474 21.1708 28.1092 21.1708 22.881C21.1708 17.6528 16.4316 13.4146 10.5854 13.4146C4.73925 13.4146 0 17.6528 0 22.881C0 28.1092 4.73925 32.3474 10.5854 32.3474Z" fill="url(#paint11_linear_4188_13043)"/>
<path d="M8.18093 13.66L8.18083 18.337L3.26996 16.0396C1.99928 17.1265 1.03119 18.4939 0.489258 20.0304L5.74027 22.4823L0.578858 25.9738C1.15693 27.4699 2.14253 28.7958 3.41716 29.8456L8.18083 26.6274V32.1019C8.95345 32.2624 9.75853 32.3474 10.5858 32.3474C11.4131 32.3474 12.2181 32.2624 12.9908 32.1019V26.6274L17.7545 29.8456C19.0291 28.7958 20.0147 27.4699 20.5928 25.9738L15.4314 22.4823L20.6824 20.0304C20.1405 18.4939 19.1724 17.1265 17.9017 16.0396L12.9907 18.3372V13.6602H12.9906C12.361 13.521 11.5553 13.4001 10.6173 13.3975C9.65086 13.3947 8.823 13.5181 8.18093 13.66Z" fill="url(#paint12_linear_4188_13043)"/>
<path d="M10.5854 29.7503C14.8276 29.7503 18.2666 26.6749 18.2666 22.8811C18.2666 19.0874 14.8276 16.012 10.5854 16.012C6.34326 16.012 2.9043 19.0874 2.9043 22.8811C2.9043 26.6749 6.34326 29.7503 10.5854 29.7503Z" fill="url(#paint13_linear_4188_13043)"/>
<path d="M17.0802 16.4238L12.9908 18.337V14.4644C12.2216 14.2892 11.4159 14.1958 10.5858 14.1958C9.75565 14.1958 8.94991 14.2892 8.18078 14.4644V18.337L4.09137 16.4238C2.78097 17.4784 1.79367 18.8476 1.27734 20.3982L5.74021 22.4822L1.31508 25.4756C1.84591 26.9941 2.83066 28.3329 4.12685 29.3661L8.18087 26.6273V31.2974C8.95 31.4726 9.75565 31.566 10.5859 31.566C11.4161 31.566 12.2217 31.4726 12.9909 31.2974V26.6273L17.0449 29.3661C18.3411 28.3329 19.3258 26.994 19.8566 25.4756L15.4315 22.4822L19.8943 20.3982C19.3778 18.8476 18.3905 17.4784 17.0802 16.4238Z" fill="url(#paint14_linear_4188_13043)"/>
<path d="M10.5856 28.9781C14.351 28.9781 17.4035 26.2483 17.4035 22.8809C17.4035 19.5135 14.351 16.7837 10.5856 16.7837C6.82009 16.7837 3.76758 19.5135 3.76758 22.8809C3.76758 26.2483 6.82009 28.9781 10.5856 28.9781Z" fill="url(#paint15_linear_4188_13043)"/>
<path d="M0.578125 28.2118C1.1562 29.7079 2.1418 31.0338 3.41643 32.0836V29.8457L0.578125 25.9739V28.2118Z" fill="url(#paint16_linear_4188_13043)"/>
<path d="M6.76172 20.8093C6.76172 20.5927 6.84887 20.4332 7.02355 20.3308L8.21518 19.6086C8.28134 19.5665 8.36868 19.5454 8.47701 19.5454C8.63344 19.5454 8.7764 19.5876 8.90581 19.6718C9.03513 19.7561 9.09988 19.8614 9.09988 19.9878V25.7294C9.09988 25.868 9.03061 25.9747 8.89226 26.0499C8.75372 26.1252 8.58826 26.1627 8.39579 26.1627C8.20313 26.1627 8.03758 26.1252 7.89922 26.0499C7.76068 25.9747 7.6916 25.868 7.6916 25.7294V21.1343L7.42977 21.2968C7.35758 21.345 7.28219 21.3689 7.20407 21.3689C7.07767 21.3689 6.97226 21.3118 6.88812 21.1974C6.80379 21.0832 6.76172 20.9537 6.76172 20.8093Z" fill="url(#paint17_linear_4188_13043)"/>
<path d="M9.97656 24.0862V21.6938C9.97656 20.9596 10.1782 20.4208 10.5815 20.0778C10.9847 19.7347 11.5204 19.5632 12.1884 19.5632C12.8624 19.5632 13.4011 19.7347 13.8043 20.0778C14.2075 20.4208 14.4092 20.9596 14.4092 21.6938V24.0862C14.4092 24.8205 14.2075 25.3591 13.8043 25.7021C13.401 26.0452 12.8624 26.2167 12.1884 26.2167C11.5204 26.2167 10.9847 26.0452 10.5815 25.7021C10.1781 25.3591 9.97656 24.8205 9.97656 24.0862ZM11.3848 24.0862C11.3848 24.688 11.6526 24.9889 12.1883 24.9889C12.73 24.9889 13.0008 24.688 13.0008 24.0862V21.6938C13.0008 21.092 12.73 20.791 12.1883 20.791C11.6526 20.791 11.3848 21.092 11.3848 21.6938V24.0862Z" fill="url(#paint18_linear_4188_13043)"/>
<path d="M10.5857 31.566C15.9494 31.566 20.2975 27.6775 20.2975 22.8809C20.2975 18.0842 15.9494 14.1958 10.5857 14.1958C5.22211 14.1958 0.874023 18.0842 0.874023 22.8809C0.874023 27.6775 5.22211 31.566 10.5857 31.566Z" fill="url(#paint19_linear_4188_13043)"/>
<path d="M47.9999 22.881C47.9999 17.6529 43.2606 13.4146 37.4145 13.4146C31.5683 13.4146 26.8291 17.6529 26.8291 22.881V25.1189C26.8291 30.3471 31.5684 34.5854 37.4145 34.5854C43.2606 34.5854 47.9999 30.3471 47.9999 25.1189C47.9999 25.1116 47.9999 22.8883 47.9999 22.881Z" fill="url(#paint20_linear_4188_13043)"/>
<path d="M46.1324 17.5114C44.223 15.0367 41.0308 13.4146 37.4144 13.4146C33.798 13.4146 30.6057 15.0368 28.6963 17.5114V30.4885C30.6057 32.9633 33.7979 34.5854 37.4144 34.5854C41.0308 34.5854 44.223 32.9632 46.1324 30.4885V17.5114Z" fill="url(#paint21_linear_4188_13043)"/>
<path d="M31.2061 32.7861C32.9502 33.9177 35.0952 34.5855 37.4148 34.5855C39.7344 34.5855 41.8794 33.9177 43.6236 32.7861V15.2139C41.8794 14.0823 39.7344 13.4146 37.4148 13.4146C35.0952 13.4146 32.9502 14.0823 31.2061 15.2139V32.7861Z" fill="url(#paint22_linear_4188_13043)"/>
<path d="M35.0098 34.3398C35.7824 34.5004 36.5875 34.5854 37.4148 34.5854C38.242 34.5854 39.047 34.5004 39.8197 34.3398V13.6601C39.0471 13.4995 38.242 13.4146 37.4148 13.4146C36.5875 13.4146 35.7825 13.4995 35.0098 13.6601V34.3398Z" fill="url(#paint23_linear_4188_13043)"/>
<path d="M37.4145 32.3474C43.2607 32.3474 47.9999 28.1092 47.9999 22.881C47.9999 17.6528 43.2607 13.4146 37.4145 13.4146C31.5684 13.4146 26.8291 17.6528 26.8291 22.881C26.8291 28.1092 31.5684 32.3474 37.4145 32.3474Z" fill="url(#paint24_radial_4188_13043)"/>
<path d="M37.4147 30.8368C42.328 30.8368 46.3109 27.2749 46.3109 22.8811C46.3109 18.4872 42.328 14.9253 37.4147 14.9253C32.5015 14.9253 28.5186 18.4872 28.5186 22.8811C28.5186 27.2749 32.5015 30.8368 37.4147 30.8368Z" fill="url(#paint25_radial_4188_13043)"/>
<path d="M37.415 30.0832C41.8629 30.0832 45.4686 26.8587 45.4686 22.881C45.4686 18.9033 41.8629 15.6787 37.415 15.6787C32.9671 15.6787 29.3613 18.9033 29.3613 22.881C29.3613 26.8587 32.9671 30.0832 37.415 30.0832Z" fill="url(#paint26_radial_4188_13043)"/>
<path d="M47.4794 25.8194L40.167 18.5069C40.0044 18.3441 39.7917 18.2221 39.5283 18.1406C39.2649 18.0591 39.0147 18.0004 38.7776 17.9642C38.6632 17.9467 38.5478 17.9326 38.4313 17.9215C38.4304 17.9209 38.4295 17.9204 38.4285 17.9199L37.8952 17.3675C37.7899 17.2988 37.6757 17.2642 37.5528 17.2642C37.4123 17.2642 37.2937 17.2969 37.1973 17.3619C37.1006 17.4272 37.0524 17.5045 37.0524 17.5939V17.9358C36.2887 18.0432 35.6586 18.3253 35.1627 18.7819C34.6666 19.2385 34.4187 19.865 34.4187 20.6618C34.4187 20.9867 34.4758 21.283 34.5898 21.5507C34.7038 21.8186 34.8356 22.038 34.9849 22.2092L37.0524 24.2786V25.508C36.71 25.4467 36.3367 25.2732 35.9331 24.9878C35.5291 24.7027 35.2438 24.5598 35.0771 24.5598C34.8401 24.5598 34.6314 24.6828 34.4516 24.9285C34.2715 25.1745 34.1816 25.4203 34.1816 25.666C34.1816 25.9862 34.3387 26.282 34.6524 26.5536L40.1311 32.0323C43.6021 31.2105 46.3733 28.8516 47.4794 25.8194Z" fill="url(#paint27_linear_4188_13043)"/>
<path d="M40.4832 23.5196C40.3733 23.2387 40.2416 23.006 40.0881 22.8216C39.9343 22.6372 39.7303 22.4617 39.4757 22.2948C39.221 22.1282 38.9927 22.0008 38.7909 21.9129C38.5889 21.8253 38.3431 21.7242 38.0535 21.61V19.6874C38.3695 19.7138 38.6744 19.8016 38.9687 19.9507C39.2627 20.1001 39.4711 20.1747 39.5942 20.1747C39.8487 20.1747 40.0485 20.0498 40.1934 19.8C40.3383 19.5502 40.4106 19.309 40.4106 19.0769C40.4106 18.8598 40.3294 18.6699 40.167 18.5069C40.0044 18.3441 39.7917 18.2221 39.5283 18.1406C39.2649 18.0591 39.0147 18.0004 38.7776 17.9642C38.5406 17.928 38.2989 17.9053 38.0534 17.8963V17.5923C38.0534 17.5113 38.0007 17.4364 37.8952 17.3675C37.7899 17.2988 37.6757 17.2642 37.5528 17.2642C37.4123 17.2642 37.2937 17.2969 37.1973 17.3619C37.1006 17.4272 37.0524 17.5045 37.0524 17.5939V17.9358C36.2887 18.0432 35.6586 18.3253 35.1627 18.7819C34.6666 19.2385 34.4187 19.865 34.4187 20.6618C34.4187 20.9867 34.4758 21.283 34.5898 21.5507C34.7038 21.8186 34.8356 22.038 34.9849 22.2092C35.1341 22.3804 35.3448 22.5473 35.617 22.7096C35.889 22.8722 36.1175 22.9927 36.3018 23.0718C36.4862 23.1508 36.7364 23.2518 37.0524 23.3747V25.508C36.71 25.4467 36.3367 25.2732 35.9331 24.9878C35.5291 24.7027 35.2438 24.5598 35.0771 24.5598C34.8401 24.5598 34.6314 24.6828 34.4516 24.9285C34.2715 25.1745 34.1816 25.4203 34.1816 25.666C34.1816 26.0963 34.4647 26.4825 35.0311 26.8249C35.5974 27.1673 36.271 27.3517 37.0524 27.3779V27.7072C37.0524 27.8036 37.1006 27.887 37.1973 27.9573C37.2938 28.0275 37.4123 28.0627 37.5528 28.0627C37.6757 28.0627 37.7899 28.0252 37.8952 27.9507C38.0007 27.8761 38.0534 27.7948 38.0534 27.7072V27.3252C38.8435 27.1936 39.4733 26.882 39.9431 26.3903C40.4126 25.8987 40.6476 25.2534 40.6476 24.4545C40.6477 24.1122 40.5928 23.8006 40.4832 23.5196ZM37.1844 21.2941C36.6224 21.057 36.3415 20.7805 36.3415 20.4644C36.3415 20.087 36.6224 19.8412 37.1844 19.7269V21.2941ZM37.9218 25.4949V23.7303C38.4572 23.985 38.7251 24.2966 38.7251 24.6653C38.7251 25.0955 38.4571 25.3721 37.9218 25.4949Z" fill="url(#paint28_linear_4188_13043)"/>
<path d="M37.4144 31.7535C42.8937 31.7535 47.3356 27.7811 47.3356 22.881C47.3356 17.9809 42.8937 14.0085 37.4144 14.0085C31.935 14.0085 27.4932 17.9809 27.4932 22.881C27.4932 27.7811 31.935 31.7535 37.4144 31.7535Z" fill="url(#paint29_linear_4188_13043)"/>
</g>
<defs>
<linearGradient id="paint0_linear_4188_13043" x1="25.9127" y1="34.1648" x2="30.6143" y2="45.9091" gradientUnits="userSpaceOnUse">
<stop stop-color="#91F27F"/>
<stop offset="1" stop-color="#00B302"/>
</linearGradient>
<linearGradient id="paint1_linear_4188_13043" x1="28.9926" y1="42.2626" x2="24.7106" y2="28.1333" gradientUnits="userSpaceOnUse">
<stop stop-color="#91F27F" stop-opacity="0"/>
<stop offset="1" stop-color="#FFED82"/>
</linearGradient>
<linearGradient id="paint2_linear_4188_13043" x1="26.3799" y1="34.2331" x2="32.0471" y2="54.8063" gradientUnits="userSpaceOnUse">
<stop stop-color="#005A01" stop-opacity="0"/>
<stop offset="1" stop-color="#005A01"/>
</linearGradient>
<linearGradient id="paint3_linear_4188_13043" x1="19.6421" y1="4.94366" x2="21.4557" y2="13.649" gradientUnits="userSpaceOnUse">
<stop stop-color="#91F27F"/>
<stop offset="1" stop-color="#00B302"/>
</linearGradient>
<linearGradient id="paint4_linear_4188_13043" x1="21.2688" y1="8.97639" x2="22.1138" y2="0.974221" gradientUnits="userSpaceOnUse">
<stop stop-color="#91F27F" stop-opacity="0"/>
<stop offset="1" stop-color="#FFED82"/>
</linearGradient>
<linearGradient id="paint5_linear_4188_13043" x1="18.579" y1="3.55928" x2="26.4075" y2="29.3722" gradientUnits="userSpaceOnUse">
<stop stop-color="#005A01" stop-opacity="0"/>
<stop offset="1" stop-color="#005A01"/>
</linearGradient>
<linearGradient id="paint6_linear_4188_13043" x1="0" y1="24" x2="21.1709" y2="24" gradientUnits="userSpaceOnUse">
<stop stop-color="#E4F2FF"/>
<stop offset="1" stop-color="#B2CBFF"/>
</linearGradient>
<linearGradient id="paint7_linear_4188_13043" x1="10.5853" y1="29.8569" x2="10.5853" y2="37.7993" gradientUnits="userSpaceOnUse">
<stop stop-color="#3F3CED" stop-opacity="0"/>
<stop offset="0.2796" stop-color="#3C3DE4" stop-opacity="0.28"/>
<stop offset="0.7305" stop-color="#3541CC" stop-opacity="0.731"/>
<stop offset="1" stop-color="#2F43BB"/>
</linearGradient>
<linearGradient id="paint8_linear_4188_13043" x1="18.2317" y1="28.2207" x2="20.1486" y2="29.8662" gradientUnits="userSpaceOnUse">
<stop stop-color="#FF7044"/>
<stop offset="1" stop-color="#F82814"/>
</linearGradient>
<linearGradient id="paint9_linear_4188_13043" x1="10.5857" y1="30.8911" x2="10.5857" y2="37.0974" gradientUnits="userSpaceOnUse">
<stop stop-color="#3F3CED" stop-opacity="0"/>
<stop offset="0.2796" stop-color="#3C3DE4" stop-opacity="0.28"/>
<stop offset="0.7305" stop-color="#3541CC" stop-opacity="0.731"/>
<stop offset="1" stop-color="#2F43BB"/>
</linearGradient>
<linearGradient id="paint10_linear_4188_13043" x1="12.0663" y1="30.959" x2="12.7699" y2="34.266" gradientUnits="userSpaceOnUse">
<stop stop-color="#FF7044"/>
<stop offset="1" stop-color="#F82814"/>
</linearGradient>
<linearGradient id="paint11_linear_4188_13043" x1="5.85186" y1="17.9452" x2="21.7167" y2="34.488" gradientUnits="userSpaceOnUse">
<stop stop-color="#E4F2FF"/>
<stop offset="1" stop-color="#B2CBFF"/>
</linearGradient>
<linearGradient id="paint12_linear_4188_13043" x1="8.1206" y1="18.0433" x2="14.6554" y2="30.8664" gradientUnits="userSpaceOnUse">
<stop stop-color="#FF7044"/>
<stop offset="1" stop-color="#F82814"/>
</linearGradient>
<linearGradient id="paint13_linear_4188_13043" x1="6.63004" y1="17.7851" x2="15.5687" y2="29.3014" gradientUnits="userSpaceOnUse">
<stop stop-color="#FF7044"/>
<stop offset="1" stop-color="#F82814"/>
</linearGradient>
<linearGradient id="paint14_linear_4188_13043" x1="13.5174" y1="25.8939" x2="1.2348" y2="13.2701" gradientUnits="userSpaceOnUse">
<stop stop-color="#FF7044" stop-opacity="0"/>
<stop offset="1" stop-color="#FFA325"/>
</linearGradient>
<linearGradient id="paint15_linear_4188_13043" x1="7.0361" y1="18.8999" x2="14.9325" y2="27.7562" gradientUnits="userSpaceOnUse">
<stop stop-color="#E4F2FF"/>
<stop offset="1" stop-color="#B2CBFF"/>
</linearGradient>
<linearGradient id="paint16_linear_4188_13043" x1="0.925701" y1="27.5197" x2="3.31356" y2="31.2508" gradientUnits="userSpaceOnUse">
<stop stop-color="#FF7044"/>
<stop offset="1" stop-color="#F82814"/>
</linearGradient>
<linearGradient id="paint17_linear_4188_13043" x1="7.4821" y1="20.857" x2="11.3486" y2="29.3384" gradientUnits="userSpaceOnUse">
<stop stop-color="#FF7044"/>
<stop offset="1" stop-color="#F82814"/>
</linearGradient>
<linearGradient id="paint18_linear_4188_13043" x1="10.6151" y1="19.429" x2="14.4816" y2="27.9103" gradientUnits="userSpaceOnUse">
<stop stop-color="#FF7044"/>
<stop offset="1" stop-color="#F82814"/>
</linearGradient>
<linearGradient id="paint19_linear_4188_13043" x1="10.5583" y1="22.8409" x2="1.85463" y2="10.181" gradientUnits="userSpaceOnUse">
<stop stop-color="white" stop-opacity="0"/>
<stop offset="1" stop-color="white"/>
</linearGradient>
<linearGradient id="paint20_linear_4188_13043" x1="26.8291" y1="24" x2="47.9999" y2="24" gradientUnits="userSpaceOnUse">
<stop stop-color="#FFC738"/>
<stop offset="0.2344" stop-color="#FEC33A"/>
<stop offset="0.4454" stop-color="#FBB840"/>
<stop offset="0.6474" stop-color="#F6A649"/>
<stop offset="0.8426" stop-color="#F08D56"/>
<stop offset="1" stop-color="#E97264"/>
</linearGradient>
<linearGradient id="paint21_linear_4188_13043" x1="36.4068" y1="22.0622" x2="45.1073" y2="38.7941" gradientUnits="userSpaceOnUse">
<stop stop-color="#FCA17A" stop-opacity="0"/>
<stop offset="0.152" stop-color="#F69373" stop-opacity="0.152"/>
<stop offset="0.416" stop-color="#EF816B" stop-opacity="0.416"/>
<stop offset="0.6926" stop-color="#EA7666" stop-opacity="0.693"/>
<stop offset="1" stop-color="#E97264"/>
</linearGradient>
<linearGradient id="paint22_linear_4188_13043" x1="37.0892" y1="27.3033" x2="36.0615" y2="37.7266" gradientUnits="userSpaceOnUse">
<stop stop-color="#E97264" stop-opacity="0"/>
<stop offset="1" stop-color="#B53759"/>
</linearGradient>
<linearGradient id="paint23_linear_4188_13043" x1="35.3182" y1="27.8345" x2="32.1414" y2="33.6446" gradientUnits="userSpaceOnUse">
<stop stop-color="#E97264" stop-opacity="0"/>
<stop offset="1" stop-color="#B53759"/>
</linearGradient>
<radialGradient id="paint24_radial_4188_13043" cx="0" cy="0" r="1" gradientUnits="userSpaceOnUse" gradientTransform="translate(34.4588 16.0334) scale(19.9582 17.8426)">
<stop stop-color="#FFC738"/>
<stop offset="0.2344" stop-color="#FEC33A"/>
<stop offset="0.4454" stop-color="#FBB840"/>
<stop offset="0.6474" stop-color="#F6A649"/>
<stop offset="0.8426" stop-color="#F08D56"/>
<stop offset="1" stop-color="#E97264"/>
</radialGradient>
<radialGradient id="paint25_radial_4188_13043" cx="0" cy="0" r="1" gradientUnits="userSpaceOnUse" gradientTransform="translate(38.1037 25.0763) rotate(180) scale(13.9233 12.4474)">
<stop stop-color="#FFC738"/>
<stop offset="0.2344" stop-color="#FEC33A"/>
<stop offset="0.4454" stop-color="#FBB840"/>
<stop offset="0.6474" stop-color="#F6A649"/>
<stop offset="0.8426" stop-color="#F08D56"/>
<stop offset="1" stop-color="#E97264"/>
</radialGradient>
<radialGradient id="paint26_radial_4188_13043" cx="0" cy="0" r="1" gradientUnits="userSpaceOnUse" gradientTransform="translate(36.045 18.4778) scale(15.6751 14.0135)">
<stop stop-color="#FFC738"/>
<stop offset="0.2344" stop-color="#FEC33A"/>
<stop offset="0.4454" stop-color="#FBB840"/>
<stop offset="0.6474" stop-color="#F6A649"/>
<stop offset="0.8426" stop-color="#F08D56"/>
<stop offset="1" stop-color="#E97264"/>
</radialGradient>
<linearGradient id="paint27_linear_4188_13043" x1="42.1685" y1="26.3351" x2="29.2304" y2="19.3117" gradientUnits="userSpaceOnUse">
<stop stop-color="#E97264" stop-opacity="0"/>
<stop offset="1" stop-color="#B53759"/>
</linearGradient>
<linearGradient id="paint28_linear_4188_13043" x1="30.4555" y1="17.0684" x2="40.9809" y2="25.3289" gradientUnits="userSpaceOnUse">
<stop stop-color="#FFC738"/>
<stop offset="0.1876" stop-color="#FDBF3C"/>
<stop offset="0.4837" stop-color="#F7A848"/>
<stop offset="0.8493" stop-color="#ED835B"/>
<stop offset="1" stop-color="#E97264"/>
</linearGradient>
<linearGradient id="paint29_linear_4188_13043" x1="42.1028" y1="27.797" x2="27.0892" y2="12.0546" gradientUnits="userSpaceOnUse">
<stop stop-color="#FFD945" stop-opacity="0"/>
<stop offset="1" stop-color="#FBED21"/>
</linearGradient>
<clipPath id="clip0_4188_13043">
<rect width="48" height="48" fill="white"/>
</clipPath>
</defs>
</svg>
