<svg width="49" height="49" viewBox="0 0 49 49" fill="none" xmlns="http://www.w3.org/2000/svg">
<g clipPath="url(#clip0_4203_13077)">
<path d="M13.9372 37.1009L17.6738 35.9671C18.6051 35.6841 19.589 36.2092 19.8719 37.1405C20.1183 37.9551 19.7471 38.8101 19.0265 39.2004C20.8755 39.8846 22.8463 40.226 24.863 40.2C28.3169 40.157 31.6057 39.0323 34.3735 36.9469C36.079 35.6622 37.4895 34.0872 38.5531 32.2939C38.7487 31.9642 39.1761 31.8587 39.5029 32.059L41.3339 33.1815C41.6554 33.3786 41.7577 33.7974 41.5649 34.1214C40.2725 36.2944 38.5612 38.2032 36.4931 39.7613C33.1222 42.3002 29.1154 43.671 24.9068 43.7236C22.2807 43.7568 19.719 43.2779 17.332 42.3229C17.4282 43.1537 16.9221 43.9584 16.0959 44.2098C15.1644 44.492 14.1805 43.967 13.8975 43.0357L12.7628 39.2985C12.7263 39.2077 12.493 38.5964 12.8215 37.9524C13.1667 37.2759 13.8483 37.1197 13.9372 37.1009Z" fill="url(#paint0_linear_4203_13077)"/>
<path d="M14.1073 37.6252L17.8334 36.4939C18.3187 36.3465 18.849 36.5193 19.1532 36.924C19.2382 37.037 19.3028 37.1635 19.3443 37.3004C19.5099 37.8487 19.2663 38.4437 18.7641 38.7157L17.6942 39.2946L18.8352 39.717C20.7592 40.4291 22.7897 40.7777 24.8698 40.7516C28.4415 40.7065 31.8424 39.5429 34.7052 37.3871C36.6322 35.9351 38.1852 34.1419 39.3224 32.054L39.3996 31.9957L41.4328 33.2421C40.1421 35.6034 38.3594 37.6659 36.162 39.3209C32.8845 41.7898 28.9907 43.1216 24.9 43.173C22.3514 43.205 19.8741 42.7471 17.537 41.8118L16.6783 41.4678L16.7845 42.3868C16.8523 42.9673 16.4951 43.5125 15.9351 43.6826C15.4506 43.8298 14.9202 43.657 14.6154 43.2532C14.5304 43.1403 14.4665 43.0128 14.425 42.8759L13.2954 39.1573C13.2621 39.0706 13.1364 38.7138 13.2956 38.3162C13.5094 37.7823 14.0507 37.6391 14.1073 37.6252Z" fill="url(#paint1_linear_4203_13077)"/>
<path d="M12.8042 38.1644C12.9593 38.2812 13.116 38.3952 13.2744 38.5064C19.8498 43.1414 28.9218 43.2473 35.6938 38.1464C37.7198 36.6206 39.3546 34.7681 40.5794 32.718L41.3356 33.1815C41.6571 33.3786 41.7594 33.7974 41.5667 34.1214C40.2743 36.2944 38.5629 38.2032 36.4949 39.7613C33.124 42.3002 29.1172 43.671 24.9085 43.7236C22.2825 43.7568 19.7208 43.2779 17.3338 42.3229C17.4299 43.1537 16.9239 43.9584 16.0976 44.2098C15.1661 44.492 14.1822 43.967 13.8993 43.0357L12.7645 39.2985C12.7189 39.1629 12.6616 38.9341 12.6852 38.6507C12.7023 38.4447 12.7564 38.2786 12.8042 38.1644Z" fill="url(#paint2_linear_4203_13077)"/>
<path d="M34.5631 11.1957L30.8265 12.3295C29.8952 12.6125 28.9113 12.0875 28.6283 11.1562C28.382 10.3415 28.7531 9.48661 29.4738 9.09621C27.6248 8.41207 25.654 8.07061 23.6373 8.09659C20.1833 8.1396 16.8946 9.2643 14.1268 11.3498C12.4213 12.6345 11.0108 14.2094 9.9472 16.0028C9.75163 16.3324 9.32414 16.438 8.99737 16.2376L7.16621 15.1152C6.84471 14.9181 6.7424 14.4993 6.93516 14.1753C8.22758 12.0023 9.93892 10.0935 12.007 8.53546C15.3779 5.99654 19.3847 4.62572 23.5933 4.5731C26.2194 4.53988 28.7811 5.01885 31.1681 5.97386C31.0719 5.14299 31.578 4.33828 32.4042 4.08689C33.3357 3.80473 34.3196 4.32972 34.6025 5.26101L35.7373 8.99823C35.7672 9.10477 35.964 9.85489 35.4935 10.5259C35.1722 10.9837 34.7214 11.1466 34.5631 11.1957Z" fill="url(#paint3_linear_4203_13077)"/>
<path d="M34.3919 10.6717L30.6657 11.803C30.1805 11.9504 29.6501 11.7776 29.3459 11.3729C29.2609 11.2599 29.1964 11.1333 29.1549 10.9965C28.9892 10.4482 29.2329 9.85314 29.7351 9.58114L30.805 9.00223L29.664 8.57992C27.7399 7.86773 25.7095 7.51921 23.6293 7.54528C20.0577 7.59037 16.6568 8.75394 13.7939 10.9098C11.867 12.3618 10.3139 14.155 9.17681 16.2429L9.09954 16.3011L7.06641 15.0546C8.35704 12.6934 10.1398 10.6308 12.3372 8.97587C15.6146 6.50698 19.5085 5.17521 23.5992 5.12383C26.1478 5.09173 28.6251 5.54971 30.9621 6.48495L31.8209 6.82896L31.7147 5.90999C31.6468 5.32947 32.0041 4.78425 32.5641 4.61418C33.0486 4.46698 33.579 4.63978 33.8837 5.04354C33.9688 5.15648 34.0327 5.28401 34.0742 5.42086L35.2037 9.13945C35.2444 9.23987 35.3543 9.54933 35.2409 9.90594C35.0539 10.4937 34.4345 10.661 34.3919 10.6717Z" fill="url(#paint4_linear_4203_13077)"/>
<path d="M35.6975 10.1323C35.5425 10.0155 35.3858 9.90148 35.2274 9.79033C28.652 5.15541 19.58 5.04953 12.8079 10.1504C10.7819 11.6762 9.14711 13.5287 7.92236 15.5788L7.16621 15.1152C6.84471 14.9181 6.7424 14.4993 6.93516 14.1753C8.22758 12.0023 9.93892 10.0935 12.007 8.53546C15.3779 5.99654 19.3847 4.62572 23.5933 4.5731C26.2194 4.53988 28.7811 5.01885 31.1681 5.97386C31.0719 5.14299 31.578 4.33828 32.4042 4.08689C33.3357 3.80473 34.3196 4.32972 34.6026 5.26101L35.7373 8.99823C35.7822 9.16576 35.8271 9.41998 35.7915 9.72416C35.7729 9.88407 35.7362 10.0215 35.6975 10.1323Z" fill="url(#paint5_linear_4203_13077)"/>
<path d="M21.4209 23.0294C21.4209 17.8013 16.6816 13.563 10.8355 13.563C4.98939 13.563 0.25 17.8013 0.25 23.0294V25.2673C0.25 30.4956 4.98929 34.7338 10.8354 34.7338C16.6815 34.7338 21.4208 30.4955 21.4208 25.2673C21.4209 25.26 21.4209 23.0367 21.4209 23.0294Z" fill="url(#paint6_linear_4203_13077)"/>
<path d="M19.5534 17.6598C17.644 15.1851 14.4517 13.563 10.8353 13.563C7.21893 13.563 4.02674 15.1852 2.11719 17.6598V30.6369C4.02665 33.1116 7.21893 34.7338 10.8353 34.7338C14.4517 34.7338 17.644 33.1116 19.5534 30.6369V17.6598Z" fill="url(#paint7_linear_4203_13077)"/>
<path d="M18.0039 32.2319C19.2785 31.1821 20.2641 29.8562 20.8422 28.3601V26.1222L18.0039 29.994V32.2319Z" fill="url(#paint8_linear_4203_13077)"/>
<path d="M4.62695 32.9346C6.37114 34.0661 8.51608 34.7339 10.8357 34.7339C13.1553 34.7339 15.3003 34.0661 17.0445 32.9346V15.3623C15.3003 14.2308 13.1553 13.563 10.8357 13.563C8.51608 13.563 6.37114 14.2308 4.62695 15.3623V32.9346Z" fill="url(#paint9_linear_4203_13077)"/>
<path d="M8.42969 34.4883C9.2023 34.6489 10.0074 34.7339 10.8347 34.7339C11.662 34.7339 12.467 34.6489 13.2397 34.4883V13.8085C12.4671 13.6479 11.662 13.563 10.8347 13.563C10.0074 13.563 9.20239 13.6479 8.42969 13.8085V34.4883Z" fill="url(#paint10_linear_4203_13077)"/>
<path d="M10.8354 32.4959C16.6816 32.4959 21.4208 28.2576 21.4208 23.0294C21.4208 17.8012 16.6816 13.563 10.8354 13.563C4.98925 13.563 0.25 17.8012 0.25 23.0294C0.25 28.2576 4.98925 32.4959 10.8354 32.4959Z" fill="url(#paint11_linear_4203_13077)"/>
<path d="M8.42995 13.8083L8.42986 18.4853L3.51899 16.1879C2.2483 17.2749 1.28021 18.6422 0.738281 20.1787L5.98929 22.6306L0.827881 26.1221C1.40595 27.6182 2.39155 28.9441 3.66619 29.9939L8.42986 26.7758V32.2502C9.20247 32.4108 10.0076 32.4958 10.8348 32.4958C11.6621 32.4958 12.4671 32.4108 13.2398 32.2502V26.7758L18.0035 29.9939C19.2781 28.9441 20.2637 27.6182 20.8418 26.1221L15.6804 22.6306L20.9314 20.1787C20.3895 18.6422 19.4214 17.2749 18.1507 16.1879L13.2397 18.4855V13.8085H13.2396C12.61 13.6693 11.8044 13.5485 10.8663 13.5458C9.89988 13.543 9.07202 13.6664 8.42995 13.8083Z" fill="url(#paint12_linear_4203_13077)"/>
<path d="M10.8354 29.8986C15.0776 29.8986 18.5166 26.8231 18.5166 23.0294C18.5166 19.2357 15.0776 16.1602 10.8354 16.1602C6.59326 16.1602 3.1543 19.2357 3.1543 23.0294C3.1543 26.8231 6.59326 29.8986 10.8354 29.8986Z" fill="url(#paint13_linear_4203_13077)"/>
<path d="M17.3302 16.5723L13.2408 18.4855V14.6129C12.4716 14.4377 11.6659 14.3443 10.8358 14.3443C10.0057 14.3443 9.19991 14.4377 8.43078 14.6129V18.4855L4.34137 16.5723C3.03097 17.6269 2.04367 18.9961 1.52734 20.5467L5.99021 22.6307L1.56508 25.6241C2.09591 27.1426 3.08066 28.4814 4.37685 29.5146L8.43087 26.7758V31.4459C9.2 31.6211 10.0057 31.7145 10.8359 31.7145C11.6661 31.7145 12.4717 31.6211 13.2409 31.4459V26.7758L17.2949 29.5146C18.5911 28.4814 19.5758 27.1425 20.1066 25.6241L15.6815 22.6307L20.1443 20.5467C19.6278 18.9961 18.6405 17.6269 17.3302 16.5723Z" fill="url(#paint14_linear_4203_13077)"/>
<path d="M10.8356 29.1266C14.601 29.1266 17.6535 26.3968 17.6535 23.0294C17.6535 19.662 14.601 16.9322 10.8356 16.9322C7.07009 16.9322 4.01758 19.662 4.01758 23.0294C4.01758 26.3968 7.07009 29.1266 10.8356 29.1266Z" fill="url(#paint15_linear_4203_13077)"/>
<path d="M0.828125 28.3601C1.4062 29.8562 2.3918 31.1821 3.66643 32.2319V29.994L0.828125 26.1222V28.3601Z" fill="url(#paint16_linear_4203_13077)"/>
<path d="M7.01172 20.9576C7.01172 20.7409 7.09887 20.5815 7.27355 20.4791L8.46518 19.7568C8.53134 19.7147 8.61868 19.6937 8.72701 19.6937C8.88344 19.6937 9.0264 19.7358 9.15581 19.8201C9.28513 19.9044 9.34988 20.0096 9.34988 20.136V25.8777C9.34988 26.0162 9.28061 26.1229 9.14226 26.1981C9.00372 26.2734 8.83826 26.311 8.64579 26.311C8.45313 26.311 8.28758 26.2734 8.14922 26.1981C8.01068 26.1229 7.9416 26.0162 7.9416 25.8777V21.2826L7.67977 21.445C7.60758 21.4933 7.53219 21.5172 7.45407 21.5172C7.32767 21.5172 7.22226 21.4601 7.13812 21.3456C7.05379 21.2315 7.01172 21.1019 7.01172 20.9576Z" fill="url(#paint17_linear_4203_13077)"/>
<path d="M10.2266 24.2346V21.8422C10.2266 21.108 10.4282 20.5693 10.8315 20.2262C11.2347 19.8832 11.7704 19.7117 12.4384 19.7117C13.1124 19.7117 13.6511 19.8832 14.0543 20.2262C14.4575 20.5693 14.6592 21.108 14.6592 21.8422V24.2346C14.6592 24.969 14.4575 25.5075 14.0543 25.8506C13.651 26.1936 13.1124 26.3651 12.4384 26.3651C11.7704 26.3651 11.2347 26.1936 10.8315 25.8506C10.4281 25.5075 10.2266 24.969 10.2266 24.2346ZM11.6348 24.2346C11.6348 24.8365 11.9026 25.1374 12.4383 25.1374C12.98 25.1374 13.2508 24.8365 13.2508 24.2346V21.8422C13.2508 21.2404 12.98 20.9394 12.4383 20.9394C11.9026 20.9394 11.6348 21.2404 11.6348 21.8422V24.2346Z" fill="url(#paint18_linear_4203_13077)"/>
<path d="M10.8367 31.7145C16.2004 31.7145 20.5484 27.826 20.5484 23.0294C20.5484 18.2327 16.2004 14.3443 10.8367 14.3443C5.47308 14.3443 1.125 18.2327 1.125 23.0294C1.125 27.826 5.47308 31.7145 10.8367 31.7145Z" fill="url(#paint19_linear_4203_13077)"/>
<path d="M48.2509 23.0294C48.2509 17.8013 43.5116 13.563 37.6655 13.563C31.8193 13.563 27.0801 17.8013 27.0801 23.0294V25.2673C27.0801 30.4955 31.8194 34.7338 37.6655 34.7338C43.5116 34.7338 48.2509 30.4955 48.2509 25.2673C48.2509 25.26 48.2509 23.0367 48.2509 23.0294Z" fill="url(#paint20_linear_4203_13077)"/>
<path d="M46.3834 17.6598C44.4739 15.1851 41.2818 13.563 37.6654 13.563C34.049 13.563 30.8567 15.1852 28.9473 17.6598V30.6369C30.8567 33.1117 34.0489 34.7338 37.6654 34.7338C41.2818 34.7338 44.4739 33.1116 46.3834 30.6369V17.6598Z" fill="url(#paint21_linear_4203_13077)"/>
<path d="M31.4551 32.9345C33.1993 34.0661 35.3442 34.7339 37.6638 34.7339C39.9835 34.7339 42.1284 34.0661 43.8726 32.9345V15.3623C42.1284 14.2307 39.9835 13.563 37.6638 13.563C35.3442 13.563 33.1993 14.2307 31.4551 15.3623V32.9345Z" fill="url(#paint22_linear_4203_13077)"/>
<path d="M35.2598 34.4882C36.0324 34.6488 36.8375 34.7338 37.6648 34.7338C38.492 34.7338 39.297 34.6488 40.0697 34.4882V13.8085C39.2971 13.6479 38.492 13.563 37.6648 13.563C36.8375 13.563 36.0325 13.6479 35.2598 13.8085V34.4882Z" fill="url(#paint23_linear_4203_13077)"/>
<path d="M37.6655 32.4959C43.5117 32.4959 48.2509 28.2576 48.2509 23.0294C48.2509 17.8012 43.5117 13.563 37.6655 13.563C31.8193 13.563 27.0801 17.8012 27.0801 23.0294C27.0801 28.2576 31.8193 32.4959 37.6655 32.4959Z" fill="url(#paint24_radial_4203_13077)"/>
<path d="M37.6638 30.9852C42.577 30.9852 46.56 27.4233 46.56 23.0294C46.56 18.6356 42.577 15.0736 37.6638 15.0736C32.7505 15.0736 28.7676 18.6356 28.7676 23.0294C28.7676 27.4233 32.7505 30.9852 37.6638 30.9852Z" fill="url(#paint25_radial_4203_13077)"/>
<path d="M37.665 30.2317C42.1129 30.2317 45.7186 27.0071 45.7186 23.0294C45.7186 19.0517 42.1129 15.8271 37.665 15.8271C33.2171 15.8271 29.6113 19.0517 29.6113 23.0294C29.6113 27.0071 33.2171 30.2317 37.665 30.2317Z" fill="url(#paint26_radial_4203_13077)"/>
<path d="M47.7294 25.9677L40.417 18.6552C40.2544 18.4924 40.0417 18.3704 39.7783 18.2889C39.5149 18.2074 39.2647 18.1488 39.0276 18.1125C38.9132 18.095 38.7978 18.0809 38.6813 18.0698C38.6804 18.0692 38.6795 18.0688 38.6785 18.0682L38.1452 17.5158C38.0399 17.4471 37.9257 17.4125 37.8028 17.4125C37.6623 17.4125 37.5437 17.4452 37.4473 17.5103C37.3506 17.5755 37.3024 17.6529 37.3024 17.7422V18.0841C36.5387 18.1915 35.9086 18.4737 35.4127 18.9302C34.9166 19.3868 34.6687 20.0133 34.6687 20.8101C34.6687 21.135 34.7258 21.4313 34.8398 21.6991C34.9538 21.9669 35.0856 22.1863 35.2349 22.3575L37.3024 24.4269V25.6563C36.96 25.5951 36.5867 25.4215 36.1831 25.1361C35.7791 24.851 35.4938 24.7081 35.3271 24.7081C35.0901 24.7081 34.8814 24.8311 34.7016 25.0769C34.5215 25.3228 34.4316 25.5686 34.4316 25.8144C34.4316 26.1345 34.5887 26.4304 34.9024 26.7019L40.3811 32.1806C43.8521 31.3588 46.6233 29 47.7294 25.9677Z" fill="url(#paint27_linear_4203_13077)"/>
<path d="M40.7332 23.6679C40.6233 23.3871 40.4916 23.1543 40.3381 22.9699C40.1843 22.7856 39.9803 22.61 39.7257 22.4432C39.471 22.2765 39.2427 22.1491 39.0409 22.0612C38.8389 21.9736 38.5931 21.8725 38.3035 21.7584V19.8357C38.6195 19.8621 38.9244 19.9499 39.2187 20.0991C39.5127 20.2484 39.7211 20.323 39.8442 20.323C40.0987 20.323 40.2985 20.1981 40.4434 19.9483C40.5883 19.6985 40.6606 19.4573 40.6606 19.2252C40.6606 19.0081 40.5794 18.8182 40.417 18.6552C40.2544 18.4924 40.0417 18.3704 39.7783 18.2889C39.5149 18.2074 39.2647 18.1488 39.0276 18.1125C38.7906 18.0763 38.5489 18.0536 38.3034 18.0446V17.7407C38.3034 17.6596 38.2507 17.5847 38.1452 17.5158C38.0399 17.4471 37.9257 17.4125 37.8028 17.4125C37.6623 17.4125 37.5437 17.4452 37.4473 17.5103C37.3506 17.5755 37.3024 17.6529 37.3024 17.7422V18.0841C36.5387 18.1915 35.9086 18.4737 35.4127 18.9302C34.9166 19.3868 34.6687 20.0133 34.6687 20.8101C34.6687 21.135 34.7258 21.4313 34.8398 21.6991C34.9538 21.9669 35.0856 22.1863 35.2349 22.3575C35.3841 22.5287 35.5948 22.6956 35.867 22.8579C36.139 23.0205 36.3675 23.141 36.5518 23.2201C36.7362 23.2992 36.9864 23.4001 37.3024 23.523V25.6563C36.96 25.5951 36.5867 25.4215 36.1831 25.1361C35.7791 24.851 35.4938 24.7081 35.3271 24.7081C35.0901 24.7081 34.8814 24.8311 34.7016 25.0769C34.5215 25.3228 34.4316 25.5686 34.4316 25.8144C34.4316 26.2447 34.7147 26.6308 35.2811 26.9732C35.8474 27.3156 36.521 27.5 37.3024 27.5263V27.8555C37.3024 27.952 37.3506 28.0353 37.4473 28.1057C37.5438 28.1758 37.6623 28.211 37.8028 28.211C37.9257 28.211 38.0399 28.1735 38.1452 28.0991C38.2507 28.0244 38.3034 27.9431 38.3034 27.8555V27.4736C39.0935 27.3419 39.7233 27.0304 40.1931 26.5386C40.6626 26.047 40.8976 25.4017 40.8976 24.6028C40.8977 24.2605 40.8428 23.9489 40.7332 23.6679ZM37.4344 21.4424C36.8724 21.2053 36.5915 20.9288 36.5915 20.6128C36.5915 20.2353 36.8724 19.9895 37.4344 19.8753V21.4424ZM38.1718 25.6433V23.8786C38.7072 24.1333 38.9751 24.4449 38.9751 24.8136C38.9751 25.2438 38.7071 25.5204 38.1718 25.6433Z" fill="url(#paint28_linear_4203_13077)"/>
<path d="M37.6654 31.9019C43.1447 31.9019 47.5866 27.9296 47.5866 23.0294C47.5866 18.1293 43.1447 14.157 37.6654 14.157C32.186 14.157 27.7441 18.1293 27.7441 23.0294C27.7441 27.9296 32.186 31.9019 37.6654 31.9019Z" fill="url(#paint29_linear_4203_13077)"/>
</g>
<defs>
<linearGradient id="paint0_linear_4203_13077" x1="26.1627" y1="34.3132" x2="30.8643" y2="46.0575" gradientUnits="userSpaceOnUse">
<stop stopColor="#91F27F"/>
<stop offset="1" stopColor="#00B302"/>
</linearGradient>
<linearGradient id="paint1_linear_4203_13077" x1="29.2426" y1="42.4109" x2="24.9606" y2="28.2816" gradientUnits="userSpaceOnUse">
<stop stopColor="#91F27F" stop-opacity="0"/>
<stop offset="1" stopColor="#FFED82"/>
</linearGradient>
<linearGradient id="paint2_linear_4203_13077" x1="26.6309" y1="34.3815" x2="32.298" y2="54.9547" gradientUnits="userSpaceOnUse">
<stop stopColor="#005A01" stop-opacity="0"/>
<stop offset="1" stopColor="#005A01"/>
</linearGradient>
<linearGradient id="paint3_linear_4203_13077" x1="19.8921" y1="5.09198" x2="21.7057" y2="13.7973" gradientUnits="userSpaceOnUse">
<stop stopColor="#91F27F"/>
<stop offset="1" stopColor="#00B302"/>
</linearGradient>
<linearGradient id="paint4_linear_4203_13077" x1="21.5188" y1="9.12458" x2="22.3638" y2="1.12241" gradientUnits="userSpaceOnUse">
<stop stopColor="#91F27F" stop-opacity="0"/>
<stop offset="1" stopColor="#FFED82"/>
</linearGradient>
<linearGradient id="paint5_linear_4203_13077" x1="18.829" y1="3.7076" x2="26.6575" y2="29.5205" gradientUnits="userSpaceOnUse">
<stop stopColor="#005A01" stop-opacity="0"/>
<stop offset="1" stopColor="#005A01"/>
</linearGradient>
<linearGradient id="paint6_linear_4203_13077" x1="0.25" y1="24.1484" x2="21.4209" y2="24.1484" gradientUnits="userSpaceOnUse">
<stop stopColor="#E4F2FF"/>
<stop offset="1" stopColor="#B2CBFF"/>
</linearGradient>
<linearGradient id="paint7_linear_4203_13077" x1="10.8353" y1="30.0053" x2="10.8353" y2="37.9477" gradientUnits="userSpaceOnUse">
<stop stopColor="#3F3CED" stop-opacity="0"/>
<stop offset="0.2796" stopColor="#3C3DE4" stop-opacity="0.28"/>
<stop offset="0.7305" stopColor="#3541CC" stop-opacity="0.731"/>
<stop offset="1" stopColor="#2F43BB"/>
</linearGradient>
<linearGradient id="paint8_linear_4203_13077" x1="18.4817" y1="28.3691" x2="20.3986" y2="30.0145" gradientUnits="userSpaceOnUse">
<stop stopColor="#FF7044"/>
<stop offset="1" stopColor="#F82814"/>
</linearGradient>
<linearGradient id="paint9_linear_4203_13077" x1="10.8357" y1="31.0395" x2="10.8357" y2="37.2458" gradientUnits="userSpaceOnUse">
<stop stopColor="#3F3CED" stop-opacity="0"/>
<stop offset="0.2796" stopColor="#3C3DE4" stop-opacity="0.28"/>
<stop offset="0.7305" stopColor="#3541CC" stop-opacity="0.731"/>
<stop offset="1" stopColor="#2F43BB"/>
</linearGradient>
<linearGradient id="paint10_linear_4203_13077" x1="12.3153" y1="31.1074" x2="13.019" y2="34.4144" gradientUnits="userSpaceOnUse">
<stop stopColor="#FF7044"/>
<stop offset="1" stopColor="#F82814"/>
</linearGradient>
<linearGradient id="paint11_linear_4203_13077" x1="6.10186" y1="18.0936" x2="21.9667" y2="34.6364" gradientUnits="userSpaceOnUse">
<stop stopColor="#E4F2FF"/>
<stop offset="1" stopColor="#B2CBFF"/>
</linearGradient>
<linearGradient id="paint12_linear_4203_13077" x1="8.36962" y1="18.1917" x2="14.9044" y2="31.0147" gradientUnits="userSpaceOnUse">
<stop stopColor="#FF7044"/>
<stop offset="1" stopColor="#F82814"/>
</linearGradient>
<linearGradient id="paint13_linear_4203_13077" x1="6.88004" y1="17.9334" x2="15.8187" y2="29.4496" gradientUnits="userSpaceOnUse">
<stop stopColor="#FF7044"/>
<stop offset="1" stopColor="#F82814"/>
</linearGradient>
<linearGradient id="paint14_linear_4203_13077" x1="13.7674" y1="26.0424" x2="1.4848" y2="13.4186" gradientUnits="userSpaceOnUse">
<stop stopColor="#FF7044" stop-opacity="0"/>
<stop offset="1" stopColor="#FFA325"/>
</linearGradient>
<linearGradient id="paint15_linear_4203_13077" x1="7.2861" y1="19.0484" x2="15.1825" y2="27.9047" gradientUnits="userSpaceOnUse">
<stop stopColor="#E4F2FF"/>
<stop offset="1" stopColor="#B2CBFF"/>
</linearGradient>
<linearGradient id="paint16_linear_4203_13077" x1="1.1757" y1="27.668" x2="3.56356" y2="31.3991" gradientUnits="userSpaceOnUse">
<stop stopColor="#FF7044"/>
<stop offset="1" stopColor="#F82814"/>
</linearGradient>
<linearGradient id="paint17_linear_4203_13077" x1="7.7321" y1="21.0053" x2="11.5986" y2="29.4866" gradientUnits="userSpaceOnUse">
<stop stopColor="#FF7044"/>
<stop offset="1" stopColor="#F82814"/>
</linearGradient>
<linearGradient id="paint18_linear_4203_13077" x1="10.8651" y1="19.5775" x2="14.7316" y2="28.0588" gradientUnits="userSpaceOnUse">
<stop stopColor="#FF7044"/>
<stop offset="1" stopColor="#F82814"/>
</linearGradient>
<linearGradient id="paint19_linear_4203_13077" x1="10.8092" y1="22.9894" x2="2.10561" y2="10.3295" gradientUnits="userSpaceOnUse">
<stop stopColor="white" stop-opacity="0"/>
<stop offset="1" stopColor="white"/>
</linearGradient>
<linearGradient id="paint20_linear_4203_13077" x1="27.0801" y1="24.1484" x2="48.2509" y2="24.1484" gradientUnits="userSpaceOnUse">
<stop stopColor="#FFC738"/>
<stop offset="0.2344" stopColor="#FEC33A"/>
<stop offset="0.4454" stopColor="#FBB840"/>
<stop offset="0.6474" stopColor="#F6A649"/>
<stop offset="0.8426" stopColor="#F08D56"/>
<stop offset="1" stopColor="#E97264"/>
</linearGradient>
<linearGradient id="paint21_linear_4203_13077" x1="36.6578" y1="22.2106" x2="45.3583" y2="38.9425" gradientUnits="userSpaceOnUse">
<stop stopColor="#FCA17A" stop-opacity="0"/>
<stop offset="0.152" stopColor="#F69373" stop-opacity="0.152"/>
<stop offset="0.416" stopColor="#EF816B" stop-opacity="0.416"/>
<stop offset="0.6926" stopColor="#EA7666" stop-opacity="0.693"/>
<stop offset="1" stopColor="#E97264"/>
</linearGradient>
<linearGradient id="paint22_linear_4203_13077" x1="37.3382" y1="27.4517" x2="36.3105" y2="37.875" gradientUnits="userSpaceOnUse">
<stop stopColor="#E97264" stop-opacity="0"/>
<stop offset="1" stopColor="#B53759"/>
</linearGradient>
<linearGradient id="paint23_linear_4203_13077" x1="35.5682" y1="27.9829" x2="32.3914" y2="33.793" gradientUnits="userSpaceOnUse">
<stop stopColor="#E97264" stop-opacity="0"/>
<stop offset="1" stopColor="#B53759"/>
</linearGradient>
<radialGradient id="paint24_radial_4203_13077" cx="0" cy="0" r="1" gradientUnits="userSpaceOnUse" gradientTransform="translate(34.7098 16.1818) scale(19.9582 17.8426)">
<stop stopColor="#FFC738"/>
<stop offset="0.2344" stopColor="#FEC33A"/>
<stop offset="0.4454" stopColor="#FBB840"/>
<stop offset="0.6474" stopColor="#F6A649"/>
<stop offset="0.8426" stopColor="#F08D56"/>
<stop offset="1" stopColor="#E97264"/>
</radialGradient>
<radialGradient id="paint25_radial_4203_13077" cx="0" cy="0" r="1" gradientUnits="userSpaceOnUse" gradientTransform="translate(38.3527 25.2246) rotate(180) scale(13.9233 12.4474)">
<stop stopColor="#FFC738"/>
<stop offset="0.2344" stopColor="#FEC33A"/>
<stop offset="0.4454" stopColor="#FBB840"/>
<stop offset="0.6474" stopColor="#F6A649"/>
<stop offset="0.8426" stopColor="#F08D56"/>
<stop offset="1" stopColor="#E97264"/>
</radialGradient>
<radialGradient id="paint26_radial_4203_13077" cx="0" cy="0" r="1" gradientUnits="userSpaceOnUse" gradientTransform="translate(36.295 18.6262) scale(15.6751 14.0135)">
<stop stopColor="#FFC738"/>
<stop offset="0.2344" stopColor="#FEC33A"/>
<stop offset="0.4454" stopColor="#FBB840"/>
<stop offset="0.6474" stopColor="#F6A649"/>
<stop offset="0.8426" stopColor="#F08D56"/>
<stop offset="1" stopColor="#E97264"/>
</radialGradient>
<linearGradient id="paint27_linear_4203_13077" x1="42.4185" y1="26.4834" x2="29.4804" y2="19.46" gradientUnits="userSpaceOnUse">
<stop stopColor="#E97264" stop-opacity="0"/>
<stop offset="1" stopColor="#B53759"/>
</linearGradient>
<linearGradient id="paint28_linear_4203_13077" x1="30.7055" y1="17.2167" x2="41.2309" y2="25.4772" gradientUnits="userSpaceOnUse">
<stop stopColor="#FFC738"/>
<stop offset="0.1876" stopColor="#FDBF3C"/>
<stop offset="0.4837" stopColor="#F7A848"/>
<stop offset="0.8493" stopColor="#ED835B"/>
<stop offset="1" stopColor="#E97264"/>
</linearGradient>
<linearGradient id="paint29_linear_4203_13077" x1="42.3537" y1="27.9454" x2="27.3402" y2="12.203" gradientUnits="userSpaceOnUse">
<stop stopColor="#FFD945" stop-opacity="0"/>
<stop offset="1" stopColor="#FBED21"/>
</linearGradient>
<clipPath id="clip0_4203_13077">
<rect width="48" height="48" fill="white" transform="translate(0.25 0.148376)"/>
</clipPath>
</defs>
</svg>
