<svg width="33" height="32" viewBox="0 0 33 32" fill="none" xmlns="http://www.w3.org/2000/svg">
<g clip-path="url(#clip0_4299_24260)">
<path d="M9.35833 8.428C7.82566 5.05667 9.93233 2.51333 12.0483 1.67067V1.676C12.0743 1.34933 12.117 1.05533 12.1617 0.808C12.2477 0.338 12.6603 0 13.139 0H19.4103C23.3123 0 25.873 4.55067 24.4237 8.53467L23.433 11.2593H10.6457L9.35899 8.42867L9.35833 8.428Z" fill="#0D3B8D"/>
<path d="M11.6861 8.68329C10.4968 6.06796 10.6641 3.76463 11.5295 1.91663C9.61148 2.94129 7.95148 5.33396 9.35814 8.42796L10.6448 11.2586H12.8568L11.6861 8.68329Z" fill="#00286F"/>
<path d="M26.1666 32H7.49994C6.50794 32 5.57394 31.5613 4.93861 30.796C4.30194 30.03 4.04194 29.0293 4.22461 28.0506L5.17194 23.0033C5.49927 21.238 6.78661 19.8426 8.52994 19.3633L13.1519 18.104C15.5593 17.4473 18.1066 17.4473 20.5153 18.104L25.1359 19.3633H25.1373C26.8806 19.8426 28.1679 21.238 28.4959 23.0046L29.4419 28.05C29.6246 29.0286 29.3653 30.0293 28.7286 30.796C28.0933 31.5613 27.1586 32 26.1666 32Z" fill="#0588E2"/>
<path d="M28.1668 30H9.50017C8.50817 30 7.57417 29.5614 6.93883 28.796C6.30217 28.03 6.04217 27.0294 6.22483 26.0507L7.17217 21.0034C7.2555 20.5547 7.4015 20.1307 7.60083 19.7394C6.3415 20.3934 5.43817 21.572 5.17217 23.0034L4.22483 28.0507C4.04283 29.0287 4.30217 30.0294 4.93883 30.796C5.57417 31.5614 6.50817 32 7.50017 32H26.1668C27.1588 32 28.0928 31.5614 28.7282 30.796C28.9782 30.4954 29.1675 30.1574 29.2975 29.8C28.9395 29.9294 28.5582 30 28.1668 30Z" fill="#0075D3"/>
<path d="M16.167 21.3334H17.5003V32H16.167V21.3334Z" fill="#0075D3"/>
<path d="M16.167 30H17.5003V32H16.167V30Z" fill="#005CCC"/>
<path d="M12.1667 26.6667H10.1667C9.798 26.6667 9.5 26.368 9.5 26C9.5 25.632 9.798 25.3334 10.1667 25.3334H12.1667C12.5353 25.3334 12.8333 25.632 12.8333 26C12.8333 26.368 12.5353 26.6667 12.1667 26.6667Z" fill="#EFF3F9"/>
<path d="M15.5002 17.3334H18.1668C20.7442 17.3334 22.8335 19.4227 22.8335 22C22.8335 22.7367 22.2368 23.3334 21.5002 23.3334H12.1668C11.4302 23.3334 10.8335 22.7367 10.8335 22C10.8335 19.4227 12.9228 17.3334 15.5002 17.3334Z" fill="#47CAF0"/>
<path d="M13.5 16.0266V19.9999C13.5 21.8406 14.9927 23.3333 16.8333 23.3333C18.674 23.3333 20.1667 21.8406 20.1667 19.9999V16.0266H13.5Z" fill="#FFCDB4"/>
<path d="M13.5 20C13.5 20.218 13.524 20.43 13.564 20.636C13.764 20.65 13.9633 20.6667 14.1667 20.6667C16.4973 20.6667 18.6093 19.742 20.1667 18.2447V16.026H13.5V20Z" fill="#F6A28D"/>
<path d="M22.8342 16H19.5002C19.1315 16 18.8335 15.7014 18.8335 15.3334C18.8335 14.9654 19.1315 14.6667 19.5002 14.6667H22.8342C23.2022 14.6667 23.5008 14.3674 23.5008 14V12C23.5008 11.632 23.7988 11.3334 24.1675 11.3334C24.5362 11.3334 24.8342 11.632 24.8342 12V14C24.8342 15.1027 23.9368 16 22.8342 16Z" fill="#AFB4C2"/>
<path d="M23.5 13.3333H22.1667C21.798 13.3333 21.5 13.0347 21.5 12.6667V8.66667C21.5 8.29867 21.798 8 22.1667 8H23.5C24.6027 8 25.5 8.89733 25.5 10V11.3333C25.5 12.436 24.6027 13.3333 23.5 13.3333Z" fill="#0075D3"/>
<path d="M8.16699 11.3333V10C8.16699 8.89733 9.06433 8 10.167 8H11.5003C11.869 8 12.167 8.29867 12.167 8.66667V12.6667C12.167 13.0347 11.869 13.3333 11.5003 13.3333H10.167C9.06433 13.3333 8.16699 12.436 8.16699 11.3333Z" fill="#0075D3"/>
<path d="M23.5 12H22.1667C21.798 12 21.5 11.7013 21.5 11.3333V12.6667C21.5 13.0347 21.798 13.3333 22.1667 13.3333H23.5C24.6027 13.3333 25.5 12.436 25.5 11.3333V10C25.5 11.1027 24.6027 12 23.5 12Z" fill="#005CCC"/>
<path d="M11.5003 12H10.167C9.06433 12 8.16699 11.1027 8.16699 10V11.3333C8.16699 12.436 9.06433 13.3333 10.167 13.3333H11.5003C11.869 13.3333 12.167 13.0347 12.167 12.6667V11.3333C12.167 11.7013 11.869 12 11.5003 12Z" fill="#005CCC"/>
<path d="M10.8335 13.3333V8.66667C10.8335 7.194 12.0275 6 13.5002 6H20.1668C21.6395 6 22.8335 7.194 22.8335 8.66667V13.3333C22.8335 14.614 22.3248 15.842 21.4195 16.7473L20.2482 17.9187C19.3428 18.824 18.1148 19.3327 16.8342 19.3327C15.5535 19.3327 14.3255 18.824 13.4202 17.9187L12.2488 16.7473C11.3435 15.842 10.8348 14.614 10.8348 13.3333H10.8335Z" fill="#FFCDB4"/>
<path d="M15.678 17.778L14.3893 16.4893C13.3933 15.4933 12.834 14.142 12.834 12.734V7.60063C12.834 7.0173 13.0093 6.4773 13.3027 6.02063C11.924 6.12396 10.834 7.26263 10.834 8.6673V13.334C10.834 14.6146 11.3427 15.8426 12.248 16.748L13.4193 17.9193C14.3247 18.8246 15.5527 19.3333 16.8333 19.3333C17.2673 19.3333 17.6933 19.2706 18.1047 19.158C17.1947 18.9226 16.3533 18.4533 15.678 17.778Z" fill="#F6A28D"/>
<path d="M22.8342 16H19.5002C19.1315 16 18.8335 15.7013 18.8335 15.3333C18.8335 14.9653 19.1315 14.6666 19.5002 14.6666H22.8342V16Z" fill="#AFB4C2"/>
<path d="M18.8337 14H17.5003C16.7639 14 16.167 14.597 16.167 15.3333C16.167 16.0697 16.7639 16.6667 17.5003 16.6667H18.8337C19.57 16.6667 20.167 16.0697 20.167 15.3333C20.167 14.597 19.57 14 18.8337 14Z" fill="#0D3B8D"/>
<path d="M19.5003 16H18.167C17.4303 16 16.8337 15.4033 16.8337 14.6667C16.8337 14.4713 16.8783 14.2873 16.9537 14.12C16.491 14.3293 16.167 14.7927 16.167 15.3333C16.167 16.07 16.7637 16.6667 17.5003 16.6667H18.8337C19.3743 16.6667 19.8383 16.3433 20.047 15.88C19.8797 15.9553 19.6957 16 19.5003 16Z" fill="#00286F"/>
</g>
<defs>
<clipPath id="clip0_4299_24260">
<rect width="32" height="32" fill="white" transform="translate(0.833496)"/>
</clipPath>
</defs>
</svg>
