<svg width="33" height="32" viewBox="0 0 33 32" fill="none" xmlns="http://www.w3.org/2000/svg">
<g clipPath="url(#clip0_4299_24282)">
<path d="M31.4479 18.2835C31.5807 18.2223 31.6657 18.0893 31.6657 17.9431V14.0556C31.6657 13.9093 31.5807 13.7764 31.4479 13.7151L28.5474 12.376L27.4842 9.80583L28.5871 6.80971C28.6376 6.67252 28.6038 6.51846 28.5004 6.41508L25.7519 3.66477C25.6484 3.56127 25.4942 3.52739 25.3569 3.57796L22.3592 4.68258L19.7891 3.61771L18.4518 0.717268C18.3905 0.584393 18.2576 0.499268 18.1112 0.499268H14.2219C14.0757 0.499268 13.9427 0.584268 13.8815 0.71708L12.5423 3.61771L9.97392 4.68252L6.97617 3.57789C6.83898 3.52739 6.68479 3.56114 6.58136 3.66458L3.83104 6.41489C3.72761 6.51833 3.69373 6.67252 3.74436 6.80977L4.84892 9.80571L3.78404 12.3759L0.88523 13.715C0.75248 13.7763 0.66748 13.9092 0.66748 14.0555V17.943C0.66748 18.0891 0.75248 18.2221 0.88523 18.2834L3.78404 19.6225L4.84898 22.1927L4.17167 24.0308L1.48611 26.717C0.95823 27.2438 0.667543 27.9475 0.667543 28.6984C0.667543 29.4493 0.958105 30.1532 1.48586 30.681C2.03229 31.2273 2.74998 31.5005 3.46767 31.5005C4.18542 31.5005 4.90317 31.2273 5.44954 30.6809L8.13817 27.9917L9.97386 27.316L12.5423 28.3808L13.8815 31.2815C13.9427 31.4143 14.0757 31.4993 14.2219 31.4993H18.1112C18.2575 31.4993 18.3905 31.4141 18.4518 31.2813L19.789 28.3809L21.8948 27.5096C22.3355 29.7797 24.3376 31.4993 26.7346 31.4993C29.4536 31.4993 31.6656 29.2872 31.6656 26.5683C31.6656 24.1712 29.946 22.1691 27.6759 21.7285L28.5473 19.6226L31.4479 18.2835H31.4479ZM16.1666 23.3405C15.1694 23.3405 14.2182 23.1403 13.3505 22.7785L14.5986 21.5301C15.1084 21.6746 15.6344 21.7478 16.1657 21.7478C19.3354 21.7478 21.9142 19.1691 21.9142 15.9993C21.9142 15.3867 21.8187 14.7845 21.6303 14.2095C21.5897 14.0857 21.4879 13.9918 21.3611 13.9615C21.2343 13.9311 21.101 13.9689 21.0089 14.061L18.4874 16.5808L15.5843 13.6778L18.1056 11.1581C18.1978 11.066 18.2355 10.9326 18.2053 10.8058C18.175 10.679 18.0811 10.577 17.9573 10.5365C17.3785 10.3469 16.7757 10.2508 16.1656 10.2508C12.9959 10.2508 10.4171 12.8296 10.4171 15.9993C10.4171 16.5306 10.4902 17.0566 10.6348 17.5665L9.38704 18.8145C9.02554 17.9471 8.82542 16.9962 8.82542 15.9993C8.82542 11.9514 12.1186 8.65821 16.1665 8.65821C20.2145 8.65821 23.5077 11.9514 23.5077 15.9993C23.5077 20.0473 20.2145 23.3405 16.1665 23.3405H16.1666Z" fill="#FFC250"/>
<path d="M21.6302 14.2095C21.5897 14.0857 21.4878 13.9919 21.361 13.9615C21.2342 13.9312 21.101 13.9689 21.0088 14.061L18.4873 16.5809L15.5842 13.6778L18.1055 11.1581C18.1977 11.066 18.2355 10.9326 18.2052 10.8058C18.175 10.679 18.081 10.577 17.9572 10.5365C17.3785 10.3469 16.7757 10.2509 16.1655 10.2509C12.9958 10.2509 10.417 12.8296 10.417 15.9994C10.417 16.5306 10.4902 17.0567 10.6347 17.5665L1.48604 26.7171C0.958168 27.2439 0.66748 27.9476 0.66748 28.6985C0.66748 29.4495 0.958043 30.1534 1.48579 30.6811C2.03223 31.2275 2.74992 31.5007 3.46761 31.5007C4.18536 31.5007 4.90311 31.2274 5.44948 30.681L14.5985 21.5302C15.1084 21.6747 15.6344 21.7479 16.1656 21.7479C19.3354 21.7479 21.9141 19.1691 21.9141 15.9994C21.9141 15.3867 21.8186 14.7845 21.6302 14.2095Z" fill="#4A80AA"/>
<path d="M21.6302 14.2095C21.5896 14.0857 21.4878 13.9918 21.361 13.9615C21.3031 13.9477 21.2439 13.9487 21.1878 13.9619C21.2553 14.3165 21.2901 14.6782 21.2901 15.0438C21.2901 18.2136 18.7113 20.7923 15.5416 20.7923C15.0103 20.7923 14.4843 20.7192 13.9745 20.5747L4.82544 29.7255C4.279 30.2719 3.56125 30.5451 2.84356 30.5452C2.12587 30.5452 1.40812 30.272 0.86175 29.7256C0.860937 29.7248 0.860188 29.7239 0.859375 29.7231C0.998 30.0784 1.20887 30.4042 1.48575 30.6811C2.03219 31.2275 2.74988 31.5007 3.46756 31.5007C4.18531 31.5007 4.90306 31.2274 5.44944 30.681L14.5985 21.5302C15.1083 21.6747 15.6343 21.7478 16.1656 21.7478C19.3353 21.7478 21.9141 19.1691 21.9141 15.9993C21.9141 15.3867 21.8186 14.7845 21.6302 14.2095Z" fill="#407093"/>
<path d="M14.7969 12.8907L15.5867 13.6806L18.1054 11.1582C18.1976 11.0661 18.2353 10.9327 18.2051 10.8059C18.1748 10.6791 18.0809 10.5771 17.9571 10.5366C17.7466 10.4676 17.5328 10.4114 17.3167 10.3673L14.7969 12.8908V12.8907Z" fill="#407093"/>
<path d="M16.1653 7.1582C11.2903 7.1582 7.32422 11.1243 7.32422 15.9993C7.32422 17.3698 7.64497 18.7285 8.25359 19.9479L9.38503 18.8163C9.01684 17.9281 8.82422 16.9675 8.82422 15.9993C8.82422 11.9514 12.1174 8.6582 16.1653 8.6582C20.2133 8.6582 23.5083 11.9514 23.5083 15.9993C23.5083 20.0473 20.2142 23.3405 16.1653 23.3405C15.1972 23.3405 14.2365 23.148 13.3484 22.7802L12.2169 23.912C13.4362 24.52 14.7948 24.8405 16.1653 24.8405C21.0413 24.8405 25.0083 20.8743 25.0083 15.9993C25.0083 11.1243 21.0413 7.1582 16.1653 7.1582Z" fill="#F2B149"/>
<path d="M26.7347 31.4993C29.458 31.4993 31.6657 29.2916 31.6657 26.5683C31.6657 23.845 29.458 21.6373 26.7347 21.6373C24.0114 21.6373 21.8037 23.845 21.8037 26.5683C21.8037 29.2916 24.0114 31.4993 26.7347 31.4993Z" fill="#80B4FB"/>
<path d="M26.7344 21.6373C26.5974 21.6373 26.4622 21.6444 26.3281 21.6554C28.8576 21.8628 30.8529 23.9863 30.8529 26.5683C30.8529 29.1504 28.8576 31.2738 26.3281 31.4813C26.4622 31.4923 26.5974 31.4993 26.7344 31.4993C29.4534 31.4993 31.6654 29.2873 31.6654 26.5683C31.6654 23.8494 29.4533 21.6373 26.7344 21.6373Z" fill="#61A2F9"/>
<path d="M26.0168 28.6936C25.8247 28.6936 25.6328 28.6202 25.4865 28.4739L24.0532 27.0406C23.7603 26.7476 23.7603 26.2728 24.0532 25.9799C24.3461 25.6869 24.8209 25.6869 25.1138 25.9799L26.0277 26.8937L28.366 24.6502C28.6649 24.3635 29.1396 24.3732 29.4264 24.6721C29.7132 24.971 29.7033 25.4458 29.4045 25.7326L26.536 28.4847C26.3908 28.624 26.2037 28.6935 26.0168 28.6935L26.0168 28.6936Z" fill="#E4F6FF"/>
<path d="M17.0765 0.71733L18.4138 3.61777L21.631 4.95077L22.3588 4.68258L19.7887 3.61771L18.4514 0.717268C18.3902 0.584393 18.2572 0.499268 18.1108 0.499268H16.7358C16.8822 0.499268 17.0151 0.584393 17.0764 0.717268L17.0765 0.71733Z" fill="#F2B149"/>
<path d="M31.4473 13.7151L28.5468 12.376L27.4836 9.80581L28.5865 6.80968C28.637 6.67249 28.6032 6.51843 28.4998 6.41506L25.7513 3.66474C25.6478 3.56124 25.4937 3.52737 25.3563 3.57793L24.5767 3.86524L27.1248 6.41506C27.2282 6.51843 27.262 6.67249 27.2115 6.80968L26.1086 9.80581L27.1718 12.376L30.0723 13.7151C30.2052 13.7764 30.2902 13.9093 30.2902 14.0556V17.9431C30.2902 18.0893 30.2052 18.2222 30.0723 18.2835L27.1718 19.6226L26.3307 21.6551C26.4639 21.6443 26.5982 21.6372 26.734 21.6372C27.056 21.6372 27.3705 21.6692 27.6753 21.7284L28.5467 19.6226L31.4473 18.2835C31.5801 18.2222 31.6651 18.0893 31.6651 17.9431V14.0556C31.6651 13.9093 31.5801 13.7764 31.4473 13.7151H31.4473Z" fill="#F2B149"/>
<path d="M21.3997 27.1454L18.4137 28.381L17.0764 31.2814C17.0152 31.4143 16.8822 31.4994 16.7358 31.4994H18.1108C18.2572 31.4994 18.3901 31.4143 18.4514 31.2814L19.7887 28.381L21.8944 27.5097C21.8763 27.4165 21.8612 27.3223 21.8485 27.2273L21.3997 27.1454V27.1454Z" fill="#F2B149"/>
</g>
<defs>
<clipPath id="clip0_4299_24282">
<rect width="32" height="32" fill="white" transform="translate(0.166504)"/>
</clipPath>
</defs>
</svg>
