<svg width="38" height="39" viewBox="0 0 38 39" fill="none" xmlns="http://www.w3.org/2000/svg">
<path d="M28.8575 18.9971L27.8582 13.7563C27.1129 9.84725 23.695 7.01944 19.7155 7.01944H15.9663C11.9868 7.01944 8.56895 9.84725 7.82354 13.7563L7.25697 16.7276C6.71251 19.583 5.84218 22.3765 4.54058 24.9757C4.16003 25.7356 3.96019 26.6016 3.99762 27.5178C4.10587 30.1686 6.43879 32.4494 9.09115 32.5012C9.11057 32.5016 9.12999 32.5019 9.14942 32.502C10.3528 32.5124 11.5115 32.9814 12.3553 33.8394C13.2986 34.7982 14.6106 35.393 16.062 35.393C17.8234 35.393 19.3799 34.5173 20.3209 33.1776C20.6239 32.7463 21.1207 32.5012 21.6477 32.5023H21.6568C21.8833 32.5023 22.1057 32.4855 22.3232 32.4533C22.7333 32.3925 23.1482 32.4972 23.4867 32.7366C24.4022 33.3842 25.5359 33.7437 26.7563 33.6819C29.3681 33.5497 31.4987 31.459 31.6761 28.8498C31.74 27.911 31.5543 27.0212 31.1789 26.2397C30.0775 23.9458 29.3341 21.4966 28.8575 18.9971Z" fill="url(#paint0_linear_4203_13114)"/>
<path d="M9.19539 32.5023C12.0685 32.5023 14.3976 30.1731 14.3976 27.3C14.3976 24.4268 12.0685 22.0977 9.19539 22.0977C6.32228 22.0977 3.99316 24.4268 3.99316 27.3C3.99316 30.1731 6.32228 32.5023 9.19539 32.5023Z" fill="url(#paint1_linear_4203_13114)"/>
<path d="M16.0616 35.3931C18.9347 35.3931 21.2638 33.0639 21.2638 30.1908C21.2638 27.3176 18.9347 24.9885 16.0616 24.9885C13.1885 24.9885 10.8594 27.3176 10.8594 30.1908C10.8594 33.0639 13.1885 35.3931 16.0616 35.3931Z" fill="url(#paint2_linear_4203_13114)"/>
<path d="M26.4864 33.6887C29.3595 33.6887 31.6886 31.3596 31.6886 28.4864C31.6886 25.6133 29.3595 23.2841 26.4864 23.2841C23.6133 23.2841 21.2842 25.6133 21.2842 28.4864C21.2842 31.3596 23.6133 33.6887 26.4864 33.6887Z" fill="url(#paint3_linear_4203_13114)"/>
<path d="M20.8612 13.1435C20.4846 13.027 20.1267 12.943 19.7878 12.8913C19.6243 12.8663 19.4592 12.8461 19.2928 12.8301C19.2914 12.8294 19.2901 12.8286 19.2887 12.8279L18.5261 12.038C18.3755 11.9397 18.2122 11.8903 18.0365 11.8903C17.8355 11.8903 17.6661 11.9372 17.5281 12.0301C17.3899 12.1233 17.3209 12.234 17.3209 12.3617V12.8508C16.2287 13.0044 15.3278 13.4078 14.6187 14.0607C13.9092 14.7136 13.5548 15.6095 13.5548 16.7489C13.5548 17.2135 13.6363 17.6372 13.7995 18.02C13.9625 18.4031 14.1509 18.7168 14.3645 18.9616L17.3209 21.9208V23.6789C16.8313 23.5912 16.2976 23.3431 15.7203 22.935C15.1427 22.5272 14.7347 22.3229 14.4963 22.3229C14.1573 22.3229 13.859 22.4989 13.6018 22.8502C13.3445 23.2019 13.2158 23.5535 13.2158 23.9048C13.2158 24.3627 13.4405 24.7857 13.889 25.1739L21.2612 32.5462C21.3859 32.517 21.5149 32.502 21.6458 32.5023H21.6549C21.8813 32.5023 22.1038 32.4855 22.3213 32.4533C22.7314 32.3926 23.1463 32.4972 23.4847 32.7366C24.4003 33.3842 25.534 33.7437 26.7544 33.6819C29.3662 33.5498 31.4967 31.459 31.6742 28.8499C31.738 27.9111 31.5523 27.0214 31.177 26.2398C30.4104 24.6433 29.8176 22.9715 29.3671 21.2599L21.7745 13.6672C21.542 13.4344 21.2379 13.26 20.8612 13.1435Z" fill="url(#paint4_linear_4203_13114)"/>
<path d="M22.2265 20.8353C22.0693 20.4336 21.881 20.1009 21.6616 19.8372C21.4417 19.5736 21.1499 19.3226 20.7858 19.0839C20.4217 18.8456 20.0953 18.6635 19.8067 18.5378C19.5178 18.4125 19.1665 18.268 18.7522 18.1047V15.3553C19.2041 15.393 19.6402 15.5186 20.0609 15.7319C20.4813 15.9455 20.7794 16.052 20.9554 16.052C21.3193 16.052 21.605 15.8734 21.8122 15.5162C22.0193 15.159 22.1229 14.8141 22.1229 14.4823C22.1229 14.1719 22.0068 13.9003 21.7746 13.6672C21.5421 13.4344 21.238 13.26 20.8613 13.1435C20.4847 13.0269 20.1268 12.943 19.7879 12.8913C19.449 12.8395 19.1035 12.8071 18.7523 12.7942V12.3596C18.7523 12.2437 18.6769 12.1366 18.5262 12.038C18.3756 11.9397 18.2122 11.8903 18.0366 11.8903C17.8356 11.8903 17.6661 11.9371 17.5281 12.0301C17.3899 12.1233 17.321 12.234 17.321 12.3617V12.8508C16.2288 13.0044 15.3279 13.4078 14.6188 14.0607C13.9093 14.7136 13.5548 15.6095 13.5548 16.7489C13.5548 17.2135 13.6363 17.6372 13.7995 18.02C13.9625 18.4031 14.1509 18.7168 14.3646 18.9616C14.5779 19.2064 14.8792 19.445 15.2684 19.6772C15.6574 19.9096 15.984 20.082 16.2476 20.1951C16.5112 20.3081 16.869 20.4526 17.3209 20.6282V23.679C16.8313 23.5913 16.2976 23.3432 15.7203 22.9351C15.1427 22.5273 14.7347 22.323 14.4963 22.323C14.1573 22.323 13.859 22.499 13.6018 22.8503C13.3445 23.202 13.2158 23.5536 13.2158 23.9049C13.2158 24.5202 13.6207 25.0724 14.4305 25.562C15.2402 26.0517 16.2035 26.3152 17.321 26.353V26.8238C17.321 26.9617 17.3899 27.0809 17.5281 27.1815C17.6661 27.2819 17.8356 27.3321 18.0366 27.3321C18.2122 27.3321 18.3756 27.2786 18.5262 27.172C18.6769 27.0652 18.7523 26.949 18.7523 26.8237V26.2776C19.8821 26.0893 20.7827 25.6438 21.4545 24.9405C22.1259 24.2376 22.462 23.3148 22.462 22.1723C22.4618 21.6827 22.3834 21.2372 22.2265 20.8353ZM17.5093 17.6528C16.7058 17.3138 16.3041 16.9184 16.3041 16.4664C16.3041 15.9268 16.7058 15.5752 17.5093 15.4119V17.6528ZM18.5637 23.66V21.1366C19.3293 21.5009 19.7125 21.9464 19.7125 22.4736C19.7125 23.0888 19.3294 23.4843 18.5637 23.66Z" fill="url(#paint5_linear_4203_13114)"/>
<path d="M20.3959 7.01942H15.2857L12.9607 2.56239C12.6175 1.90444 13.0094 1.10216 13.7393 0.968288L15.2618 0.689107C16.9669 0.376458 18.7145 0.376458 20.4196 0.689107L21.9421 0.968288C22.6721 1.10209 23.0639 1.90437 22.7206 2.56239L20.3959 7.01942Z" fill="url(#paint6_linear_4203_13114)"/>
<path d="M18.6914 7.01942H16.9918L16.2186 2.56239C16.1044 1.90444 16.2348 1.10216 16.4775 0.968288L16.9839 0.689107C17.551 0.376458 18.1323 0.376458 18.6993 0.689107L19.2056 0.968288C19.4484 1.10209 19.5787 1.90437 19.4646 2.56239L18.6914 7.01942Z" fill="url(#paint7_linear_4203_13114)"/>
<path d="M22.6443 1.41686C22.744 1.55858 22.6938 1.7561 22.5393 1.8344C21.8143 2.20315 20.9569 2.20315 20.2319 1.8344L19.5909 1.5089C18.8659 1.14014 18.0085 1.14014 17.2834 1.5089L16.6433 1.8344C15.9183 2.20315 15.0609 2.20315 14.3358 1.8344L13.6654 1.49336C13.4305 1.3739 13.4742 1.01859 13.7332 0.969884C13.7354 0.969436 13.7376 0.969062 13.7398 0.968688L15.2623 0.688985C16.9671 0.376784 18.7151 0.376784 20.4199 0.688985L21.9424 0.968688C22.2431 1.0236 22.486 1.19176 22.6443 1.41686Z" fill="url(#paint8_linear_4203_13114)"/>
<path d="M17.8398 7.51903C16.732 7.51903 15.6835 7.44746 14.8243 7.31523C14.5413 7.27167 14.3515 7.0019 14.4086 6.7213C14.4617 6.46043 14.7095 6.28673 14.9727 6.32707C15.7797 6.45079 16.7949 6.52004 17.8398 6.52004C18.8846 6.52004 19.8998 6.45079 20.7068 6.32707C20.97 6.28673 21.2178 6.46035 21.2709 6.7213C21.328 7.0019 21.1382 7.27167 20.8552 7.31523C19.996 7.44746 18.9475 7.51903 17.8398 7.51903Z" fill="url(#paint9_linear_4203_13114)"/>
<path d="M10.7083 38.63H1.90567C1.58063 38.63 1.33985 38.328 1.41239 38.0111L2.14518 34.8072C2.24267 34.3811 2.62173 34.0789 3.05891 34.0789H9.55526C9.99244 34.0789 10.3715 34.3811 10.469 34.8072L11.2018 38.0111C11.2742 38.328 11.0334 38.63 10.7083 38.63Z" fill="url(#paint10_linear_4203_13114)"/>
<path d="M17.0869 31.3172C17.1897 31.2004 17.2393 31.0377 17.2011 30.8703L16.4683 27.6665C16.3708 27.2404 15.9918 26.9382 15.5546 26.9382H9.05822C8.69044 26.9382 8.36443 27.1525 8.21195 27.4742L2.30921 34.4539C2.23219 34.5565 2.17526 34.676 2.14516 34.8073L1.41237 38.0111C1.3399 38.328 1.58068 38.6301 1.90565 38.6301H10.7084C10.9311 38.6301 11.1141 38.4882 11.1841 38.297L17.0869 31.3172Z" fill="url(#paint11_linear_4203_13114)"/>
<path d="M16.4682 27.6664C16.4644 27.6498 16.4595 27.6338 16.4548 27.6176C16.3443 27.5722 16.2243 27.5467 16.0991 27.5467H9.60273C9.23495 27.5467 8.90893 27.761 8.75646 28.0827L2.85364 35.0625C2.77662 35.1651 2.71969 35.2846 2.68959 35.4159L1.9568 38.6197C1.95605 38.6231 1.95575 38.6266 1.95508 38.63H10.7083C10.931 38.63 11.114 38.4882 11.184 38.297L17.0867 31.3172C17.1895 31.2005 17.2392 31.0377 17.2009 30.8703L16.4682 27.6664Z" fill="url(#paint12_linear_4203_13114)"/>
<path d="M10.7083 38.63H1.90567C1.58063 38.63 1.33985 38.328 1.41239 38.0111L2.14518 34.8072C2.24267 34.3811 2.62173 34.0789 3.05891 34.0789H9.55526C9.99244 34.0789 10.3715 34.3811 10.469 34.8072L11.2018 38.0111C11.2742 38.328 11.0334 38.63 10.7083 38.63Z" fill="url(#paint13_linear_4203_13114)"/>
<path d="M10.4693 34.8073C10.4583 34.7589 10.4431 34.7123 10.4251 34.6674C10.3164 34.6236 10.1985 34.5991 10.0757 34.5991H3.57937C3.14219 34.5991 2.76313 34.9012 2.66564 35.3274L1.93285 38.5312C1.92523 38.5644 1.92187 38.5974 1.9209 38.63H10.7088C11.0338 38.63 11.2746 38.3279 11.2021 38.0111L10.4693 34.8073Z" fill="url(#paint14_linear_4203_13114)"/>
<path d="M21.2016 38.63H12.3989C12.0738 38.63 11.8331 38.328 11.9055 38.0111L12.6383 34.8072C12.7358 34.3811 13.1149 34.0789 13.552 34.0789H20.0484C20.4856 34.0789 20.8646 34.3811 20.9621 34.8072L21.6949 38.0111C21.7674 38.328 21.5266 38.63 21.2016 38.63Z" fill="url(#paint15_linear_4203_13114)"/>
<path d="M27.58 31.3172C27.6828 31.2004 27.7325 31.0377 27.6943 30.8703L26.9615 27.6665C26.864 27.2404 26.4849 26.9382 26.0477 26.9382H19.5514C19.1836 26.9382 18.8576 27.1525 18.7051 27.4742L12.8024 34.4539C12.7254 34.5565 12.6684 34.676 12.6383 34.8073L11.9055 38.0111C11.8331 38.328 12.0738 38.6301 12.3989 38.6301H21.2016C21.4243 38.6301 21.6073 38.4882 21.6772 38.297L27.58 31.3172Z" fill="url(#paint16_linear_4203_13114)"/>
<path d="M26.9613 27.6664C26.9575 27.6498 26.9525 27.6338 26.9479 27.6176C26.8374 27.5722 26.7174 27.5467 26.5921 27.5467H20.0957C19.728 27.5467 19.4019 27.761 19.2495 28.0827L13.3467 35.0625C13.2697 35.1651 13.2128 35.2846 13.1828 35.4159L12.45 38.6197C12.4491 38.6231 12.4489 38.6266 12.4482 38.63H21.2015C21.4242 38.63 21.6072 38.4882 21.6771 38.297L27.5799 31.3172C27.6826 31.2005 27.7323 31.0377 27.6941 30.8703L26.9613 27.6664Z" fill="url(#paint17_linear_4203_13114)"/>
<path d="M21.2016 38.63H12.3989C12.0738 38.63 11.8331 38.328 11.9055 38.0111L12.6383 34.8072C12.7358 34.3811 13.1149 34.0789 13.552 34.0789H20.0484C20.4856 34.0789 20.8646 34.3811 20.9621 34.8072L21.6949 38.0111C21.7674 38.328 21.5266 38.63 21.2016 38.63Z" fill="url(#paint18_linear_4203_13114)"/>
<path d="M20.9616 34.8073C20.9506 34.7589 20.9354 34.7123 20.9174 34.6674C20.8087 34.6236 20.6908 34.5991 20.568 34.5991H14.0716C13.6345 34.5991 13.2554 34.9012 13.1579 35.3274L12.4251 38.5312C12.4175 38.5644 12.4141 38.5974 12.4131 38.63H21.201C21.526 38.63 21.7668 38.3279 21.6943 38.0111L20.9616 34.8073Z" fill="url(#paint19_linear_4203_13114)"/>
<path d="M26.9614 27.6664C26.9117 27.4493 26.7887 27.2647 26.6225 27.1356L12.9312 34.3015L12.8023 34.4539C12.7253 34.5565 12.6684 34.676 12.6383 34.8073L11.9055 38.0111C11.8331 38.328 12.0738 38.63 12.3989 38.63H21.2016C21.4243 38.63 21.6073 38.4881 21.6772 38.297L27.58 31.3172C27.6828 31.2004 27.7324 31.0377 27.6942 30.8703L26.9614 27.6664Z" fill="url(#paint20_linear_4203_13114)"/>
<path d="M30.9584 38.63H22.1557C21.8307 38.63 21.5899 38.328 21.6624 38.0111L22.3952 34.8072C22.4926 34.3811 22.8717 34.0789 23.3089 34.0789H29.8052C30.2424 34.0789 30.6215 34.3811 30.719 34.8072L31.4518 38.0111C31.5242 38.328 31.2834 38.63 30.9584 38.63Z" fill="url(#paint21_linear_4203_13114)"/>
<path d="M37.3369 31.3172C37.4397 31.2004 37.4893 31.0377 37.4511 30.8703L36.7183 27.6665C36.6208 27.2404 36.2418 26.9382 35.8046 26.9382H29.3082C28.9404 26.9382 28.6144 27.1525 28.462 27.4742L22.5592 34.4539C22.4822 34.5565 22.4253 34.676 22.3952 34.8073L21.6624 38.0111C21.5899 38.328 21.8307 38.6301 22.1557 38.6301H30.9584C31.1811 38.6301 31.3641 38.4882 31.4341 38.297L37.3369 31.3172Z" fill="url(#paint22_linear_4203_13114)"/>
<path d="M36.7191 27.6664C36.7153 27.6498 36.7104 27.6338 36.7057 27.6176C36.5953 27.5722 36.4752 27.5467 36.3499 27.5467H29.8536C29.4858 27.5467 29.1598 27.761 29.0074 28.0827L23.1045 35.0625C23.0275 35.1651 22.9706 35.2846 22.9406 35.4159L22.2078 38.6197C22.207 38.6231 22.2067 38.6266 22.2061 38.63H30.9593C31.182 38.63 31.365 38.4882 31.4349 38.297L37.3377 31.3172C37.4405 31.2005 37.4902 31.0377 37.452 30.8703L36.7191 27.6664Z" fill="url(#paint23_linear_4203_13114)"/>
<path d="M30.9584 38.63H22.1557C21.8307 38.63 21.5899 38.328 21.6624 38.0111L22.3952 34.8072C22.4926 34.3811 22.8717 34.0789 23.3089 34.0789H29.8052C30.2424 34.0789 30.6215 34.3811 30.719 34.8072L31.4518 38.0111C31.5242 38.328 31.2834 38.63 30.9584 38.63Z" fill="url(#paint24_linear_4203_13114)"/>
<path d="M30.7203 34.8073C30.7093 34.7589 30.6941 34.7123 30.6761 34.6674C30.5674 34.6236 30.4495 34.5991 30.3267 34.5991H23.8303C23.3932 34.5991 23.0141 34.9012 22.9166 35.3274L22.1838 38.5312C22.1762 38.5644 22.1728 38.5974 22.1719 38.63H30.9598C31.2848 38.63 31.5256 38.3279 31.453 38.0111L30.7203 34.8073Z" fill="url(#paint25_linear_4203_13114)"/>
<path d="M32.4782 26.9414L32.4801 26.9382H29.3094C28.9416 26.9382 28.6156 27.1525 28.4632 27.4742L27.2466 28.9127L26.9616 27.6665C26.8641 27.2404 26.4851 26.9382 26.0479 26.9382H20.3881L17.6373 30.1909C17.5603 30.2935 17.5033 30.4129 17.4733 30.5443L16.7405 33.7481C16.6901 33.9682 16.7911 34.1809 16.9662 34.2904L21.2966 38.6209C21.4754 38.5871 21.6177 38.4602 21.6774 38.2969L21.68 38.2938C21.749 38.4866 21.9329 38.63 22.1568 38.63H30.9595C31.1822 38.63 31.3652 38.4881 31.4351 38.2969L37.1161 31.5795L32.4782 26.9414Z" fill="url(#paint26_linear_4203_13114)"/>
<path d="M26.0366 34.367H17.2338C16.9088 34.367 16.668 34.0649 16.7405 33.7481L17.4733 30.5443C17.5708 30.1182 17.9498 29.816 18.387 29.816H24.8834C25.3205 29.816 25.6996 30.1182 25.7971 30.5443L26.5299 33.7481C26.6023 34.0649 26.3616 34.367 26.0366 34.367Z" fill="url(#paint27_linear_4203_13114)"/>
<path d="M32.4151 27.0541C32.5179 26.9373 32.5675 26.7745 32.5293 26.6071L31.7965 23.4033C31.699 22.9772 31.32 22.675 30.8828 22.675H24.3864C24.0186 22.675 23.6926 22.8893 23.5402 23.211L17.6373 30.1908C17.5603 30.2934 17.5033 30.4129 17.4733 30.5442L16.7405 33.748C16.668 34.0648 16.9088 34.367 17.2338 34.367H26.0365C26.2592 34.367 26.4423 34.2251 26.5122 34.0339L32.4151 27.0541Z" fill="url(#paint28_linear_4203_13114)"/>
<path d="M31.7973 23.4032C31.7935 23.3867 31.7886 23.3706 31.7839 23.3545C31.6735 23.309 31.5534 23.2836 31.4281 23.2836H24.9318C24.564 23.2836 24.238 23.4979 24.0855 23.8196L18.1827 30.7994C18.1056 30.902 18.0487 31.0214 18.0187 31.1528L17.2859 34.3566C17.2851 34.36 17.2849 34.3635 17.2842 34.3669H26.0374C26.2601 34.3669 26.4431 34.225 26.5131 34.0339L32.4159 27.0541C32.5187 26.9373 32.5683 26.7746 32.5301 26.6071L31.7973 23.4032Z" fill="url(#paint29_linear_4203_13114)"/>
<path d="M26.0366 34.367H17.2338C16.9088 34.367 16.668 34.0649 16.7405 33.7481L17.4733 30.5443C17.5708 30.1182 17.9498 29.816 18.387 29.816H24.8834C25.3205 29.816 25.6996 30.1182 25.7971 30.5443L26.5299 33.7481C26.6023 34.0649 26.3616 34.367 26.0366 34.367Z" fill="url(#paint30_linear_4203_13114)"/>
<path d="M25.7985 30.5442C25.7874 30.4958 25.7722 30.4493 25.7542 30.4044C25.6455 30.3606 25.5276 30.336 25.4048 30.336H18.9085C18.4713 30.336 18.0922 30.6382 17.9947 31.0643L17.262 34.2681C17.2543 34.3014 17.251 34.3343 17.25 34.3669H26.0379C26.3629 34.3669 26.6037 34.0649 26.5312 33.748L25.7985 30.5442Z" fill="url(#paint31_linear_4203_13114)"/>
<path d="M23.1352 5.64278L21.8583 6.9196C21.6329 7.14499 21.2675 7.14499 21.0421 6.9196C20.8167 6.69421 20.8167 6.32874 21.0421 6.10335L22.319 4.82645C22.5444 4.60106 22.9098 4.60106 23.1352 4.82645C23.3606 5.05184 23.3607 5.41731 23.1352 5.64278Z" fill="url(#paint32_linear_4203_13114)"/>
<path d="M22.373 5.08553C22.5094 5.22194 22.6069 5.38249 22.6653 5.55342C22.7531 5.80974 22.684 6.09385 22.4924 6.28547L21.8689 6.90898C21.6402 7.13766 21.2588 7.14475 21.0344 6.91182C20.8168 6.6859 20.8193 6.32626 21.0421 6.10349L22.2022 4.94336C22.2625 4.98452 22.3197 5.03219 22.373 5.08553Z" fill="url(#paint33_linear_4203_13114)"/>
<path d="M21.7324 5.72614C21.8972 5.89094 22.0052 6.09108 22.0563 6.30205C22.1071 6.5122 22.0442 6.73371 21.8913 6.88656L21.8689 6.90897C21.6402 7.13765 21.2588 7.14475 21.0344 6.91181C20.8168 6.6859 20.8193 6.32626 21.0421 6.10348L21.5616 5.58389C21.6219 5.62513 21.6791 5.67279 21.7324 5.72614Z" fill="url(#paint34_linear_4203_13114)"/>
<path d="M22.5475 4.85088L21.2706 6.12778C21.0452 6.35317 21.0452 6.71864 21.2706 6.94403C21.3385 7.01194 21.4193 7.059 21.505 7.08605C21.6338 7.07379 21.7594 7.01829 21.8581 6.9196L23.135 5.64278C23.3604 5.41739 23.3604 5.05192 23.135 4.82653C23.0671 4.75862 22.9863 4.71155 22.9006 4.68451C22.7717 4.69669 22.6462 4.75212 22.5475 4.85088Z" fill="url(#paint35_linear_4203_13114)"/>
<path d="M22.3219 8.21489L21.045 6.93799C20.8196 6.7126 20.8196 6.34713 21.045 6.12174C21.2704 5.89635 21.6359 5.89635 21.8613 6.12174L23.1381 7.39856C23.3635 7.62395 23.3635 7.98942 23.1381 8.21481C22.9127 8.44028 22.5473 8.44028 22.3219 8.21489Z" fill="url(#paint36_linear_4203_13114)"/>
<path d="M22.8788 7.45291C22.7424 7.58933 22.5819 7.68675 22.4109 7.74524C22.1546 7.83295 21.8705 7.76384 21.6789 7.5723L21.0554 6.94879C20.8267 6.72011 20.8196 6.33866 21.0526 6.11424C21.2785 5.89661 21.6381 5.89915 21.8609 6.12193L23.021 7.28206C22.9798 7.34235 22.9322 7.3995 22.8788 7.45291Z" fill="url(#paint37_linear_4203_13114)"/>
<path d="M22.2382 6.8123C22.0734 6.9771 21.8734 7.08505 21.6623 7.13615C21.4522 7.18703 21.2307 7.12413 21.0778 6.9712L21.0554 6.94879C20.8267 6.72011 20.8196 6.33866 21.0526 6.11424C21.2785 5.89661 21.6381 5.89915 21.8609 6.12193L22.3805 6.64152C22.3393 6.70173 22.2916 6.75896 22.2382 6.8123Z" fill="url(#paint38_linear_4203_13114)"/>
<path d="M23.1131 7.62743L21.8362 6.35053C21.6108 6.12514 21.2453 6.12514 21.0199 6.35053C20.952 6.41844 20.905 6.4992 20.8779 6.58489C20.8902 6.71376 20.9457 6.83934 21.0444 6.93803L22.3212 8.21492C22.5466 8.44032 22.9121 8.44032 23.1375 8.21492C23.2054 8.14701 23.2525 8.06626 23.2795 7.98057C23.2672 7.8517 23.2117 7.72611 23.1131 7.62743Z" fill="url(#paint39_linear_4203_13114)"/>
<path d="M21.0846 7.74566C21.6405 7.74566 22.0912 7.29503 22.0912 6.73913C22.0912 6.18324 21.6405 5.7326 21.0846 5.7326C20.5288 5.7326 20.0781 6.18324 20.0781 6.73913C20.0781 7.29503 20.5288 7.74566 21.0846 7.74566Z" fill="url(#paint40_radial_4203_13114)"/>
<path d="M21.0849 7.63752C21.5811 7.63752 21.9834 7.23528 21.9834 6.7391C21.9834 6.24291 21.5811 5.84067 21.0849 5.84067C20.5888 5.84067 20.1865 6.24291 20.1865 6.7391C20.1865 7.23528 20.5888 7.63752 21.0849 7.63752Z" fill="url(#paint41_linear_4203_13114)"/>
<path d="M21.5332 5.83875C21.6011 5.97419 21.6394 6.12711 21.6394 6.28901C21.6394 6.8449 21.1888 7.29553 20.6329 7.29553C20.471 7.29553 20.3181 7.25728 20.1826 7.18938C20.3479 7.51921 20.6889 7.74565 21.083 7.74565C21.6389 7.74565 22.0895 7.29501 22.0895 6.73912C22.0895 6.34504 21.8631 6.004 21.5332 5.83875Z" fill="url(#paint42_linear_4203_13114)"/>
<path d="M21.7635 6.30833C21.7635 6.5666 21.4588 6.776 21.0829 6.776C20.7071 6.776 20.4023 6.5666 20.4023 6.30833C20.4023 6.05007 20.7071 5.84067 21.0829 5.84067C21.4588 5.84059 21.7635 6.05 21.7635 6.30833Z" fill="url(#paint43_linear_4203_13114)"/>
<path d="M33.4519 15.6571C32.4952 16.2806 31.6789 17.1018 31.0607 18.0625C30.9217 18.2785 30.6009 18.2779 30.4627 18.0614C29.8481 17.0985 29.0348 16.2743 28.0804 15.6474C27.8686 15.5082 27.8692 15.1918 28.0815 15.0534C29.0382 14.4299 29.8545 13.6087 30.4726 12.648C30.6116 12.432 30.9324 12.4326 31.0706 12.6491C31.6853 13.612 32.4985 14.4361 33.453 15.0631C33.6648 15.2024 33.6642 15.5188 33.4519 15.6571Z" fill="url(#paint44_linear_4203_13114)"/>
<path d="M5.56416 16.694C4.60747 17.3175 3.79116 18.1387 3.17304 19.0994C3.03402 19.3154 2.71323 19.3148 2.57502 19.0982C1.96042 18.1353 1.14709 17.3112 0.192725 16.6842C-0.0191411 16.545 -0.0185434 16.2287 0.193771 16.0902C1.15046 15.4668 1.96677 14.6455 2.58488 13.6849C2.72391 13.4688 3.0447 13.4694 3.18291 13.6859C3.79759 14.6488 4.61083 15.473 5.56528 16.0999C5.77707 16.2392 5.77655 16.5557 5.56416 16.694Z" fill="url(#paint45_linear_4203_13114)"/>
<path d="M28.8227 11.0242C28.1462 11.4651 27.5689 12.0458 27.1318 12.7251C27.0335 12.8779 26.8066 12.8774 26.7089 12.7244C26.2743 12.0434 25.6992 11.4606 25.0242 11.0172C24.8744 10.9189 24.8748 10.695 25.025 10.5972C25.7015 10.1563 26.2788 9.57562 26.7159 8.8963C26.8142 8.74353 27.0411 8.74398 27.1388 8.89705C27.5734 9.57801 28.1486 10.1608 28.8235 10.6042C28.9733 10.7026 28.9729 10.9263 28.8227 11.0242Z" fill="url(#paint46_linear_4203_13114)"/>
<path d="M35.9897 7.70088C35.3132 8.14181 34.7359 8.7225 34.2988 9.40182C34.2005 9.55459 33.9736 9.55414 33.8759 9.40107C33.4413 8.72011 32.8662 8.13732 32.1912 7.69394C32.0414 7.59555 32.0418 7.37172 32.192 7.27393C32.8685 6.83309 33.4457 6.25231 33.8828 5.573C33.9812 5.42022 34.208 5.42067 34.3058 5.57375C34.7404 6.2547 35.3156 6.83749 35.9905 7.28088C36.1403 7.37927 36.1399 7.60302 35.9897 7.70088Z" fill="url(#paint47_linear_4203_13114)"/>
<path d="M8.22017 8.32148C7.54364 8.7624 6.96638 9.3431 6.52928 10.0225C6.43097 10.1753 6.20409 10.1748 6.10637 10.0217C5.67173 9.34078 5.09664 8.75799 4.42168 8.3146C4.27189 8.21621 4.27226 7.99247 4.42242 7.8946C5.09896 7.45368 5.67621 6.87298 6.11332 6.19367C6.21163 6.04089 6.43851 6.04134 6.53623 6.19441C6.97087 6.87537 7.54603 7.45816 8.22092 7.90155C8.37078 7.99986 8.37033 8.22361 8.22017 8.32148Z" fill="url(#paint48_linear_4203_13114)"/>
<defs>
<linearGradient id="paint0_linear_4203_13114" x1="3.99314" y1="21.2062" x2="31.6886" y2="21.2062" gradientUnits="userSpaceOnUse">
<stop stop-color="#FCB37E"/>
<stop offset="0.1704" stop-color="#F0AA76"/>
<stop offset="0.4808" stop-color="#CF9362"/>
<stop offset="0.8934" stop-color="#9B6D42"/>
<stop offset="1" stop-color="#8C6239"/>
</linearGradient>
<linearGradient id="paint1_linear_4203_13114" x1="9.2494" y1="25.6156" x2="8.5003" y2="48.9641" gradientUnits="userSpaceOnUse">
<stop stop-color="#8C6239" stop-opacity="0"/>
<stop offset="1" stop-color="#8C6239"/>
</linearGradient>
<linearGradient id="paint2_linear_4203_13114" x1="16.0682" y1="30.2159" x2="19.3979" y2="42.9243" gradientUnits="userSpaceOnUse">
<stop stop-color="#8C6239" stop-opacity="0"/>
<stop offset="1" stop-color="#8C6239"/>
</linearGradient>
<linearGradient id="paint3_linear_4203_13114" x1="26.371" y1="29.9662" x2="25.1501" y2="45.6158" gradientUnits="userSpaceOnUse">
<stop stop-color="#005A01" stop-opacity="0"/>
<stop offset="1" stop-color="#005A01"/>
</linearGradient>
<linearGradient id="paint4_linear_4203_13114" x1="27.1307" y1="26.2437" x2="7.29985" y2="15.0231" gradientUnits="userSpaceOnUse">
<stop stop-color="#8C6239" stop-opacity="0"/>
<stop offset="1" stop-color="#8C6239"/>
</linearGradient>
<linearGradient id="paint5_linear_4203_13114" x1="15.5663" y1="17.4646" x2="26.4288" y2="26.8287" gradientUnits="userSpaceOnUse">
<stop stop-color="#FFC738"/>
<stop offset="0.1876" stop-color="#FDBF3C"/>
<stop offset="0.4837" stop-color="#F7A848"/>
<stop offset="0.8493" stop-color="#ED835B"/>
<stop offset="1" stop-color="#E97264"/>
</linearGradient>
<linearGradient id="paint6_linear_4203_13114" x1="16.5873" y1="-0.596603" x2="20.2501" y2="7.14496" gradientUnits="userSpaceOnUse">
<stop stop-color="#FCB37E"/>
<stop offset="0.1704" stop-color="#F0AA76"/>
<stop offset="0.4808" stop-color="#CF9362"/>
<stop offset="0.8934" stop-color="#9B6D42"/>
<stop offset="1" stop-color="#8C6239"/>
</linearGradient>
<linearGradient id="paint7_linear_4203_13114" x1="17.7912" y1="3.48988" x2="22.7303" y2="11.1482" gradientUnits="userSpaceOnUse">
<stop stop-color="#8C6239" stop-opacity="0"/>
<stop offset="1" stop-color="#8C6239"/>
</linearGradient>
<linearGradient id="paint8_linear_4203_13114" x1="18.0328" y1="0.71319" x2="18.2826" y2="3.16889" gradientUnits="userSpaceOnUse">
<stop stop-color="#8C6239" stop-opacity="0"/>
<stop offset="1" stop-color="#8C6239"/>
</linearGradient>
<linearGradient id="paint9_linear_4203_13114" x1="17.8398" y1="6.52729" x2="17.8398" y2="7.70452" gradientUnits="userSpaceOnUse">
<stop stop-color="#FFC738"/>
<stop offset="0.1876" stop-color="#FDBF3C"/>
<stop offset="0.4837" stop-color="#F7A848"/>
<stop offset="0.8493" stop-color="#ED835B"/>
<stop offset="1" stop-color="#E97264"/>
</linearGradient>
<linearGradient id="paint10_linear_4203_13114" x1="1.39939" y1="36.3544" x2="11.2146" y2="36.3544" gradientUnits="userSpaceOnUse">
<stop stop-color="#FFD945"/>
<stop offset="0.3043" stop-color="#FFCD3E"/>
<stop offset="0.8558" stop-color="#FFAD2B"/>
<stop offset="1" stop-color="#FFA325"/>
</linearGradient>
<linearGradient id="paint11_linear_4203_13114" x1="8.85913" y1="32.8269" x2="11.7282" y2="35.1221" gradientUnits="userSpaceOnUse">
<stop stop-color="#FFD945"/>
<stop offset="0.3043" stop-color="#FFCD3E"/>
<stop offset="0.8558" stop-color="#FFAD2B"/>
<stop offset="1" stop-color="#FFA325"/>
</linearGradient>
<linearGradient id="paint12_linear_4203_13114" x1="9.69827" y1="33.8278" x2="6.61181" y2="29.424" gradientUnits="userSpaceOnUse">
<stop stop-color="#FFD945" stop-opacity="0"/>
<stop offset="1" stop-color="#FBED21"/>
</linearGradient>
<linearGradient id="paint13_linear_4203_13114" x1="3.9364" y1="34.9181" x2="10.5763" y2="40.0256" gradientUnits="userSpaceOnUse">
<stop stop-color="#FFD945"/>
<stop offset="0.3043" stop-color="#FFCD3E"/>
<stop offset="0.8558" stop-color="#FFAD2B"/>
<stop offset="1" stop-color="#FFA325"/>
</linearGradient>
<linearGradient id="paint14_linear_4203_13114" x1="6.84387" y1="37.8829" x2="4.36858" y2="33.3294" gradientUnits="userSpaceOnUse">
<stop stop-color="#FFD945" stop-opacity="0"/>
<stop offset="1" stop-color="#FBED21"/>
</linearGradient>
<linearGradient id="paint15_linear_4203_13114" x1="11.8926" y1="36.3544" x2="21.7078" y2="36.3544" gradientUnits="userSpaceOnUse">
<stop stop-color="#FFD945"/>
<stop offset="0.3043" stop-color="#FFCD3E"/>
<stop offset="0.8558" stop-color="#FFAD2B"/>
<stop offset="1" stop-color="#FFA325"/>
</linearGradient>
<linearGradient id="paint16_linear_4203_13114" x1="19.3523" y1="32.8269" x2="22.2214" y2="35.1221" gradientUnits="userSpaceOnUse">
<stop stop-color="#FFD945"/>
<stop offset="0.3043" stop-color="#FFCD3E"/>
<stop offset="0.8558" stop-color="#FFAD2B"/>
<stop offset="1" stop-color="#FFA325"/>
</linearGradient>
<linearGradient id="paint17_linear_4203_13114" x1="20.1914" y1="33.8278" x2="17.1049" y2="29.424" gradientUnits="userSpaceOnUse">
<stop stop-color="#FFD945" stop-opacity="0"/>
<stop offset="1" stop-color="#FBED21"/>
</linearGradient>
<linearGradient id="paint18_linear_4203_13114" x1="14.4296" y1="34.9181" x2="21.0695" y2="40.0256" gradientUnits="userSpaceOnUse">
<stop stop-color="#FFD945"/>
<stop offset="0.3043" stop-color="#FFCD3E"/>
<stop offset="0.8558" stop-color="#FFAD2B"/>
<stop offset="1" stop-color="#FFA325"/>
</linearGradient>
<linearGradient id="paint19_linear_4203_13114" x1="17.3361" y1="37.8829" x2="14.8608" y2="33.3294" gradientUnits="userSpaceOnUse">
<stop stop-color="#FFD945" stop-opacity="0"/>
<stop offset="1" stop-color="#FBED21"/>
</linearGradient>
<linearGradient id="paint20_linear_4203_13114" x1="19.8269" y1="32.7098" x2="20.0334" y2="18.6694" gradientUnits="userSpaceOnUse">
<stop stop-color="white" stop-opacity="0"/>
<stop offset="1" stop-color="white"/>
</linearGradient>
<linearGradient id="paint21_linear_4203_13114" x1="21.6494" y1="36.3544" x2="31.4647" y2="36.3544" gradientUnits="userSpaceOnUse">
<stop stop-color="#FFD945"/>
<stop offset="0.3043" stop-color="#FFCD3E"/>
<stop offset="0.8558" stop-color="#FFAD2B"/>
<stop offset="1" stop-color="#FFA325"/>
</linearGradient>
<linearGradient id="paint22_linear_4203_13114" x1="29.1091" y1="32.8269" x2="31.9782" y2="35.1221" gradientUnits="userSpaceOnUse">
<stop stop-color="#FFD945"/>
<stop offset="0.3043" stop-color="#FFCD3E"/>
<stop offset="0.8558" stop-color="#FFAD2B"/>
<stop offset="1" stop-color="#FFA325"/>
</linearGradient>
<linearGradient id="paint23_linear_4203_13114" x1="29.9492" y1="33.8278" x2="26.8627" y2="29.4239" gradientUnits="userSpaceOnUse">
<stop stop-color="#FFD945" stop-opacity="0"/>
<stop offset="1" stop-color="#FBED21"/>
</linearGradient>
<linearGradient id="paint24_linear_4203_13114" x1="24.1865" y1="34.9181" x2="30.8263" y2="40.0256" gradientUnits="userSpaceOnUse">
<stop stop-color="#FFD945"/>
<stop offset="0.3043" stop-color="#FFCD3E"/>
<stop offset="0.8558" stop-color="#FFAD2B"/>
<stop offset="1" stop-color="#FFA325"/>
</linearGradient>
<linearGradient id="paint25_linear_4203_13114" x1="27.0948" y1="37.8829" x2="24.6196" y2="33.3294" gradientUnits="userSpaceOnUse">
<stop stop-color="#FFD945" stop-opacity="0"/>
<stop offset="1" stop-color="#FBED21"/>
</linearGradient>
<linearGradient id="paint26_linear_4203_13114" x1="28.2415" y1="36.2453" x2="23.96" y2="24.9581" gradientUnits="userSpaceOnUse">
<stop stop-color="#E87264" stop-opacity="0"/>
<stop offset="1" stop-color="#FF7044"/>
</linearGradient>
<linearGradient id="paint27_linear_4203_13114" x1="16.7276" y1="32.0915" x2="26.5429" y2="32.0915" gradientUnits="userSpaceOnUse">
<stop stop-color="#FFD945"/>
<stop offset="0.3043" stop-color="#FFCD3E"/>
<stop offset="0.8558" stop-color="#FFAD2B"/>
<stop offset="1" stop-color="#FFA325"/>
</linearGradient>
<linearGradient id="paint28_linear_4203_13114" x1="24.1873" y1="28.5638" x2="27.0564" y2="30.859" gradientUnits="userSpaceOnUse">
<stop stop-color="#FFD945"/>
<stop offset="0.3043" stop-color="#FFCD3E"/>
<stop offset="0.8558" stop-color="#FFAD2B"/>
<stop offset="1" stop-color="#FFA325"/>
</linearGradient>
<linearGradient id="paint29_linear_4203_13114" x1="25.0275" y1="29.5646" x2="21.941" y2="25.1609" gradientUnits="userSpaceOnUse">
<stop stop-color="#FFD945" stop-opacity="0"/>
<stop offset="1" stop-color="#FBED21"/>
</linearGradient>
<linearGradient id="paint30_linear_4203_13114" x1="19.2646" y1="30.6551" x2="25.9045" y2="35.7626" gradientUnits="userSpaceOnUse">
<stop stop-color="#FFD945"/>
<stop offset="0.3043" stop-color="#FFCD3E"/>
<stop offset="0.8558" stop-color="#FFAD2B"/>
<stop offset="1" stop-color="#FFA325"/>
</linearGradient>
<linearGradient id="paint31_linear_4203_13114" x1="22.173" y1="33.6198" x2="19.6978" y2="29.0663" gradientUnits="userSpaceOnUse">
<stop stop-color="#FFD945" stop-opacity="0"/>
<stop offset="1" stop-color="#FBED21"/>
</linearGradient>
<linearGradient id="paint32_linear_4203_13114" x1="21.6502" y1="5.47788" x2="22.4664" y2="6.29406" gradientUnits="userSpaceOnUse">
<stop stop-color="#FFD945"/>
<stop offset="0.3043" stop-color="#FFCD3E"/>
<stop offset="0.8558" stop-color="#FFAD2B"/>
<stop offset="1" stop-color="#FFA325"/>
</linearGradient>
<linearGradient id="paint33_linear_4203_13114" x1="21.696" y1="5.97653" x2="24.0796" y2="6.86079" gradientUnits="userSpaceOnUse">
<stop stop-color="#E87264" stop-opacity="0"/>
<stop offset="1" stop-color="#FF7044"/>
</linearGradient>
<linearGradient id="paint34_linear_4203_13114" x1="21.3355" y1="6.28087" x2="23.9815" y2="7.29748" gradientUnits="userSpaceOnUse">
<stop stop-color="#E87264" stop-opacity="0"/>
<stop offset="1" stop-color="#FF7044"/>
</linearGradient>
<linearGradient id="paint35_linear_4203_13114" x1="22.4189" y1="5.98395" x2="20.7122" y2="5.12409" gradientUnits="userSpaceOnUse">
<stop stop-color="#FFD945" stop-opacity="0"/>
<stop offset="0.4415" stop-color="#FEE038" stop-opacity="0.442"/>
<stop offset="1" stop-color="#FBED21"/>
</linearGradient>
<linearGradient id="paint36_linear_4203_13114" x1="22.4666" y1="6.71787" x2="21.6504" y2="7.534" gradientUnits="userSpaceOnUse">
<stop stop-color="#FFD945"/>
<stop offset="0.3043" stop-color="#FFCD3E"/>
<stop offset="0.8558" stop-color="#FFAD2B"/>
<stop offset="1" stop-color="#FFA325"/>
</linearGradient>
<linearGradient id="paint37_linear_4203_13114" x1="21.9678" y1="6.76386" x2="21.0834" y2="9.14747" gradientUnits="userSpaceOnUse">
<stop stop-color="#E87264" stop-opacity="0"/>
<stop offset="1" stop-color="#FF7044"/>
</linearGradient>
<linearGradient id="paint38_linear_4203_13114" x1="21.6634" y1="6.40327" x2="20.6467" y2="9.04933" gradientUnits="userSpaceOnUse">
<stop stop-color="#E87264" stop-opacity="0"/>
<stop offset="1" stop-color="#FF7044"/>
</linearGradient>
<linearGradient id="paint39_linear_4203_13114" x1="21.9598" y1="7.48686" x2="22.8198" y2="5.78006" gradientUnits="userSpaceOnUse">
<stop stop-color="#FFD945" stop-opacity="0"/>
<stop offset="0.4415" stop-color="#FEE038" stop-opacity="0.442"/>
<stop offset="1" stop-color="#FBED21"/>
</linearGradient>
<radialGradient id="paint40_radial_4203_13114" cx="0" cy="0" r="1" gradientUnits="userSpaceOnUse" gradientTransform="translate(20.7948 6.3526) scale(1.25409 1.25411)">
<stop stop-color="#FFD945"/>
<stop offset="0.4169" stop-color="#FFD744"/>
<stop offset="0.6278" stop-color="#FFCF3F"/>
<stop offset="0.7926" stop-color="#FFC237"/>
<stop offset="0.9326" stop-color="#FFAF2C"/>
<stop offset="1" stop-color="#FFA325"/>
</radialGradient>
<linearGradient id="paint41_linear_4203_13114" x1="21.2598" y1="6.91391" x2="20.0558" y2="5.70988" gradientUnits="userSpaceOnUse">
<stop stop-color="#FFD945" stop-opacity="0"/>
<stop offset="1" stop-color="#FBED21"/>
</linearGradient>
<linearGradient id="paint42_linear_4203_13114" x1="21.5105" y1="6.77692" x2="23.3855" y2="5.18994" gradientUnits="userSpaceOnUse">
<stop stop-color="#E87264" stop-opacity="0"/>
<stop offset="1" stop-color="#FF7044"/>
</linearGradient>
<linearGradient id="paint43_linear_4203_13114" x1="21.0829" y1="6.42951" x2="21.0829" y2="5.48043" gradientUnits="userSpaceOnUse">
<stop stop-color="white" stop-opacity="0"/>
<stop offset="1" stop-color="white"/>
</linearGradient>
<linearGradient id="paint44_linear_4203_13114" x1="27.9217" y1="15.3553" x2="33.6114" y2="15.3553" gradientUnits="userSpaceOnUse">
<stop stop-color="#4AB272"/>
<stop offset="0.3386" stop-color="#47B071"/>
<stop offset="0.5502" stop-color="#3FA870"/>
<stop offset="0.727" stop-color="#309B6D"/>
<stop offset="0.8837" stop-color="#1C8869"/>
<stop offset="1" stop-color="#077565"/>
</linearGradient>
<linearGradient id="paint45_linear_4203_13114" x1="0.0341243" y1="16.3921" x2="5.7238" y2="16.3921" gradientUnits="userSpaceOnUse">
<stop stop-color="#4AB272"/>
<stop offset="0.3386" stop-color="#47B071"/>
<stop offset="0.5502" stop-color="#3FA870"/>
<stop offset="0.727" stop-color="#309B6D"/>
<stop offset="0.8837" stop-color="#1C8869"/>
<stop offset="1" stop-color="#077565"/>
</linearGradient>
<linearGradient id="paint46_linear_4203_13114" x1="24.9121" y1="10.8107" x2="28.9356" y2="10.8107" gradientUnits="userSpaceOnUse">
<stop stop-color="#4AB272"/>
<stop offset="0.3386" stop-color="#47B071"/>
<stop offset="0.5502" stop-color="#3FA870"/>
<stop offset="0.727" stop-color="#309B6D"/>
<stop offset="0.8837" stop-color="#1C8869"/>
<stop offset="1" stop-color="#077565"/>
</linearGradient>
<linearGradient id="paint47_linear_4203_13114" x1="32.0791" y1="7.48745" x2="36.1026" y2="7.48745" gradientUnits="userSpaceOnUse">
<stop stop-color="#4AB272"/>
<stop offset="0.3386" stop-color="#47B071"/>
<stop offset="0.5502" stop-color="#3FA870"/>
<stop offset="0.727" stop-color="#309B6D"/>
<stop offset="0.8837" stop-color="#1C8869"/>
<stop offset="1" stop-color="#077565"/>
</linearGradient>
<linearGradient id="paint48_linear_4203_13114" x1="4.30954" y1="8.10804" x2="8.33305" y2="8.10804" gradientUnits="userSpaceOnUse">
<stop stop-color="#4AB272"/>
<stop offset="0.3386" stop-color="#47B071"/>
<stop offset="0.5502" stop-color="#3FA870"/>
<stop offset="0.727" stop-color="#309B6D"/>
<stop offset="0.8837" stop-color="#1C8869"/>
<stop offset="1" stop-color="#077565"/>
</linearGradient>
</defs>
</svg>
