<svg width="46" height="47" viewBox="0 0 46 47" fill="none" xmlns="http://www.w3.org/2000/svg">
<path d="M33.046 22.8487L32.0467 17.608C31.3014 13.6989 27.8834 10.8711 23.904 10.8711H20.1547C16.1753 10.8711 12.7574 13.6989 12.012 17.608L11.4454 20.5793C10.901 23.4347 10.0307 26.2282 8.72906 28.8273C8.34851 29.5872 8.14867 30.4533 8.1861 31.3695C8.29435 34.0202 10.6273 36.301 13.2796 36.3529C13.299 36.3533 13.3185 36.3536 13.3379 36.3537C14.5413 36.3641 15.6999 36.8331 16.5438 37.691C17.4871 38.6499 18.799 39.2446 20.2504 39.2446C22.0119 39.2446 23.5684 38.3689 24.5094 37.0293C24.8123 36.598 25.3092 36.3529 25.8362 36.3539H25.8453C26.0717 36.3539 26.2942 36.3371 26.5117 36.3049C26.9218 36.2442 27.3367 36.3488 27.6752 36.5882C28.5907 37.2358 29.7244 37.5953 30.9448 37.5336C33.5566 37.4014 35.6871 35.3106 35.8646 32.7015C35.9284 31.7626 35.7427 30.8729 35.3674 30.0914C34.266 27.7975 33.5225 25.3483 33.046 22.8487Z" fill="url(#paint0_linear_4188_13079)"/>
<path d="M13.3839 36.3538C16.257 36.3538 18.5861 34.0247 18.5861 31.1515C18.5861 28.2784 16.257 25.9492 13.3839 25.9492C10.5108 25.9492 8.18164 28.2784 8.18164 31.1515C8.18164 34.0247 10.5108 36.3538 13.3839 36.3538Z" fill="url(#paint1_linear_4188_13079)"/>
<path d="M20.2501 39.2447C23.1232 39.2447 25.4523 36.9155 25.4523 34.0424C25.4523 31.1692 23.1232 28.8401 20.2501 28.8401C17.377 28.8401 15.0479 31.1692 15.0479 34.0424C15.0479 36.9155 17.377 39.2447 20.2501 39.2447Z" fill="url(#paint2_linear_4188_13079)"/>
<path d="M30.6749 37.5404C33.548 37.5404 35.8771 35.2112 35.8771 32.3381C35.8771 29.4649 33.548 27.1357 30.6749 27.1357C27.8018 27.1357 25.4727 29.4649 25.4727 32.3381C25.4727 35.2112 27.8018 37.5404 30.6749 37.5404Z" fill="url(#paint3_linear_4188_13079)"/>
<path d="M25.0497 16.9948C24.673 16.8784 24.3152 16.7944 23.9763 16.7427C23.8128 16.7177 23.6477 16.6975 23.4813 16.6815C23.4799 16.6808 23.4786 16.68 23.4772 16.6793L22.7146 15.8894C22.564 15.7911 22.4006 15.7417 22.225 15.7417C22.024 15.7417 21.8545 15.7885 21.7165 15.8815C21.5783 15.9747 21.5094 16.0854 21.5094 16.2131V16.7021C20.4172 16.8557 19.5163 17.2591 18.8072 17.9121C18.0977 18.565 17.7432 19.4609 17.7432 20.6003C17.7432 21.0649 17.8247 21.4886 17.988 21.8714C18.151 22.2545 18.3394 22.5681 18.553 22.813L21.5094 25.7722V27.5303C21.0198 27.4426 20.4861 27.1945 19.9088 26.7864C19.3312 26.3786 18.9231 26.1743 18.6848 26.1743C18.3458 26.1743 18.0475 26.3503 17.7903 26.7016C17.5329 27.0533 17.4043 27.4049 17.4043 27.7562C17.4043 28.2141 17.6289 28.6371 18.0775 29.0253L25.4497 36.3976C25.5744 36.3684 25.7034 36.3534 25.8343 36.3537H25.8434C26.0698 36.3537 26.2923 36.3369 26.5098 36.3047C26.9199 36.244 27.3347 36.3486 27.6732 36.588C28.5887 37.2356 29.7225 37.5951 30.9429 37.5333C33.5547 37.4012 35.6852 35.3104 35.8626 32.7013C35.9264 31.7625 35.7408 30.8727 35.3655 30.0912C34.5988 28.4947 34.006 26.8229 33.5556 25.1113L25.963 17.5185C25.7305 17.2858 25.4264 17.1114 25.0497 16.9948Z" fill="url(#paint4_linear_4188_13079)"/>
<path d="M26.415 24.6867C26.2578 24.285 26.0695 23.9522 25.85 23.6886C25.6302 23.425 25.3384 23.1739 24.9743 22.9353C24.6101 22.697 24.2838 22.5149 23.9952 22.3892C23.7063 22.2639 23.355 22.1194 22.9407 21.9561V19.2067C23.3926 19.2443 23.8286 19.37 24.2494 19.5833C24.6698 19.7969 24.9679 19.9034 25.1438 19.9034C25.5078 19.9034 25.7935 19.7248 26.0007 19.3676C26.2078 19.0104 26.3114 18.6655 26.3114 18.3337C26.3114 18.0233 26.1952 17.7517 25.9631 17.5186C25.7306 17.2858 25.4264 17.1114 25.0498 16.9948C24.6732 16.8783 24.3153 16.7944 23.9764 16.7427C23.6375 16.6909 23.2919 16.6585 22.9408 16.6456V16.211C22.9408 16.0951 22.8654 15.988 22.7147 15.8894C22.5641 15.7911 22.4007 15.7417 22.2251 15.7417C22.024 15.7417 21.8546 15.7885 21.7166 15.8815C21.5784 15.9747 21.5095 16.0854 21.5095 16.2131V16.7021C20.4173 16.8557 19.5164 17.2591 18.8073 17.9121C18.0978 18.565 17.7433 19.4609 17.7433 20.6003C17.7433 21.0649 17.8248 21.4886 17.988 21.8714C18.151 22.2545 18.3394 22.5681 18.5531 22.813C18.7663 23.0578 19.0677 23.2964 19.4569 23.5286C19.8459 23.761 20.1725 23.9334 20.4361 24.0464C20.6997 24.1595 21.0575 24.304 21.5094 24.4796V27.5303C21.0198 27.4426 20.4861 27.1946 19.9088 26.7865C19.3312 26.3787 18.9231 26.1744 18.6848 26.1744C18.3458 26.1744 18.0475 26.3503 17.7903 26.7017C17.5329 27.0533 17.4043 27.405 17.4043 27.7563C17.4043 28.3715 17.8091 28.9238 18.6189 29.4134C19.4287 29.903 20.392 30.1666 21.5095 30.2043V30.6751C21.5095 30.8131 21.5784 30.9323 21.7166 31.0329C21.8546 31.1332 22.0241 31.1835 22.2251 31.1835C22.4007 31.1835 22.5641 31.13 22.7147 31.0234C22.8654 30.9166 22.9408 30.8004 22.9408 30.6751V30.129C24.0706 29.9407 24.9712 29.4951 25.6429 28.7919C26.3144 28.089 26.6504 27.1662 26.6504 26.0237C26.6503 25.5341 26.5718 25.0886 26.415 24.6867ZM21.6978 21.5042C20.8943 21.1652 20.4926 20.7698 20.4926 20.3178C20.4926 19.7782 20.8943 19.4266 21.6978 19.2632V21.5042ZM22.7522 27.5114V24.988C23.5178 25.3523 23.9009 25.7977 23.9009 26.325C23.9009 26.9402 23.5179 27.3357 22.7522 27.5114Z" fill="url(#paint5_linear_4188_13079)"/>
<path d="M24.5843 10.8709H19.4741L17.1492 6.41392C16.806 5.75598 17.1979 4.9537 17.9277 4.81982L19.4502 4.54064C21.1553 4.22799 22.903 4.22799 24.6081 4.54064L26.1306 4.81982C26.8605 4.95362 27.2524 5.7559 26.9091 6.41392L24.5843 10.8709Z" fill="url(#paint6_linear_4188_13079)"/>
<path d="M22.8798 10.8709H21.1803L20.4071 6.41392C20.2929 5.75598 20.4233 4.9537 20.666 4.81982L21.1724 4.54064C21.7394 4.22799 22.3207 4.22799 22.8878 4.54064L23.3941 4.81982C23.6369 4.95362 23.7672 5.7559 23.653 6.41392L22.8798 10.8709Z" fill="url(#paint7_linear_4188_13079)"/>
<path d="M26.8328 5.26818C26.9325 5.40989 26.8823 5.60742 26.7278 5.68571C26.0028 6.05447 25.1454 6.05447 24.4203 5.68571L23.7794 5.36021C23.0543 4.99146 22.1969 4.99146 21.4719 5.36021L20.8318 5.68571C20.1067 6.05447 19.2493 6.05447 18.5243 5.68571L17.8538 5.34468C17.619 5.22522 17.6627 4.86991 17.9217 4.8212C17.9238 4.82075 17.9261 4.82038 17.9282 4.82001L19.4507 4.5403C21.1555 4.2281 22.9036 4.2281 24.6084 4.5403L26.1309 4.82001C26.4316 4.87492 26.6745 5.04308 26.8328 5.26818Z" fill="url(#paint8_linear_4188_13079)"/>
<path d="M22.0282 11.3706C20.9205 11.3706 19.872 11.2991 19.0128 11.1668C18.7298 11.1233 18.54 10.8535 18.5971 10.5729C18.6502 10.312 18.898 10.1383 19.1612 10.1787C19.9682 10.3024 20.9834 10.3716 22.0282 10.3716C23.0731 10.3716 24.0882 10.3024 24.8953 10.1787C25.1585 10.1383 25.4063 10.3119 25.4594 10.5729C25.5165 10.8535 25.3266 11.1233 25.0437 11.1668C24.1845 11.2991 23.136 11.3706 22.0282 11.3706Z" fill="url(#paint9_linear_4188_13079)"/>
<path d="M14.8968 42.4813H6.09415C5.7691 42.4813 5.52833 42.1792 5.60087 41.8623L6.33366 38.6585C6.43115 38.2324 6.81021 37.9302 7.24739 37.9302H13.7437C14.1809 37.9302 14.56 38.2324 14.6575 38.6585L15.3903 41.8623C15.4626 42.1792 15.2219 42.4813 14.8968 42.4813Z" fill="url(#paint10_linear_4188_13079)"/>
<path d="M21.2753 35.1686C21.3781 35.0518 21.4278 34.889 21.3896 34.7217L20.6568 31.5179C20.5593 31.0917 20.1802 30.7896 19.743 30.7896H13.2467C12.8789 30.7896 12.5529 31.0039 12.4004 31.3256L6.49769 38.3053C6.42067 38.4079 6.36374 38.5273 6.33363 38.6587L5.60084 41.8625C5.52838 42.1794 5.76916 42.4814 6.09413 42.4814H14.8969C15.1196 42.4814 15.3026 42.3396 15.3725 42.1484L21.2753 35.1686Z" fill="url(#paint11_linear_4188_13079)"/>
<path d="M20.6567 31.5179C20.6529 31.5013 20.6479 31.4853 20.6433 31.4691C20.5328 31.4237 20.4128 31.3982 20.2876 31.3982H13.7912C13.4234 31.3982 13.0974 31.6125 12.9449 31.9342L7.04212 38.914C6.9651 39.0166 6.90817 39.1361 6.87806 39.2674L6.14527 42.4712C6.14453 42.4746 6.14423 42.4781 6.14355 42.4815H14.8968C15.1195 42.4815 15.3025 42.3397 15.3724 42.1485L21.2752 35.1687C21.378 35.052 21.4276 34.8892 21.3894 34.7218L20.6567 31.5179Z" fill="url(#paint12_linear_4188_13079)"/>
<path d="M14.8968 42.4813H6.09415C5.7691 42.4813 5.52833 42.1792 5.60087 41.8623L6.33366 38.6585C6.43115 38.2324 6.81021 37.9302 7.24739 37.9302H13.7437C14.1809 37.9302 14.56 38.2324 14.6575 38.6585L15.3903 41.8623C15.4626 42.1792 15.2219 42.4813 14.8968 42.4813Z" fill="url(#paint13_linear_4188_13079)"/>
<path d="M14.6578 38.6586C14.6468 38.6102 14.6316 38.5637 14.6136 38.5188C14.5049 38.475 14.387 38.4504 14.2642 38.4504H7.76785C7.33067 38.4504 6.95161 38.7526 6.85412 39.1788L6.12133 42.3826C6.11371 42.4158 6.11035 42.4488 6.10938 42.4813H14.8973C15.2223 42.4813 15.4631 42.1793 15.3906 41.8625L14.6578 38.6586Z" fill="url(#paint14_linear_4188_13079)"/>
<path d="M25.39 42.4815H16.5874C16.2623 42.4815 16.0215 42.1795 16.094 41.8626L16.8268 38.6587C16.9243 38.2326 17.3033 37.9304 17.7405 37.9304H24.2369C24.6741 37.9304 25.0531 38.2326 25.1506 38.6587L25.8834 41.8626C25.9559 42.1795 25.7151 42.4815 25.39 42.4815Z" fill="url(#paint15_linear_4188_13079)"/>
<path d="M31.7685 35.1688C31.8713 35.0521 31.921 34.8893 31.8827 34.7219L31.1499 31.5181C31.0525 31.092 30.6734 30.7898 30.2362 30.7898H23.7399C23.3721 30.7898 23.0461 31.0041 22.8936 31.3258L16.9909 38.3056C16.9138 38.4081 16.8569 38.5276 16.8268 38.6589L16.094 41.8627C16.0215 42.1796 16.2623 42.4817 16.5874 42.4817H25.39C25.6127 42.4817 25.7958 42.3398 25.8657 42.1486L31.7685 35.1688Z" fill="url(#paint16_linear_4188_13079)"/>
<path d="M31.1498 31.5181C31.146 31.5015 31.141 31.4855 31.1364 31.4693C31.0259 31.4239 30.9059 31.3984 30.7806 31.3984H24.2842C23.9164 31.3984 23.5904 31.6128 23.438 31.9345L17.5352 38.9143C17.4582 39.0168 17.4013 39.1363 17.3712 39.2676L16.6384 42.4715C16.6376 42.4749 16.6374 42.4783 16.6367 42.4818H25.3899C25.6126 42.4818 25.7957 42.3399 25.8656 42.1487L31.7683 35.169C31.8711 35.0522 31.9208 34.8894 31.8826 34.7221L31.1498 31.5181Z" fill="url(#paint17_linear_4188_13079)"/>
<path d="M25.39 42.4815H16.5874C16.2623 42.4815 16.0215 42.1795 16.094 41.8626L16.8268 38.6587C16.9243 38.2326 17.3033 37.9304 17.7405 37.9304H24.2369C24.6741 37.9304 25.0531 38.2326 25.1506 38.6587L25.8834 41.8626C25.9559 42.1795 25.7151 42.4815 25.39 42.4815Z" fill="url(#paint18_linear_4188_13079)"/>
<path d="M25.1501 38.6589C25.139 38.6105 25.1239 38.5639 25.1059 38.519C24.9972 38.4753 24.8793 38.4507 24.7565 38.4507H18.2601C17.8229 38.4507 17.4439 38.7529 17.3464 39.179L16.6136 42.3828C16.606 42.4161 16.6025 42.449 16.6016 42.4816H25.3894C25.7145 42.4816 25.9553 42.1795 25.8827 41.8627L25.1501 38.6589Z" fill="url(#paint19_linear_4188_13079)"/>
<path d="M31.1499 31.5182C31.1002 31.3011 30.9772 31.1165 30.8109 30.9873L17.1197 38.1532L16.9908 38.3057C16.9138 38.4083 16.8568 38.5277 16.8268 38.6591L16.094 41.8629C16.0215 42.1797 16.2623 42.4817 16.5874 42.4817H25.39C25.6127 42.4817 25.7958 42.3399 25.8657 42.1487L31.7684 35.169C31.8712 35.0522 31.9209 34.8894 31.8827 34.7221L31.1499 31.5182Z" fill="url(#paint20_linear_4188_13079)"/>
<path d="M35.1469 42.4815H26.3442C26.0192 42.4815 25.7784 42.1795 25.8508 41.8626L26.5836 38.6587C26.6811 38.2326 27.0602 37.9304 27.4974 37.9304H33.9937C34.4309 37.9304 34.81 38.2326 34.9074 38.6587L35.6402 41.8626C35.7127 42.1795 35.4719 42.4815 35.1469 42.4815Z" fill="url(#paint21_linear_4188_13079)"/>
<path d="M41.5253 35.1688C41.6281 35.0521 41.6778 34.8893 41.6396 34.7219L40.9068 31.5181C40.8093 31.092 40.4302 30.7898 39.9931 30.7898H33.4967C33.1289 30.7898 32.8029 31.0041 32.6505 31.3258L26.7477 38.3056C26.6707 38.4081 26.6137 38.5276 26.5836 38.6589L25.8508 41.8627C25.7784 42.1796 26.0192 42.4817 26.3442 42.4817H35.1469C35.3696 42.4817 35.5526 42.3398 35.6225 42.1486L41.5253 35.1688Z" fill="url(#paint22_linear_4188_13079)"/>
<path d="M40.9076 31.5181C40.9038 31.5015 40.8988 31.4855 40.8942 31.4693C40.7838 31.4239 40.6637 31.3984 40.5384 31.3984H34.042C33.6743 31.3984 33.3482 31.6128 33.1958 31.9345L27.293 38.9143C27.216 39.0168 27.1591 39.1363 27.129 39.2676L26.3963 42.4715C26.3954 42.4749 26.3952 42.4783 26.3945 42.4818H35.1478C35.3705 42.4818 35.5535 42.3399 35.6234 42.1487L41.5262 35.169C41.629 35.0522 41.6787 34.8894 41.6404 34.7221L40.9076 31.5181Z" fill="url(#paint23_linear_4188_13079)"/>
<path d="M35.1469 42.4815H26.3442C26.0192 42.4815 25.7784 42.1795 25.8508 41.8626L26.5836 38.6587C26.6811 38.2326 27.0602 37.9304 27.4974 37.9304H33.9937C34.4309 37.9304 34.81 38.2326 34.9074 38.6587L35.6402 41.8626C35.7127 42.1795 35.4719 42.4815 35.1469 42.4815Z" fill="url(#paint24_linear_4188_13079)"/>
<path d="M34.9088 38.6589C34.8977 38.6105 34.8826 38.5639 34.8646 38.519C34.7559 38.4753 34.638 38.4507 34.5152 38.4507H28.0188C27.5816 38.4507 27.2026 38.7529 27.1051 39.179L26.3723 42.3828C26.3647 42.4161 26.3613 42.449 26.3604 42.4816H35.1482C35.4733 42.4816 35.7141 42.1795 35.6415 41.8627L34.9088 38.6589Z" fill="url(#paint25_linear_4188_13079)"/>
<path d="M36.6667 30.793L36.6686 30.7898H33.4979C33.1301 30.7898 32.8041 31.0041 32.6517 31.3258L31.4351 32.7643L31.1501 31.5181C31.0526 31.092 30.6735 30.7898 30.2363 30.7898H24.5766L21.8258 34.0425C21.7488 34.1451 21.6918 34.2646 21.6617 34.3959L20.929 37.5997C20.8786 37.8198 20.9796 38.0325 21.1547 38.142L25.4851 42.4725C25.6639 42.4387 25.8061 42.3118 25.8658 42.1486L25.8684 42.1454C25.9375 42.3382 26.1214 42.4816 26.3453 42.4816H35.148C35.3707 42.4816 35.5537 42.3397 35.6236 42.1486L41.3046 35.4311L36.6667 30.793Z" fill="url(#paint26_linear_4188_13079)"/>
<path d="M30.2251 38.2187H21.4223C21.0973 38.2187 20.8565 37.9167 20.929 37.5999L21.6618 34.396C21.7592 33.9699 22.1383 33.6677 22.5755 33.6677H29.0718C29.509 33.6677 29.8881 33.9699 29.9856 34.396L30.7184 37.5999C30.7908 37.9167 30.5501 38.2187 30.2251 38.2187Z" fill="url(#paint27_linear_4188_13079)"/>
<path d="M36.6035 30.9057C36.7063 30.789 36.756 30.6262 36.7178 30.4587L35.985 27.2549C35.8875 26.8288 35.5084 26.5266 35.0712 26.5266H28.5749C28.2071 26.5266 27.8811 26.7409 27.7286 27.0626L21.8258 34.0424C21.7488 34.145 21.6918 34.2645 21.6618 34.3958L20.929 37.5996C20.8565 37.9165 21.0973 38.2186 21.4223 38.2186H30.225C30.4477 38.2186 30.6307 38.0767 30.7007 37.8855L36.6035 30.9057Z" fill="url(#paint28_linear_4188_13079)"/>
<path d="M35.9858 27.2549C35.982 27.2383 35.977 27.2223 35.9724 27.2062C35.862 27.1607 35.7419 27.1353 35.6166 27.1353H29.1202C28.7525 27.1353 28.4264 27.3496 28.274 27.6713L22.3711 34.6511C22.2941 34.7537 22.2372 34.8731 22.2072 35.0045L21.4744 38.2083C21.4736 38.2117 21.4733 38.2151 21.4727 38.2186H30.2259C30.4486 38.2186 30.6316 38.0767 30.7015 37.8855L36.6043 30.9058C36.7071 30.789 36.7568 30.6262 36.7186 30.4588L35.9858 27.2549Z" fill="url(#paint29_linear_4188_13079)"/>
<path d="M30.2251 38.2187H21.4223C21.0973 38.2187 20.8565 37.9167 20.929 37.5999L21.6618 34.396C21.7592 33.9699 22.1383 33.6677 22.5755 33.6677H29.0718C29.509 33.6677 29.8881 33.9699 29.9856 34.396L30.7184 37.5999C30.7908 37.9167 30.5501 38.2187 30.2251 38.2187Z" fill="url(#paint30_linear_4188_13079)"/>
<path d="M29.9869 34.396C29.9759 34.3475 29.9607 34.301 29.9427 34.2561C29.834 34.2123 29.7161 34.1877 29.5933 34.1877H23.0969C22.6598 34.1877 22.2807 34.4899 22.1832 34.9161L21.4504 38.1199C21.4428 38.1531 21.4394 38.1861 21.4385 38.2186H30.2264C30.5514 38.2186 30.7922 37.9166 30.7197 37.5998L29.9869 34.396Z" fill="url(#paint31_linear_4188_13079)"/>
<path d="M27.3237 9.49416L26.0468 10.771C25.8214 10.9964 25.456 10.9964 25.2306 10.771C25.0052 10.5456 25.0052 10.1801 25.2306 9.95473L26.5074 8.67783C26.7328 8.45244 27.0983 8.45244 27.3237 8.67783C27.5491 8.90322 27.5491 9.26869 27.3237 9.49416Z" fill="url(#paint32_linear_4188_13079)"/>
<path d="M26.5615 8.93709C26.6979 9.0735 26.7953 9.23405 26.8538 9.40498C26.9415 9.6613 26.8724 9.94541 26.6809 10.137L26.0574 10.7605C25.8287 10.9892 25.4473 10.9963 25.2228 10.7634C25.0052 10.5375 25.0078 10.1778 25.2305 9.95505L26.3906 8.79492C26.4509 8.83609 26.5082 8.88375 26.5615 8.93709Z" fill="url(#paint33_linear_4188_13079)"/>
<path d="M25.9209 9.5773C26.0857 9.7421 26.1936 9.94225 26.2447 10.1532C26.2956 10.3634 26.2327 10.5849 26.0798 10.7377L26.0574 10.7601C25.8287 10.9888 25.4473 10.9959 25.2228 10.763C25.0052 10.5371 25.0078 10.1774 25.2305 9.95465L25.7501 9.43506C25.8104 9.4763 25.8676 9.52396 25.9209 9.5773Z" fill="url(#paint34_linear_4188_13079)"/>
<path d="M26.736 8.70251L25.4591 9.9794C25.2337 10.2048 25.2337 10.5703 25.4591 10.7957C25.527 10.8636 25.6077 10.9106 25.6934 10.9377C25.8223 10.9254 25.9479 10.8699 26.0466 10.7712L27.3234 9.4944C27.5488 9.26901 27.5488 8.90354 27.3234 8.67815C27.2555 8.61024 27.1748 8.56318 27.0891 8.53613C26.9602 8.54831 26.8346 8.60374 26.736 8.70251Z" fill="url(#paint35_linear_4188_13079)"/>
<path d="M26.5104 12.0664L25.2335 10.7895C25.0081 10.5641 25.0081 10.1986 25.2335 9.97324C25.4589 9.74785 25.8243 9.74785 26.0497 9.97324L27.3266 11.2501C27.552 11.4755 27.552 11.8409 27.3266 12.0663C27.1012 12.2918 26.7358 12.2918 26.5104 12.0664Z" fill="url(#paint36_linear_4188_13079)"/>
<path d="M27.0673 11.3042C26.9309 11.4406 26.7703 11.538 26.5994 11.5965C26.3431 11.6842 26.059 11.6151 25.8674 11.4236L25.2439 10.8001C25.0152 10.5714 25.0081 10.1899 25.241 9.96552C25.467 9.7479 25.8266 9.75044 26.0494 9.97322L27.2095 11.1333C27.1683 11.1936 27.1207 11.2508 27.0673 11.3042Z" fill="url(#paint37_linear_4188_13079)"/>
<path d="M26.4267 10.6636C26.2619 10.8284 26.0618 10.9363 25.8508 10.9874C25.6406 11.0383 25.4192 10.9754 25.2663 10.8225L25.2439 10.8001C25.0152 10.5714 25.0081 10.1899 25.241 9.96552C25.467 9.7479 25.8266 9.75044 26.0494 9.97322L26.5689 10.4928C26.5278 10.553 26.4801 10.6102 26.4267 10.6636Z" fill="url(#paint38_linear_4188_13079)"/>
<path d="M27.3015 11.4791L26.0247 10.2022C25.7993 9.97686 25.4338 9.97686 25.2084 10.2022C25.1405 10.2702 25.0934 10.3509 25.0664 10.4366C25.0787 10.5655 25.1342 10.6911 25.2329 10.7897L26.5097 12.0666C26.7351 12.292 27.1006 12.292 27.326 12.0666C27.3939 11.9987 27.4409 11.918 27.468 11.8323C27.4557 11.7034 27.4002 11.5778 27.3015 11.4791Z" fill="url(#paint39_linear_4188_13079)"/>
<path d="M25.2731 11.597C25.829 11.597 26.2796 11.1464 26.2796 10.5905C26.2796 10.0346 25.829 9.58398 25.2731 9.58398C24.7172 9.58398 24.2666 10.0346 24.2666 10.5905C24.2666 11.1464 24.7172 11.597 25.2731 11.597Z" fill="url(#paint40_radial_4188_13079)"/>
<path d="M25.2734 11.4888C25.7696 11.4888 26.1718 11.0865 26.1718 10.5903C26.1718 10.0941 25.7696 9.69189 25.2734 9.69189C24.7772 9.69189 24.375 10.0941 24.375 10.5903C24.375 11.0865 24.7772 11.4888 25.2734 11.4888Z" fill="url(#paint41_linear_4188_13079)"/>
<path d="M25.7217 9.68994C25.7896 9.82539 25.8279 9.97831 25.8279 10.1402C25.8279 10.6961 25.3772 11.1467 24.8213 11.1467C24.6595 11.1467 24.5066 11.1085 24.3711 11.0406C24.5363 11.3704 24.8774 11.5968 25.2714 11.5968C25.8273 11.5968 26.278 11.1462 26.278 10.5903C26.278 10.1962 26.0515 9.85519 25.7217 9.68994Z" fill="url(#paint42_linear_4188_13079)"/>
<path d="M25.952 10.1596C25.952 10.4178 25.6472 10.6272 25.2714 10.6272C24.8955 10.6272 24.5908 10.4178 24.5908 10.1596C24.5908 9.9013 24.8955 9.69189 25.2714 9.69189C25.6472 9.69182 25.952 9.90122 25.952 10.1596Z" fill="url(#paint43_linear_4188_13079)"/>
<path d="M37.6403 19.5085C36.6836 20.132 35.8673 20.9531 35.2492 21.9138C35.1102 22.1299 34.7894 22.1293 34.6512 21.9127C34.0366 20.9498 33.2233 20.1256 32.2689 19.4987C32.057 19.3595 32.0576 19.0431 32.2699 18.9047C33.2266 18.2812 34.0429 17.4601 34.6611 16.4993C34.8001 16.2833 35.1209 16.2839 35.2591 16.5004C35.8738 17.4633 36.687 18.2874 37.6414 18.9144C37.8532 19.0537 37.8526 19.3701 37.6403 19.5085Z" fill="url(#paint44_linear_4188_13079)"/>
<path d="M9.75263 20.5453C8.79595 21.1688 7.97964 21.99 7.36152 22.9507C7.22249 23.1667 6.90171 23.1661 6.7635 22.9496C6.14889 21.9867 5.33557 21.1625 4.3812 20.5355C4.16934 20.3964 4.16993 20.08 4.38225 19.9415C5.33893 19.3181 6.15524 18.4969 6.77336 17.5362C6.91239 17.3201 7.23318 17.3207 7.37138 17.5372C7.98606 18.5001 8.79931 19.3243 9.75375 19.9513C9.96555 20.0905 9.96502 20.407 9.75263 20.5453Z" fill="url(#paint45_linear_4188_13079)"/>
<path d="M33.0122 14.8755C32.3356 15.3164 31.7584 15.8971 31.3213 16.5764C31.223 16.7292 30.9961 16.7288 30.8984 16.5757C30.4637 15.8947 29.8886 15.3119 29.2137 14.8686C29.0639 14.7702 29.0643 14.5463 29.2144 14.4486C29.891 14.0076 30.4682 13.4269 30.9053 12.7476C31.0036 12.5948 31.2305 12.5953 31.3282 12.7484C31.7629 13.4293 32.338 14.0121 33.0129 14.4555C33.1628 14.5539 33.1624 14.7776 33.0122 14.8755Z" fill="url(#paint46_linear_4188_13079)"/>
<path d="M40.1782 11.5523C39.5016 11.9932 38.9244 12.5739 38.4873 13.2532C38.389 13.406 38.1621 13.4055 38.0644 13.2524C37.6297 12.5715 37.0547 11.9887 36.3797 11.5453C36.2299 11.4469 36.2303 11.2231 36.3804 11.1253C37.057 10.6845 37.6342 10.1037 38.0713 9.42438C38.1696 9.2716 38.3965 9.27205 38.4942 9.42513C38.9289 10.1061 39.504 10.6889 40.1789 11.1323C40.3288 11.2306 40.3283 11.4544 40.1782 11.5523Z" fill="url(#paint47_linear_4188_13079)"/>
<path d="M12.4087 12.1728C11.7321 12.6137 11.1549 13.1944 10.7178 13.8738C10.6194 14.0266 10.3926 14.0261 10.2948 13.8731C9.86021 13.1921 9.28512 12.6093 8.61015 12.1659C8.46037 12.0675 8.46074 11.8438 8.6109 11.7459C9.28744 11.305 9.86469 10.7243 10.3018 10.045C10.4001 9.89221 10.627 9.89266 10.7247 10.0457C11.1593 10.7267 11.7345 11.3095 12.4094 11.7529C12.5593 11.8512 12.5588 12.0749 12.4087 12.1728Z" fill="url(#paint48_linear_4188_13079)"/>
<defs>
<linearGradient id="paint0_linear_4188_13079" x1="8.18161" y1="25.0578" x2="35.877" y2="25.0578" gradientUnits="userSpaceOnUse">
<stop stop-color="#FCB37E"/>
<stop offset="0.1704" stop-color="#F0AA76"/>
<stop offset="0.4808" stop-color="#CF9362"/>
<stop offset="0.8934" stop-color="#9B6D42"/>
<stop offset="1" stop-color="#8C6239"/>
</linearGradient>
<linearGradient id="paint1_linear_4188_13079" x1="13.4379" y1="29.4672" x2="12.6888" y2="52.8156" gradientUnits="userSpaceOnUse">
<stop stop-color="#8C6239" stop-opacity="0"/>
<stop offset="1" stop-color="#8C6239"/>
</linearGradient>
<linearGradient id="paint2_linear_4188_13079" x1="20.2566" y1="34.0675" x2="23.5864" y2="46.7759" gradientUnits="userSpaceOnUse">
<stop stop-color="#8C6239" stop-opacity="0"/>
<stop offset="1" stop-color="#8C6239"/>
</linearGradient>
<linearGradient id="paint3_linear_4188_13079" x1="30.5595" y1="33.8178" x2="29.3386" y2="49.4674" gradientUnits="userSpaceOnUse">
<stop stop-color="#005A01" stop-opacity="0"/>
<stop offset="1" stop-color="#005A01"/>
</linearGradient>
<linearGradient id="paint4_linear_4188_13079" x1="31.3192" y1="30.0951" x2="11.4883" y2="18.8745" gradientUnits="userSpaceOnUse">
<stop stop-color="#8C6239" stop-opacity="0"/>
<stop offset="1" stop-color="#8C6239"/>
</linearGradient>
<linearGradient id="paint5_linear_4188_13079" x1="19.7548" y1="21.316" x2="30.6173" y2="30.6801" gradientUnits="userSpaceOnUse">
<stop stop-color="#FFC738"/>
<stop offset="0.1876" stop-color="#FDBF3C"/>
<stop offset="0.4837" stop-color="#F7A848"/>
<stop offset="0.8493" stop-color="#ED835B"/>
<stop offset="1" stop-color="#E97264"/>
</linearGradient>
<linearGradient id="paint6_linear_4188_13079" x1="20.7758" y1="3.25493" x2="24.4386" y2="10.9965" gradientUnits="userSpaceOnUse">
<stop stop-color="#FCB37E"/>
<stop offset="0.1704" stop-color="#F0AA76"/>
<stop offset="0.4808" stop-color="#CF9362"/>
<stop offset="0.8934" stop-color="#9B6D42"/>
<stop offset="1" stop-color="#8C6239"/>
</linearGradient>
<linearGradient id="paint7_linear_4188_13079" x1="21.9797" y1="7.34141" x2="26.9188" y2="14.9997" gradientUnits="userSpaceOnUse">
<stop stop-color="#8C6239" stop-opacity="0"/>
<stop offset="1" stop-color="#8C6239"/>
</linearGradient>
<linearGradient id="paint8_linear_4188_13079" x1="22.2213" y1="4.56451" x2="22.471" y2="7.02021" gradientUnits="userSpaceOnUse">
<stop stop-color="#8C6239" stop-opacity="0"/>
<stop offset="1" stop-color="#8C6239"/>
</linearGradient>
<linearGradient id="paint9_linear_4188_13079" x1="22.0282" y1="10.3789" x2="22.0282" y2="11.5561" gradientUnits="userSpaceOnUse">
<stop stop-color="#FFC738"/>
<stop offset="0.1876" stop-color="#FDBF3C"/>
<stop offset="0.4837" stop-color="#F7A848"/>
<stop offset="0.8493" stop-color="#ED835B"/>
<stop offset="1" stop-color="#E97264"/>
</linearGradient>
<linearGradient id="paint10_linear_4188_13079" x1="5.58787" y1="40.2057" x2="15.4031" y2="40.2057" gradientUnits="userSpaceOnUse">
<stop stop-color="#FFD945"/>
<stop offset="0.3043" stop-color="#FFCD3E"/>
<stop offset="0.8558" stop-color="#FFAD2B"/>
<stop offset="1" stop-color="#FFA325"/>
</linearGradient>
<linearGradient id="paint11_linear_4188_13079" x1="13.0476" y1="36.6783" x2="15.9167" y2="38.9735" gradientUnits="userSpaceOnUse">
<stop stop-color="#FFD945"/>
<stop offset="0.3043" stop-color="#FFCD3E"/>
<stop offset="0.8558" stop-color="#FFAD2B"/>
<stop offset="1" stop-color="#FFA325"/>
</linearGradient>
<linearGradient id="paint12_linear_4188_13079" x1="13.8868" y1="37.6793" x2="10.8003" y2="33.2755" gradientUnits="userSpaceOnUse">
<stop stop-color="#FFD945" stop-opacity="0"/>
<stop offset="1" stop-color="#FBED21"/>
</linearGradient>
<linearGradient id="paint13_linear_4188_13079" x1="8.12488" y1="38.7694" x2="14.7648" y2="43.8768" gradientUnits="userSpaceOnUse">
<stop stop-color="#FFD945"/>
<stop offset="0.3043" stop-color="#FFCD3E"/>
<stop offset="0.8558" stop-color="#FFAD2B"/>
<stop offset="1" stop-color="#FFA325"/>
</linearGradient>
<linearGradient id="paint14_linear_4188_13079" x1="11.0323" y1="41.7343" x2="8.55705" y2="37.1808" gradientUnits="userSpaceOnUse">
<stop stop-color="#FFD945" stop-opacity="0"/>
<stop offset="1" stop-color="#FBED21"/>
</linearGradient>
<linearGradient id="paint15_linear_4188_13079" x1="16.0811" y1="40.2059" x2="25.8963" y2="40.2059" gradientUnits="userSpaceOnUse">
<stop stop-color="#FFD945"/>
<stop offset="0.3043" stop-color="#FFCD3E"/>
<stop offset="0.8558" stop-color="#FFAD2B"/>
<stop offset="1" stop-color="#FFA325"/>
</linearGradient>
<linearGradient id="paint16_linear_4188_13079" x1="23.5408" y1="36.6785" x2="26.4099" y2="38.9738" gradientUnits="userSpaceOnUse">
<stop stop-color="#FFD945"/>
<stop offset="0.3043" stop-color="#FFCD3E"/>
<stop offset="0.8558" stop-color="#FFAD2B"/>
<stop offset="1" stop-color="#FFA325"/>
</linearGradient>
<linearGradient id="paint17_linear_4188_13079" x1="24.3798" y1="37.6795" x2="21.2934" y2="33.2757" gradientUnits="userSpaceOnUse">
<stop stop-color="#FFD945" stop-opacity="0"/>
<stop offset="1" stop-color="#FBED21"/>
</linearGradient>
<linearGradient id="paint18_linear_4188_13079" x1="18.6181" y1="38.7696" x2="25.258" y2="43.8771" gradientUnits="userSpaceOnUse">
<stop stop-color="#FFD945"/>
<stop offset="0.3043" stop-color="#FFCD3E"/>
<stop offset="0.8558" stop-color="#FFAD2B"/>
<stop offset="1" stop-color="#FFA325"/>
</linearGradient>
<linearGradient id="paint19_linear_4188_13079" x1="21.5246" y1="41.7345" x2="19.0493" y2="37.181" gradientUnits="userSpaceOnUse">
<stop stop-color="#FFD945" stop-opacity="0"/>
<stop offset="1" stop-color="#FBED21"/>
</linearGradient>
<linearGradient id="paint20_linear_4188_13079" x1="24.0154" y1="36.5615" x2="24.2219" y2="22.5211" gradientUnits="userSpaceOnUse">
<stop stop-color="white" stop-opacity="0"/>
<stop offset="1" stop-color="white"/>
</linearGradient>
<linearGradient id="paint21_linear_4188_13079" x1="25.8379" y1="40.2059" x2="35.6532" y2="40.2059" gradientUnits="userSpaceOnUse">
<stop stop-color="#FFD945"/>
<stop offset="0.3043" stop-color="#FFCD3E"/>
<stop offset="0.8558" stop-color="#FFAD2B"/>
<stop offset="1" stop-color="#FFA325"/>
</linearGradient>
<linearGradient id="paint22_linear_4188_13079" x1="33.2976" y1="36.6785" x2="36.1667" y2="38.9738" gradientUnits="userSpaceOnUse">
<stop stop-color="#FFD945"/>
<stop offset="0.3043" stop-color="#FFCD3E"/>
<stop offset="0.8558" stop-color="#FFAD2B"/>
<stop offset="1" stop-color="#FFA325"/>
</linearGradient>
<linearGradient id="paint23_linear_4188_13079" x1="34.1377" y1="37.6795" x2="31.0512" y2="33.2757" gradientUnits="userSpaceOnUse">
<stop stop-color="#FFD945" stop-opacity="0"/>
<stop offset="1" stop-color="#FBED21"/>
</linearGradient>
<linearGradient id="paint24_linear_4188_13079" x1="28.3749" y1="38.7696" x2="35.0148" y2="43.8771" gradientUnits="userSpaceOnUse">
<stop stop-color="#FFD945"/>
<stop offset="0.3043" stop-color="#FFCD3E"/>
<stop offset="0.8558" stop-color="#FFAD2B"/>
<stop offset="1" stop-color="#FFA325"/>
</linearGradient>
<linearGradient id="paint25_linear_4188_13079" x1="31.2833" y1="41.7345" x2="28.808" y2="37.181" gradientUnits="userSpaceOnUse">
<stop stop-color="#FFD945" stop-opacity="0"/>
<stop offset="1" stop-color="#FBED21"/>
</linearGradient>
<linearGradient id="paint26_linear_4188_13079" x1="32.4299" y1="40.0969" x2="28.1485" y2="28.8097" gradientUnits="userSpaceOnUse">
<stop stop-color="#E87264" stop-opacity="0"/>
<stop offset="1" stop-color="#FF7044"/>
</linearGradient>
<linearGradient id="paint27_linear_4188_13079" x1="20.9161" y1="35.9432" x2="30.7314" y2="35.9432" gradientUnits="userSpaceOnUse">
<stop stop-color="#FFD945"/>
<stop offset="0.3043" stop-color="#FFCD3E"/>
<stop offset="0.8558" stop-color="#FFAD2B"/>
<stop offset="1" stop-color="#FFA325"/>
</linearGradient>
<linearGradient id="paint28_linear_4188_13079" x1="28.3758" y1="32.4154" x2="31.2449" y2="34.7107" gradientUnits="userSpaceOnUse">
<stop stop-color="#FFD945"/>
<stop offset="0.3043" stop-color="#FFCD3E"/>
<stop offset="0.8558" stop-color="#FFAD2B"/>
<stop offset="1" stop-color="#FFA325"/>
</linearGradient>
<linearGradient id="paint29_linear_4188_13079" x1="29.2159" y1="33.4163" x2="26.1295" y2="29.0125" gradientUnits="userSpaceOnUse">
<stop stop-color="#FFD945" stop-opacity="0"/>
<stop offset="1" stop-color="#FBED21"/>
</linearGradient>
<linearGradient id="paint30_linear_4188_13079" x1="23.4531" y1="34.5068" x2="30.093" y2="39.6143" gradientUnits="userSpaceOnUse">
<stop stop-color="#FFD945"/>
<stop offset="0.3043" stop-color="#FFCD3E"/>
<stop offset="0.8558" stop-color="#FFAD2B"/>
<stop offset="1" stop-color="#FFA325"/>
</linearGradient>
<linearGradient id="paint31_linear_4188_13079" x1="26.3615" y1="37.4716" x2="23.8862" y2="32.9181" gradientUnits="userSpaceOnUse">
<stop stop-color="#FFD945" stop-opacity="0"/>
<stop offset="1" stop-color="#FBED21"/>
</linearGradient>
<linearGradient id="paint32_linear_4188_13079" x1="25.8387" y1="9.32926" x2="26.6549" y2="10.1454" gradientUnits="userSpaceOnUse">
<stop stop-color="#FFD945"/>
<stop offset="0.3043" stop-color="#FFCD3E"/>
<stop offset="0.8558" stop-color="#FFAD2B"/>
<stop offset="1" stop-color="#FFA325"/>
</linearGradient>
<linearGradient id="paint33_linear_4188_13079" x1="25.8845" y1="9.8281" x2="28.268" y2="10.7123" gradientUnits="userSpaceOnUse">
<stop stop-color="#E87264" stop-opacity="0"/>
<stop offset="1" stop-color="#FF7044"/>
</linearGradient>
<linearGradient id="paint34_linear_4188_13079" x1="25.524" y1="10.132" x2="28.17" y2="11.1486" gradientUnits="userSpaceOnUse">
<stop stop-color="#E87264" stop-opacity="0"/>
<stop offset="1" stop-color="#FF7044"/>
</linearGradient>
<linearGradient id="paint35_linear_4188_13079" x1="26.6074" y1="9.83557" x2="24.9006" y2="8.97572" gradientUnits="userSpaceOnUse">
<stop stop-color="#FFD945" stop-opacity="0"/>
<stop offset="0.4415" stop-color="#FEE038" stop-opacity="0.442"/>
<stop offset="1" stop-color="#FBED21"/>
</linearGradient>
<linearGradient id="paint36_linear_4188_13079" x1="26.655" y1="10.5694" x2="25.8389" y2="11.3855" gradientUnits="userSpaceOnUse">
<stop stop-color="#FFD945"/>
<stop offset="0.3043" stop-color="#FFCD3E"/>
<stop offset="0.8558" stop-color="#FFAD2B"/>
<stop offset="1" stop-color="#FFA325"/>
</linearGradient>
<linearGradient id="paint37_linear_4188_13079" x1="26.1563" y1="10.6151" x2="25.2719" y2="12.9988" gradientUnits="userSpaceOnUse">
<stop stop-color="#E87264" stop-opacity="0"/>
<stop offset="1" stop-color="#FF7044"/>
</linearGradient>
<linearGradient id="paint38_linear_4188_13079" x1="25.8519" y1="10.2546" x2="24.8352" y2="12.9006" gradientUnits="userSpaceOnUse">
<stop stop-color="#E87264" stop-opacity="0"/>
<stop offset="1" stop-color="#FF7044"/>
</linearGradient>
<linearGradient id="paint39_linear_4188_13079" x1="26.1483" y1="11.3386" x2="27.0082" y2="9.63177" gradientUnits="userSpaceOnUse">
<stop stop-color="#FFD945" stop-opacity="0"/>
<stop offset="0.4415" stop-color="#FEE038" stop-opacity="0.442"/>
<stop offset="1" stop-color="#FBED21"/>
</linearGradient>
<radialGradient id="paint40_radial_4188_13079" cx="0" cy="0" r="1" gradientUnits="userSpaceOnUse" gradientTransform="translate(24.9833 10.204) scale(1.25409 1.25411)">
<stop stop-color="#FFD945"/>
<stop offset="0.4169" stop-color="#FFD744"/>
<stop offset="0.6278" stop-color="#FFCF3F"/>
<stop offset="0.7926" stop-color="#FFC237"/>
<stop offset="0.9326" stop-color="#FFAF2C"/>
<stop offset="1" stop-color="#FFA325"/>
</radialGradient>
<linearGradient id="paint41_linear_4188_13079" x1="25.4483" y1="10.7651" x2="24.2442" y2="9.5611" gradientUnits="userSpaceOnUse">
<stop stop-color="#FFD945" stop-opacity="0"/>
<stop offset="1" stop-color="#FBED21"/>
</linearGradient>
<linearGradient id="paint42_linear_4188_13079" x1="25.699" y1="10.6281" x2="27.574" y2="9.04114" gradientUnits="userSpaceOnUse">
<stop stop-color="#E87264" stop-opacity="0"/>
<stop offset="1" stop-color="#FF7044"/>
</linearGradient>
<linearGradient id="paint43_linear_4188_13079" x1="25.2714" y1="10.2807" x2="25.2714" y2="9.33166" gradientUnits="userSpaceOnUse">
<stop stop-color="white" stop-opacity="0"/>
<stop offset="1" stop-color="white"/>
</linearGradient>
<linearGradient id="paint44_linear_4188_13079" x1="32.1102" y1="19.2066" x2="37.7999" y2="19.2066" gradientUnits="userSpaceOnUse">
<stop stop-color="#4AB272"/>
<stop offset="0.3386" stop-color="#47B071"/>
<stop offset="0.5502" stop-color="#3FA870"/>
<stop offset="0.727" stop-color="#309B6D"/>
<stop offset="0.8837" stop-color="#1C8869"/>
<stop offset="1" stop-color="#077565"/>
</linearGradient>
<linearGradient id="paint45_linear_4188_13079" x1="4.2226" y1="20.2434" x2="9.91228" y2="20.2434" gradientUnits="userSpaceOnUse">
<stop stop-color="#4AB272"/>
<stop offset="0.3386" stop-color="#47B071"/>
<stop offset="0.5502" stop-color="#3FA870"/>
<stop offset="0.727" stop-color="#309B6D"/>
<stop offset="0.8837" stop-color="#1C8869"/>
<stop offset="1" stop-color="#077565"/>
</linearGradient>
<linearGradient id="paint46_linear_4188_13079" x1="29.1015" y1="14.6621" x2="33.125" y2="14.6621" gradientUnits="userSpaceOnUse">
<stop stop-color="#4AB272"/>
<stop offset="0.3386" stop-color="#47B071"/>
<stop offset="0.5502" stop-color="#3FA870"/>
<stop offset="0.727" stop-color="#309B6D"/>
<stop offset="0.8837" stop-color="#1C8869"/>
<stop offset="1" stop-color="#077565"/>
</linearGradient>
<linearGradient id="paint47_linear_4188_13079" x1="36.2676" y1="11.3388" x2="40.2911" y2="11.3388" gradientUnits="userSpaceOnUse">
<stop stop-color="#4AB272"/>
<stop offset="0.3386" stop-color="#47B071"/>
<stop offset="0.5502" stop-color="#3FA870"/>
<stop offset="0.727" stop-color="#309B6D"/>
<stop offset="0.8837" stop-color="#1C8869"/>
<stop offset="1" stop-color="#077565"/>
</linearGradient>
<linearGradient id="paint48_linear_4188_13079" x1="8.49802" y1="11.9594" x2="12.5215" y2="11.9594" gradientUnits="userSpaceOnUse">
<stop stop-color="#4AB272"/>
<stop offset="0.3386" stop-color="#47B071"/>
<stop offset="0.5502" stop-color="#3FA870"/>
<stop offset="0.727" stop-color="#309B6D"/>
<stop offset="0.8837" stop-color="#1C8869"/>
<stop offset="1" stop-color="#077565"/>
</linearGradient>
</defs>
</svg>
